<svg xmlns="http://www.w3.org/2000/svg" width="178" height="119" viewBox="0 0 178 119">
  <g id="Group_27" data-name="Group 27" transform="translate(-427 -4380)">
    <path id="Ellipse_1" data-name="Ellipse 1" d="M59.5,2a57.222,57.222,0,0,0-32.147,9.819,57.674,57.674,0,0,0-20.835,25.3,57.422,57.422,0,0,0,5.3,54.528,57.674,57.674,0,0,0,25.3,20.835,57.422,57.422,0,0,0,54.528-5.3,57.674,57.674,0,0,0,20.835-25.3,57.422,57.422,0,0,0-5.3-54.528,57.674,57.674,0,0,0-25.3-20.835A57.138,57.138,0,0,0,59.5,2m0-2A59.5,59.5,0,1,1,0,59.5,59.5,59.5,0,0,1,59.5,0Z" transform="translate(427 4380)" fill="#000000" opacity="1"/>
    <path id="Ellipse_2" data-name="Ellipse 2" d="M59,2A56.216,56.216,0,0,0,36.819,6.515a56.848,56.848,0,0,0-9.681,5.3,57.729,57.729,0,0,0,0,95.371,56.848,56.848,0,0,0,9.681,5.3,56.736,56.736,0,0,0,44.362,0,56.848,56.848,0,0,0,9.681-5.3,57.729,57.729,0,0,0,0-95.371,56.848,56.848,0,0,0-9.681-5.3A56.216,56.216,0,0,0,59,2m0-2c32.585,0,59,26.639,59,59.5S91.585,119,59,119,0,92.361,0,59.5,26.415,0,59,0Z" transform="translate(487 4380)" fill="#000000" opacity="1"/>
  </g>
</svg>
