<?xml version="1.0" encoding="UTF-8"?>
<svg id="Layer_2" data-name="Layer 2" xmlns="http://www.w3.org/2000/svg" viewBox="0 0 21.95 21.9">
  <defs>
    <style>
      .cls-1 {
        fill: #fff;
        stroke-width: 0px;
      }
    </style>
  </defs>
  <g id="Layer_1-2" data-name="Layer 1">
    <g>
      <path class="cls-1" d="M7.58,8.85s-.03-.09-.03-.07c.01.05.03.07.03.07Z"/>
      <path class="cls-1" d="M11.89,14.01l-.16-.1s.08.06.16.1Z"/>
      <path class="cls-1" d="M14.93,14.56h.06s.03-.02.05-.03l-.1.03Z"/>
      <path class="cls-1" d="M17.19,14.26s.06-.05.1-.07c0,0-.01-.02-.03-.03-.05.02-.05.07-.07.1Z"/>
      <path class="cls-1" d="M21.8,10.93v.04s.02,0,.03,0l-.03-.05Z"/>
      <path class="cls-1" d="M7.65,5.44h0c0,.07,0,.03,0,0Z"/>
      <path class="cls-1" d="M.74,6.94c.12-.2-.08.38.09.07-.03.02.04-.33-.09-.07Z"/>
      <path class="cls-1" d="M11.62,0s0,0,.02,0c.05,0,.11,0,.17,0-.06,0-.07-.01-.19-.01Z"/>
      <path class="cls-1" d="M9.32.12h.04s.04,0,.07,0h-.11Z"/>
      <path class="cls-1" d="M21.87,10.94c0,.09-.03.22-.06.23v-.2s-.02,0-.02,0c0-.01,0-.02,0-.03,0-.17,0-.34-.02-.5,0-.01,0-.02,0-.03.01-.02.02-.04.03-.06h-.02s-.01.03-.02.05c0-.02,0-.04,0-.06h.02s0,0,0,0h-.02s0,0,0-.01c0,0,0,0,0,0h-.02s0,0,0,0h.02s-.02.03-.02.04c0-.02,0-.03,0-.04h-.02c0,.08-.02.13-.04.11,0,0,0,.02,0,.02-.28.56-.62,1.08-1.02,1.55,0-.02,0-.04.04-.08-.16.14-.1.17-.26.27-.02.01-.02,0,0-.01l-.13.17s-.06-.01.03-.1c-.28.25-.4.46-.54.52l.02-.02c-.27.24-.17.19-.17.23-.07.06-.15.11-.22.17-.06,0-.11.02-.17.03v.08c-.06.03-.15.09-.14.06-.14.15.04,0-.03.1-.24.1-.6.4-.7.34-.06.08.2-.06.03.05-.01,0-.03.01-.04.02-.12-.04-.27.17-.51.22.05-.07.26-.14.03-.09-.1.13-.43.17-.61.24.01.07-.4.16-.72.26.02-.02-.63.1-.94.09h0c-.05.07-.37.08-.61.1,0-.04.05-.06.18-.08h-.22c-.05.03-.12.05-.26.05l.06-.05c-.29-.02-.59.06-.96-.05-.02.03.11.1.08.13-.07,0-.13-.02-.2-.03,0-.01.03-.03.09-.02-.03,0-.12,0-.19-.02l.16-.02c-.17-.04-.09.02-.23,0,0-.04-.1-.04-.07-.07.04,0,.12.03.17.03-.15-.03-.33-.08-.38-.13,0,.02-.01.05-.12.02-.28-.07-.09-.07-.25-.13-.07,0-.25-.06-.27-.01-.08-.03-.09-.06-.11-.08-.15-.03-.66-.24-.53-.12l.04.02h-.02c-.24-.08-.47-.21-.7-.33-.22-.14-.43-.29-.65-.41h.01c-.24-.18-.51-.36-.72-.5-.06-.06-.13-.16-.09-.15-.17-.15-.22-.13-.42-.39.18.14-.04-.07.18.15-.2-.22-.21-.29-.46-.49.1.05-.1-.2-.19-.31l.1.18c-.1-.12-.18-.23-.26-.34l.09.02c-.29-.51-.7-.83-.78-1.29-.11-.12.11.3,0,.2-.11-.25-.15-.54-.17-.62-.09-.36-.22-.29-.3-.68,0,.05-.05.12-.15-.16-.06-.27,0-.35.07-.19.02.06.02.1.01.09.03.08.07.19.06.08l-.03-.03c-.02-.14-.1-.5-.04-.42-.05-.2-.05-.08-.04.07-.01-.35-.1-.54-.1-.9,0,.06-.03.11-.03.06,0-.53-.05-.23-.08-.59.03-.2.07.07.06-.29.03-.22.06-.04.07.04-.04-.33.07-.6.09-.79v.17c0-.1,0-.19.02-.27l-.05.09c.02-.1.03-.18.05-.18,0-.11-.09.07-.09-.14.05-.13.05-.41.12-.44-.11.41.06-.03,0,.32,0-.07.02-.15.05-.25.01-.01,0,.02,0,.04.15-.38-.02-.2.1-.6.01.06.09-.07.11-.14-.05.16-.08.06-.05-.1.11-.25.08-.28.14-.41l-.07.14c0-.06.05-.19.11-.37.03,0-.05.17-.01.11.02-.22.26-.4.36-.68.09-.11.06.02.13-.07.13-.3.22-.28.38-.57-.09.05-.09.08,0-.15-.1.16-.2.32-.29.48.04-.12.1-.22.15-.34-.1.14-.18.31-.24.4.06-.17.06-.15-.01-.1.18-.16.23-.41.43-.6l.08.07c.29-.28.41-.6.82-.93l-.14.1c.02-.08.23-.23.35-.35.01.04.1-.02.17-.05-.03-.02.3-.24.3-.32l.22-.1c.09-.07.27-.16.35-.22.1-.06.16-.12.22-.16.11-.1.17-.16.43-.29-.03.06.34-.1.01.1.21-.11.43-.21.34-.19.05-.02.1-.05.15-.08-.02,0-.05-.01-.08-.02-.07,0-.13,0-.2,0-.13,0-.23,0-.27-.01-.12.01-.23.05-.42.04,0,0,.03-.02.03-.02-.04.01-.34.02-.23.06-.14-.06-.64-.03-.88-.01-.3,0-.58.08-.77.05-.3.05-.67.12-.93.21.01-.02,0-.02.05-.03-.38.06-.2.16-.63.23-.23,0,.22-.09.07-.08-.1-.11-.5.18-.8.22l.06-.03c-.23.04-.5.23-.83.39,0,0,.01-.02,0-.02-.2.16-.62.38-.91.59.07-.1.12-.1.04-.11-.13.09.08.04-.18.22-.1.03-.31.13-.36.1l.25-.16c-.17.03-.33.2-.46.29v-.04c-.36.29-.33.34-.72.64l.05-.02c-.15.23-.19.12-.36.34h-.11c-.13.13-.41.47-.6.72.08-.17.31-.47.47-.64-.14.11-.42.43-.46.52.04-.06.09-.14.15-.18-.1.2-.27.43-.51.68-.07-.14-.58.7-.81.85-.14.28-.31.54-.48.81-.16.28-.31.58-.47.91.21-.19-.09.19.04.2-.05.15-.07.21-.08.23,0,0,0,0,0,0h0s-.24.46-.24.46c-.07.1.03-.16,0-.15-.13.35-.1.13-.21.36.05-.04.02.14-.05.34l.12-.28c-.07.52-.2.41-.28.93v-.17c-.05.26-.16.99-.11,1.25-.02.05-.06.1-.05-.01-.04.32-.02.68-.02,1.02,0,.34.06.66.03.91l-.03-.05c.01.12.06.2.04.36-.01,0-.03-.05-.03,0,0,.06.09.31.1.47l-.05-.13c.03.31.08.55.14.77.07.22.16.42.24.67-.08.02,0,.51.1.74h-.01c.22.7.52,1.13.86,1.71.07.2.25.51.44.84.22.31.46.65.66.93-.06-.09.06-.03.15.06.09.13.33.28.26.32l-.04-.04c.03.13.25.38.44.54l.1-.04c.38.57,1.36,1.07,1.59,1.36.15.06.32.17.47.23l-.03.04c.37.25.58.33,1.08.56h-.12c.28.13.42.01.68.1l.05.1c.5.2,1.02.4,1.55.46-.01,0-.03.03-.12,0,.24.08.96.21.89.1,0,.07.55.1.84.06l-.05.05c.25-.05.26-.07.6-.07.08.01.07.04-.04.03.27.04.21-.04.54-.03l-.12.04c.28,0,.26-.03.4-.07.17-.03.52,0,.57.02.03-.03.18-.09.34-.11.02.01-.03.03-.06.04.46-.04.67-.15.99-.19.01.01.03.02.06.02-.36.1-.65.12-.63.12,0,.05.31,0,.08.11.24-.06.61-.25.9-.3.01,0,.03,0,.04,0h-.03c.07,0,.12-.02.18-.04.09-.02.15-.02.24-.05.04.03.33-.1.47-.15-.03-.04.16-.1-.03-.08.02,0-.02.02-.12.05-.02,0-.04.02-.06.03,0,0,0,0,0,0-.09.03-.21.08-.35.13.1-.06.21-.13.37-.16.06-.06.13-.12.17-.15.21,0,.6-.1.66-.09.4-.22.96-.48,1.15-.73.1-.08.14-.05.19-.06-.06.05-.13.09-.16.12.21-.15.65-.41.65-.51.28-.17-.11.16.24-.12l-.04.05c.19-.11.35-.23.5-.35.14-.13.26-.27.38-.41.26-.27.49-.56.86-.88-.05.04-.08.07-.09.07.78-.79,1.35-1.83,1.86-2.79.16-.27.11-.33.15-.51l.08-.04.05-.33c.13-.44.35-.72.42-1.31l-.06.06c.07-.2.09-.65.13-.61,0-.02-.03-.07,0-.15h.03c0-.17.02-.34.02-.51.04-.39.11.07.15-.51,0-.22-.05-.62-.08-.54ZM14.5,21.35h0s-.01.02-.03.03c-.09.04-.13.04-.14.04.04-.02.09-.04.16-.07Z"/>
      <path class="cls-1" d="M14.63,21.25s.02-.01.04-.02c-.02,0-.04,0-.06,0l-.03.03.05-.02Z"/>
      <path class="cls-1" d="M11.96,14.04s.02.01.02.02c0,0,0,0-.01-.01h-.01Z"/>
      <path class="cls-1" d="M18.66,13.58l.33-.18c-.07.02-.15.04-.01-.05-.43.2.11-.01-.32.24Z"/>
      <path class="cls-1" d="M17.6,14.06c.18-.09-.01-.03,0-.04-.11.07-.14.08,0,.04Z"/>
      <path class="cls-1" d="M9.84,12.59c-.12-.1-.01.01-.05.02l.05-.02Z"/>
      <path class="cls-1" d="M8.31,10.57s.02.04.04.06c-.05-.07-.09-.15-.13-.22l.09.16Z"/>
      <path class="cls-1" d="M9.68.02l.05.05c.11-.03.12-.1-.05-.05Z"/>
      <path class="cls-1" d="M3.75,2.73c.11-.09.23-.17.27-.22-.07.02-.21.13-.27.22Z"/>
      <polygon class="cls-1" points="3.48 19.01 3.67 19.16 3.59 19.08 3.48 19.01"/>
    </g>
  </g>
</svg>