<?xml version="1.0" encoding="UTF-8"?>
<svg id="Layer_2" data-name="Layer 2" xmlns="http://www.w3.org/2000/svg" viewBox="0 0 100.26 84.82">
  <defs>
    <style>
      .cls-1 {
        fill: #f2dfd7;
        stroke-width: 0px;
      }
    </style>
  </defs>
  <g id="Layer_1-2" data-name="Layer 1">
    <g>
      <path class="cls-1" d="M35.57,6.15c-1.51.42-2.55,1.32-3.31,2.73-.57,1.06-1.2,2.11-1.88,3.11-1.03,1.5-1.77,3.17-2.83,4.65-.02.03-.04.05-.05.08-.06.42-.64.44-.64,1.01,0,.43-.49.85-.75,1.28-.26.43-.5.87-.76,1.3-1.57,2.61-3.15,5.23-4.73,7.84-.51.84-1.02,1.67-1.53,2.5-.14.24-.2.54-.57.58-.47.05.19.19-.03.44-1.08,1.19-1.64,2.73-2.56,4.05-.64.91-1.06,2.02-1.74,2.92-.34.45-.29,1.25-1.08,1.33.1.5-.21.84-.45,1.24-1.37,2.25-2.73,4.51-4.05,6.79-.25.43-.52.32-.92.23.44.3.46.59.16,1-.48.66-.96,1.35-1.29,2.09-.5,1.14-.46,2.3.47,3.27.44.46.93.8,1.51,1.1,2.24,1.16,4.47,2.36,6.69,3.56,1.49.81,3,1.6,4.5,2.41,1.63.89,3.29,1.7,4.9,2.61.36.2.43.81,1.12.61.46-.13.71.63,1.29.72.47.07.9.43,1.33.68,1.9,1.1,3.94,1.95,5.77,3.18.42.28.95.51,1.45.66.42.13.6.57,1.02.67.12.03,0,.66-.18,1q.43-.2.56-.84c.91.44,1.84.82,2.7,1.33,1.28.76,2.62,1.4,3.91,2.13,1.01.57,2.07,1.06,3.05,1.69.47.3.79.84,1.45.74.22.66.97.36,1.34.74.02.02.02.06.03.09-.5.05-.86.4-1.3.56.47-.1,1.12.18,1.28-.58.03,0,.06,0,.1,0,.42-.04.57.59.62.55.42-.37.65.05.91.19.95.51,1.83.37,2.73-.15.43-.25.77-.71,1.37-.61.08.01.11-.05.16-.12.25-.32.27-.28.76-.15.16.04.35-.06.52-.1-.06.31.03.58.19.83q-.78.37-.06.94c-.06-.37-.27-.7.04-.96.23.17.45.33.71.52.07-.56.49-.52.98-.53-.67-.14-.99-.38-.62-1.02.14-.24-.07-.4-.31-.47,0,.45,0,.88,0,1.32,0,.1-.09.17-.19.16-.05,0-.15-.07-.14-.09.19-.58-.44-.43-.61-.68-.12-.42.05-.59.43-.83.37-.24.82-.34,1.16-.63.17-.15.49-.17.61,0,.13.18.47.37.18.71-.25.29.19.32.25.51.03.11.22-.01.3-.1.18-.2.01-.26-.1-.43-.24-.35-.3-.79-.34-1.24.69.28.96-.19,1.3-.69.02.46.44.51.63.79-.14.08-.37-.08-.47.15.19.38.59.25.86.27.26.02.22-.26,0-.42,0-.03.01-.07.03-.09.3-.47.55.51.55.11,0-.38.38-.49.32-.81q-.44-.03-.72-.56l.02.02c.16-.31.44-.39.75-.39-.03.64.35.62.81.5-.17-.22-.73.05-.6-.5.67-.07,1.05.3.79.83-.23.47.31.31.37.52l-.02-.02c-.02.13.11.32-.17.33-.32,0-.16.34-.11.33.75-.09.78.87,1.41.91-.24.07-.73.31-.87.46-.19-.31.04-.7-.28-1.16.07.63-.86.89-.19,1.54-.19.25-.55-.2-.8.27-.18.33-.87.38-1.01-.4-.22.25-.14.63-.5.61-.32-.02-.06-.42-.34-.51-.2.54.38,1.3-.49,1.63.24.31.47-.04.71.03.16.05.36-.03.38-.2.02-.24-.24-.08-.33-.17-.13-.14-.13-.39.05-.34.46.11.81-.21,1.43-.24-.62.38-.29.89-.48,1.29-.37-.12-.74-.11-1.14-.07.73.53.92.53,1.57.03q.14-.11-.14-.74c.55.19.67.13.79-.39.08-.35.83-.91,1.14-.86.05,0,.12.07.13.12.03.15-.05.22-.19.27-.49.16-.6.46-.26.87.04.05.18.02.27.02v.28c-.29.1-.05.56-.48.61-.34.04-.67.23-.65.69-.06,0-.13,0-.19,0-.26-.31-.64-.06-1.01-.37.28.86.72.27,1.03.35-.42.64-1.15.71-1.77.99.28-.4.08-.67-.19-.96-.45.43-.4.8-.01,1.16-.09.36-.48.16-.69.39-.39.43-.9.56-1.46.27-.29-.15-.62-.04-.92-.08-.15-.39-.47-.41-.81-.37.23-.36,0-.63-.16-.92-.18-.33-.59.04-.77-.26.08-.5.87-.5.81-1.13-.41.26-1.06.22-.99.93,0,.05-.06.14-.09.14-.46-.02-.34.11-.06.25.18.1.14.26.16.41-.32-.13-.6-.15-.71.28.22-.12.64.24.69-.31.12.05.24.1.36.15.03-.56.36-.17.5-.12.22.08.01.44.28.55.16.36.47.4.81.37.01.14-.06.34.23.23.27-.1.51-.03.66.23.08.13-.04.33-.08.29-.45-.41-.74.13-.89.27-.26.27-.62.17-.85.38-.1.09-.19.14-.33.14-.16,0-.16-.49-.36-.16-.16.26.22.29.39.49-1.3.62-2.61,1.1-4.06,1.04-.58-.65-1.26.24-1.93-.12-.2-.11-.6-.16-.9-.29.12-.49.47-.77.94-.93-.62-.01-1.16-.14-1.67-.42-.28-.16-.19.11-.25.21h.02c-.12,0-.25.02-.35-.08-.13-.15-.34-.15-.68-.11-.39.04-.09.27-.14.39l.02-.02c-.64.26-1-.14-1.36-.56.08-.05.17-.09.22-.16.06-.09.38-.02.19-.27-.03-.05-.09-.09-.14-.1-.25-.06-.23.13-.24.28,0,.09,0,.19,0,.28-.03,0-.07-.02-.1-.01-.58.13-.4-1.04-1.25-.65-.44.2-.92-.43-1.38-.68-.46-.24-.92-.52-1.37-.77-.71-.39-1.56-.53-2.03-1.3-.53.19-.84-.21-1.21-.46.25-.33.24-.62-.09-.92-.23.4.2.63.12.94-1.85-.9-3.63-1.93-5.45-2.87-.98-.51-1.95-1.05-2.94-1.55-1.49-.75-2.99-1.51-4.39-2.42-.37-.24-.78-.21-1.12-.48-.39-.31-.86-.55-1.3-.75-1.41-.64-2.68-1.53-4.09-2.17-.77-.35-1.5-.8-2.25-1.2-.79-.43-1.56-.89-2.38-1.28-.29-.14-.43-.32-.51-.59-.39.19-.71,0-1.03-.2-.29-.18-.61-.35-.87-.57-.31-.26-.7-.32-1.04-.43-.32-.1-.28-.61-.81-.5-.3.06-.69-.38-1.05-.58-.36-.2-.74-.37-1.1-.55-.34-.17-.71-.29-1.02-.51-.34-.24-.69-.44-1.06-.62-.37-.18-.75-.34-1.11-.55-1.57-.89-3.06-1.88-4.05-3.44-.8-1.26-1.29-2.6-1.46-4.12-.15-1.39.08-2.67.4-3.99.15-.62.49-.91,1.16-1.02-.37-.2-.65-.35-.35-.81.86-1.32,1.66-2.68,2.48-4.03.67-1.1,1.3-2.23,2-3.32,1.36-2.1,2.59-4.29,3.89-6.42.48-.78.85-1.64,1.42-2.34.72-.89,1.21-1.92,1.81-2.87.6-.96,1.16-1.99,1.74-2.98,1.09-1.88,2.25-3.72,3.38-5.58.66-.24.47-.97.83-1.41.39-.49.63-1.09.96-1.62.31-.51.68-.98.96-1.52.29-.56.63-1.09.98-1.61.14-.2.12-.7.66-.41.12.06.58-.32.44-.61-.31-.68.18-1.06.45-1.52.58-1.01,1.18-2.01,1.82-2.99.84-1.27,1.5-2.64,2.33-3.91.1-.16.13-.38.39-.28.1.04.23.03.2-.04-.34-.96.66-1.09,1.01-1.61.37-.55.94-.94,1.53-1.28,1.57-.89,3.23-1.41,5.06-1.36,1.91.04,3.81,0,5.72,0,1.1,0,2.2,0,3.29,0,.35,0,.79-.11,1.04.06.4.27.62-.15.96-.09.34.07.73.26,1.01.18.79-.23,1.59-.15,2.38-.13.35,0,.85-.31,1.06.31.07.21.1-.03.13-.06.37-.48.77-.35,1.18-.07-.15.06-.35-.06-.48.11.15.26.35.35.63.26-.06-.13-.12-.27-.18-.4,1.03-.32,2.02-.35,2.92.39.25-.21.53-.81.73-.52.23.35.56-.22.65.23.07.39.15-.02.22-.05.91-.29,1.79-.36,2.73.02.37.15.81.63,1.34.23-.22-.14-.42-.26-.67-.42.5-.18.9.3,1.36-.03.18-.13.12.31.26.38.08.04.24-.33.36.06.06.18.25.39.53.19.14-.1.32-.13.37.09.05.19.04.39-.24.42-.12.01-.3,0-.27.17.04.25.22.09.36.09.27,0,.14.18.08.31-.07.16-.22.35.04.43.09.03.23,0,.35.04.05-.2.31-.35.21-.59-.08-.19-.36-.29-.3-.56.32-.32.59.12.88.06.14-.03.35.32.42-.06.05-.3-.19-.29-.37-.28-.55.05-.78-.24-.9-.97.59.72,1.31.51,1.9.76l-.02-.02c0,.12.02.23.03.35,0,.09,0,.19,0,.28-.04.12-.09.23-.11.35-.05.38-.45.48-.59.69-.4.6-.5-.46-.77-.01-.29.46.4.77.28,1.25l.02-.02c-.56.15-.3-.47-.56-.6-.41-.08-.85-.09-1.18-.42-.15-.14-.26.1-.41.09.01-.27-.05-.49-.32-.61-.08.32.11.46.35.59.17.24.19.65.64.55.53-.12.21.28.29.44.05.12.01.35.27.28.12-.32,0-.74.38-.95,0,.22.02.45-.03.66-.06.26.28.28.24.5-.39-.17-.59.55-1.02.23.02-.37-.33-.4-.53-.56-.2.37.33.3.33.56-.12.04-.29.04-.35.12-.29.38-.43.09-.6-.1-.17-.34-.77-.2-.79-.7-.02-.47.26-.67.68-.76.1-.02.09-.16.01-.23-.08-.07-.14-.24-.3-.1-.16.15-.36.28-.47.47-.2.32-.6-.06-.77.26,0-.45-.56-.38-.67-.71-.05-.15-.02-.34.2-.35.17,0,.4-.12.48.13.02.05-.35.1-.02.26.18.09.25-.07.31-.07.86-.05.43-.73.58-1.11,0,0-.01.02-.01.02.19-.1.37-.19.63-.33-.71-.13-1.37.02-2.01-.12-.35-.08-.7.21-.59.63.09.35-.08.75.12,1.02.28.38-.14.5-.23.76q.74-.23,1.52.63c-.7.27-1.39.54-2.1.81.12.33.18.71.67.61.09-.02.2-.03.21-.14.03-.31-.4-.08-.45-.43.58.09,1.01-.28,1.5-.46.54-.2,1.05.13,1.54-.13.04.23-.24.46.11.7.27.19-.18.5-.06.77.26.13.27-.08.32-.21q.36-.9,1.43-.82c-.18.63-.77,1-1.19,1.29-.59.42-1.46.35-2.21.04-.04-.16.29-.28.03-.46-.19-.13-.29.03-.33.15-.1.3.17.23.32.28-.03.05-.05.11-.09.15-.33.33-.59-.58-1.04-.02-.21.26-.85.09-1.26.04-.21-.23.04-.37.06-.54.05-.42-.12-.11-.25-.1-.43.03-.16-.58-.53-.66q-.02.7-1.11.59c.09.37.49.25.73.45-.47.58-1.2.31-1.62.2-.37-.1-.56,0-.83.08-.08.02-.19-.02-.32-.03.04-.21.05-.43.12-.61.08-.2.27-.4-.02-.57-.21-.12-.43.04-.62.11-.19.07-.1.3-.05.5.14.56.12.41-.51.43-.56.02-1.15.13-1.72.15-.4.01-.9.27-1.21-.25-.1-.16-.21-.05-.32,0-1.08.5-2.23.14-3.34.28-.46.06-.2-.49-.51-.54-.08.56-.22.63-.63.42-.16-.08-.03-.49-.44-.3-.36.17.11.25-.02.35-.14.11-.31.07-.46.06-1.4-.08-2.81.2-4.2-.18-.39-.11-.73.19-1.12.19-.81.02-1.61-.09-2.4-.22-.02-.21.31-.29.24-.62-.38.23-.7.43-1.01.62ZM59.28,77.69c.06-.35-.22-.4-.44-.48-.1-.03-.11.11-.1.18.04.4.36.21.57.27.36.16-.22.6.29.79,0-.35.29-.71-.32-.77ZM54.83,80.55c-.23.13-.44-.22-.49-.16-.19.28.12.33.28.44.09.07.02.35.27.22-.03-.18-.06-.35-.09-.53q.56.22.51-.39c-.06.27-.38.21-.49.41ZM54.42,5.23c.11-.27.36-.52.09-.85.18.3-.47.49-.07.83.12.15.26.26.42.36.54.34.56,0,.56-.39.18-.09.77.42.51-.37-.1-.3-.36-.5-.39-.81-.32.39-.07.81-.09,1.21-.34.12-.69.04-1.03.03ZM52.75,2.1c-.19-.27-.51-.15-.75-.26-.05-.02-.22.07-.23.13-.05.21.17.06.22.13.28.41.52-.12.78-.03-.02.12-.04.25.08.33.26-.37.79-.46,1.12-1.08-.53.34-.88.55-1.23.77ZM56.23,3.11c-.22-.1-.22.55-.54.16-.09-.11-.25-.29-.37-.07-.13.22.09.35.26.4.43.13.66-.05.63-.51.46-.68-.12-.7-.53-.84-.1-.04-.11-.37-.3-.12-.13.17.05.31.2.32.42.03.65.23.65.66ZM52.54,82.88c.25-.04.14.35.38.33.15-.79-.57-1.28-.68-1.98-.01-.09-.22-.08-.34-.03-.19.1-.04.19,0,.29.22.47.77.79.65,1.41-.33.08-.08-.49-.39-.36-.15.06-.35.32-.32.43.05.2.26.36.42.55.11-.23.28-.4.26-.64ZM57.16,82.1c-.19-.23-.38-.17-.56-.15.17.48-.22.43-.41.33-.38-.19-.42.27-.68.3-.06,0-.16.29-.11.39.07.17.37-.25.49.14.04.14.24-.11.23-.13-.16-.41.3-.45.38-.43.47.12.49-.26.67-.46ZM43.33,76.34c.17.15.15.24.11.33-.13.31.24.19.29.35.05-.03.13-.04.15-.08.1-.26-.26-.32-.26-.59,0-.25-.28-.23-.44-.13-.42.26-.6.7-.91,1.16.66-.12.78-.63,1.05-1.03ZM61.8,76.29c-.97-.25-.98-.26-1.35.16-.08.09-.39.01-.24.27.12.2.27.15.48.06.24-.09.23-.25.32-.42.16-.29.47.34.8-.07ZM48.35,79.24c-.21-.01-.42-.02-.5.19-.11.27.4.39.2.7.2.07.36.03.51-.13.09-.11.11-.31.03-.3-.4.04-.38-.06-.14-.3.21-.21-.04-.12-.09-.16ZM56.66,1.47c-.18-.16-.3-.26-.42-.36l-.54.25c-.2.01-.19.11-.08.23.38.44.66-.1,1.05-.11ZM54.26,3.93c-.3.2-.41-.02-.55-.15-.14-.13-.26-.13-.41,0-.17.15-.03.27.02.4.06.18.18.28.33.14.17-.17.44-.02.61-.39ZM60.34,79.56c-.12.2-.32.23-.54.26-.46.06-.44.3-.11.52.11.08.25.31.49.08-.89-.53.53-.39.16-.86ZM58.38,2.33c.15-.19.23-.3.16-.53-.11-.36-.5-.13-.59-.38-.07-.2-.08-.5-.36-.23-.18.17.27.23.2.45.4.05.66.22.59.69ZM58.97,4.23c-.68-.37-.9-.31-1.34.35.47-.11.83-.47,1.34-.35ZM52.4,4.19c-.06.31-.1.61.02.89.37-.11.86-.09.63-.7-.19.06-.2.39-.47.34-.14-.15.02-.4-.18-.53ZM58.97,80.55c-.14.41,0,.77.12,1.17.77-.55.09-.82-.12-1.17ZM58.55,81.09c-.34-.15.37-.69-.22-.7-.2,0-.46.02-.47.22-.02.41.46.29.69.49ZM47.51,4.92c-.02-.23-.12-.31-.26-.26-.24.1-.44.24-.41.57.02.19.13.25.27.3,0-.31.23-.47.39-.61ZM45.34,2.16c.12.24.04.44-.08.84.38-.43.78-.27,1.14-.44-.44.08-.69-.27-1.06-.4ZM47.54,81.24c.09.38.37.2.49.34.11.12-.31.36.07.37.16,0,.18-.23.18-.39,0-.16,0-.31,0-.47-.29.04-.44.3-.74.16ZM51.24,83.97c.04-.45.35-.91-.02-1.36-.05.45.03.91.02,1.36ZM53.79,80.8c.21-.21.25-.5.33-.77.09-.31-.14-.19-.25-.21-.04,0-.32-.07-.15.14.22.27-.17.52.07.84ZM61.05,3.7c.21.21.34-.04.46,0,.38.14.23-.26.37-.35-.13-.11-.31-.12-.41-.01-.13.13-.39.07-.42.35ZM60.5,6.01c.53.03.79-.21.8-.71-.2.32-.53.48-.8.71ZM50.7,82.58c-.28-.08-.58-.12-.53-.48-.22.02-.08.23-.17.32-.2.23,0,.35.16.41.19.07.31-.15.54-.25ZM54.35,78.89c.25-.07.56-.08.61-.36.02-.1-.17-.26-.35-.25-.44.02-.03.47-.26.61ZM37.26,5.72c.17.02.2-.1.24-.22.06-.15.31-.31.02-.44-.16-.07-.29.11-.35.25-.06.14-.07.3.09.42ZM33.23,5.41c-.05.4.2.78-.26.77-.06,0-.22-.03-.15.13.04.09.12.14.22.13.32-.05.38-.27.19-1.03ZM59.23,79.51c-.16-.19-.32-.38-.48-.56-.06.07-.17.14-.18.21-.02.32.37.3.48.52.04-.04.09-.08.18-.17ZM51.18.98q-.81.09-.48.71c.08-.26.08-.53.48-.71ZM57.93,2.37c-.14-.34-.55-.27-.52-.61,0-.08.09-.18-.06-.2-.12-.01-.16.08-.17.18-.03.47.31.54.74.62ZM27.24,67.67c.01-.17-.11-.26-.25-.34-.14-.08-.23,0-.25.14-.02.15-.02.32.19.34.12.01.24.02.31-.14ZM12.96,29.8c.24-.03.5.2.71-.09-.27-.3-.5-.29-.71.09ZM51.43,3.9q.41-.5.17-.89c.07.31-.26.5-.17.89ZM54.31,82.92c.24.4.5.11.7.18,0-.06.03-.15,0-.18-.24-.24-.41.05-.7,0ZM4.44,59.63c-.22-.08-.43-.12-.62.04-.02.02,0,.14.03.16.27.17.46.09.59-.2ZM46.92,4.37c.22,0,.19-.21.26-.33.12-.2-.07-.17-.16-.18-.13,0-.24.04-.24.21,0,.12-.02.25.14.3ZM49.27,80.11c.59.36.79.2.88-.19-.21.13-.43.22-.88.19ZM47.25,79.29c-.12-.02-.21-.06-.3-.05-.15.02-.48-.03-.28.26.13.19.4.11.58-.21ZM38.32,3.3c.12-.04.15-.14.12-.21-.07-.2.35-.15.18-.37-.05-.06-.19-.12-.25-.09-.17.08-.08.26-.09.4,0,.09.02.18.03.27ZM62.5,76.82c-.51-.08-.31.36-.43.56.05.02.1.04.17.06.1-.2.3-.36.26-.62ZM41.18,74.77c.14-.18.28-.37.42-.56,0,0-.1-.11-.14-.11-.31.05-.26.38-.41.56.02.02.05.04.13.11ZM38.14,72.92c.04.33-.29.52-.17.81.51-.14.35-.44.17-.81ZM58.2,80.02c-.07-.13-.13-.24-.18-.34-.08.09-.2.16-.23.27-.04.14.08.22.21.21.09,0,.26.05.2-.14ZM56.38,4.26c.1.37.2.55.47.47.03,0,.08-.11.06-.15-.07-.2-.28-.17-.54-.33ZM34.73,73.56c-.24-.4-.43-.35-.61-.01.18.09.36.08.61.01ZM49.74,1.75c0,.34-.35.28-.33.54,0,.04.11.11.14.1.24-.08.33-.25.19-.64ZM34.4,70.81c-.05-.07,0-.24-.2-.22-.1.01-.14.09-.14.19,0,.12,0,.26.14.28.18.03.17-.12.2-.26ZM33.43,75.45c-.01-.12-.02-.25-.19-.13-.09.06-.27.04-.26.18.01.11.13.21.27.21.18,0,.16-.14.18-.26ZM62.99,76.46c-.1-.11-.19-.19-.25-.29-.16-.3-.28-.02-.27.04.04.26.24.32.52.25ZM1.02,53.53c-.05-.15-.16-.26-.31-.3-.11-.03-.18.05-.18.15,0,.21.22.16.33.25.15.12.12-.04.16-.1ZM60.57,77.76c-.11.16-.17.23-.21.3-.09.14-.15.36.09.31.3-.05.15-.34.13-.62ZM49.16,78.38c-.07.37-.11.58-.14.78.19-.17.43-.3.14-.78ZM53.44,3.34c.08-.25-.16-.37-.22-.56-.05.03-.14.06-.15.1-.05.28.14.39.37.46ZM44.22,79.93c.09.02.2.01.27.05.23.13.41.07.28-.18-.1-.2-.36.03-.55.12ZM50.52,5.07c-.21-.04-.44-.16-.47.2,0,.06.02.17.03.17.25,0,.34-.19.44-.38ZM6.06,55.97c-.05-.07,0-.24-.2-.22-.1.01-.14.09-.14.19,0,.12,0,.26.14.28.18.03.17-.12.2-.26ZM47.69.85c-.03-.11-.01-.26-.19-.24-.09.01-.14.09-.14.19,0,.12,0,.26.14.28.18.03.17-.13.19-.24ZM54.99,82.1c-.04-.16-.17-.15-.29-.15-.15,0-.24.11-.18.23.05.11.2.13.32.09.08-.02.18-.06.15-.17ZM44.52,3.91s.07-.07.08-.09c.05-.14.09-.29.13-.44,0,0-.11-.07-.15-.05-.15.06-.12.2-.11.32,0,.08.03.16.06.27ZM48.22,3.85c-.07.16-.15.32-.25.54.38-.03.31-.3.25-.54ZM14.13,61.42c-.1-.18-.26-.12-.4-.08-.04,0-.1.1-.09.14.06.24.24-.06.36.07.1.1.13-.02.13-.12ZM49.29,3.88c-.15.02-.22.11-.18.2.05.1.17.17.26.25.02-.06.05-.12.06-.18,0-.12.01-.26-.13-.27ZM21.46,63.44c.02-.14-.06-.18-.16-.17-.11,0-.17.09-.15.19.01.08.05.16.07.25.12-.06.21-.13.24-.26ZM36.12,73.18c-.17-.2-.24-.41-.5-.36.03.24.14.39.5.36ZM39.2,77.17c.11-.08.23-.16.18-.31-.03-.1-.14-.15-.22-.09-.06.05-.08.16-.09.25,0,.06-.04.21.12.15ZM44.88,78.26c.1-.2-.06-.17-.16-.18-.08,0-.2,0-.19.1.02.11.08.28.17.3.14.05.08-.17.18-.22ZM41.44,79.16c.14-.3.08-.45-.09-.58-.07-.05-.11-.06-.13.02-.07.22.19.29.22.56ZM46.52,78.86c0-.11-.05-.2-.16-.17-.08.02-.17.08-.23.15-.1.11,0,.15.08.16.13.02.25.02.31-.14ZM54.4,79.58s.23.04.13-.14c-.05-.08-.13-.15-.21-.18-.1-.04-.19.04-.19.14,0,.18.14.17.27.18ZM24.71,15.7c-.17-.25-.33-.35-.58-.21.17.1.27.31.58.21ZM50.96,79.88c-.12-.01-.13-.27-.33-.15-.05.03-.08.09-.11.14.11.07.22.17.34.21.1.03.11-.08.11-.2ZM59.96,5.02c-.07.02-.21-.02-.18.11.03.12.13.22.28.21.05,0,.13-.06.13-.11.03-.17-.1-.2-.24-.21ZM48.57.53s-.05.08-.06.13c-.02.21.08.3.28.26.04,0,.07-.05.11-.08-.11-.1-.22-.21-.33-.31Z"/>
      <path class="cls-1" d="M37.14,54c-1.14-.84-2.31-1.62-3.72-1.93-.83-.19-1.66-.4-2.52-.4-4.7,0-9.4,0-14.1,0-.45,0-.96.07-1.19-.42-.22-.48-.1-.92.21-1.42,2.22-3.65,4.45-7.3,6.7-10.93,1.8-2.92,3.57-5.87,5.31-8.83.16-.27.39-.49.51-.8.16-.39.33-.81.85-.87-.07-.56.27-.94.55-1.37.54-.83,1.12-1.66,1.62-2.5.72-1.19,1.4-2.41,2.09-3.63.37-.66.87-1.24,1.19-1.94.24-.52.75-.57,1.24-.47.41.08.59.36.69.8.39,1.75.81,3.5,1.3,5.22.1.34-.43.71-.03.82.53.15.18.55.38.8.21.26.18.72.27,1.08.09.37.19.73.28,1.09.09.33.2.66.28,1,.09.37.11.75.23,1.11.18.54.27,1.1.41,1.65.27,1.1.23,1.18-.85,1.36.14.12.3.08.46.08.84-.02.89,0,.92.78.03.93.49,1.75.67,2.64.26,1.32.62,2.63,1,3.92.14.49-.15.74-.36,1.06.28.23.36-.09.58-.23.11,1.04.45,2,.69,2.98.25.99.47,1.99.7,2.98.25,1.03.51,2.07.76,3.09-.26.16-.32-.16-.49-.15-.07.08-.07.2,0,.25.74.4.64,1.26,1.02,1.86.1.15.11.38-.12.49-.27.13-.05.3,0,.37.14.2.15-.13.22-.09.3.16.02.55.27.74-.45.54.09,1.03.23,1.42.3.82.53,1.57.44,2.45-.05.43.15.99.33,1.26.67.96.69,2.08.96,3.12.19.75.64,1.51.31,2.34-.05.12.05.16.1.23.36.49.37,1.08.02,1.36-.61.47-.9.41-1.48-.24-.47-.53-.96-1.04-1.09-1.78-.03-.17-.16-.28-.31-.34-.56-.22-.72-.77-1.02-1.21-.06-.08-.28-.26,0-.37.2-.08.25-.26.14-.36-.14-.13-.14.2-.32.19-.21-.01-.31-.07-.43-.27-.58-.97-1.28-1.87-1.92-2.81-.74-1.09-1.56-2.14-2.33-3.22-.15-.21-.3-.37-.37-.64-.14-.5-.71-.61-1.03-.97-.11-.12-.24-.21-.27-.38.21-.13.41-.26.47-.53-.58-.15-.42.27-.44.56ZM40.58,50.3c-.24.14-.42-.3-.68-.07.21.24.41.43.66.05.27.01.49-.05.61-.32-.32-.08-.46.11-.59.35ZM46.64,63.16c-.12-.12.13-.45-.11-.46-.26,0-.29.23-.16.48.08.15-.2.3-.02.51.1.11.12.27.32.28.18,0,.31-.09.39-.23.06-.09.1-.25-.11-.19-.45.13-.4-.09-.3-.4ZM28.31,35.42c0-.25-.02-.49,0-.72.04-.31-.19-.19-.28-.16-.12.03-.33.24-.21.27.37.08.09.58.49.62ZM30.77,51.04c.06-.56-.24-.59-.68-.47.27.13.4.4.68.47ZM44.52,62.55c.08-.13.17-.26.25-.4.05-.09.02-.21-.07-.23-.22-.05-.34.11-.4.29-.05.14.07.22.23.34ZM29.59,39.73c-.06.18-.08.39-.29.47.07.06.17.19.2.18.17-.1.4-.2.38-.44,0-.09-.13-.22-.29-.21ZM27.16,33.03c-.02.12-.06.21-.05.3.02.15-.03.48.26.28.19-.13.11-.4-.21-.58ZM30.99,43.24c.23.21.45-.11.68-.05,0-.03,0-.07,0-.09-.22-.17-.44-.16-.66,0-.02.01,0,.06-.01.14ZM44.51,54.66c-.11-.11-.19-.2-.27-.28-.08-.08.11-.38-.19-.25-.16.06-.05.19-.02.31.06.22.17.33.48.23ZM34.68,23.17c.15.13.25.12.3.03.13-.22.42.33.43-.08,0-.2-.29-.21-.48-.15-.08.02-.15.11-.26.2ZM41.83,44.67c.19-.2.42-.31.47-.75-.28.27-.67.21-.47.75ZM32.32,27.01c-.34.31-.1.54.08.8.19-.32-.17-.52-.08-.8ZM38.87,48.78c-.18.16-.03.21-.02.29.04.25.2.3.41.2-.12-.15-.25-.31-.39-.49ZM33.41,39.09c-.04-.1-.13-.17-.21-.12-.13.07-.29.15-.28.33,0,.09.08.14.18.05.11-.08.32-.04.31-.26ZM36.5,52.65c-.13.09-.32.11-.39.28,0,.01.15.09.23.13.27.11.15-.18.25-.25.13-.11-.01-.12-.08-.15ZM31.1,29.39c-.11-.06-.14-.31-.35-.17-.1.07-.22.17-.14.3.09.15.24-.09.39.03.1.08.09-.09.1-.17ZM35.08,29.88c0,.08-.26-.06-.14.17.05.11.12.21.17.31.08-.09.2-.17.23-.27.04-.15-.09-.2-.26-.21ZM43.23,57.3c-.42.25-.38.45,0,.64v-.64ZM41.75,57.02c.2-.03-.09-.33.13-.37.05,0,.22-.09.02-.14-.15-.04-.32-.03-.32.2,0,.11-.04.25.18.32ZM31.17,40.86c.07.2.18,0,.27.02.09.03.24.17.22-.07-.02-.17-.19-.12-.3-.12-.09,0-.18.04-.18.17ZM44.73,60.5c.1-.04.27,0,.24-.2,0-.05-.07-.11-.11-.12-.15-.04-.24.07-.29.19-.07.16.09.09.16.14ZM34.76,32.98c.02-.14-.06-.18-.16-.17-.11,0-.17.09-.15.19.01.08.05.16.07.25.12-.06.21-.13.24-.26ZM33.16,28.6c-.09.32-.12.52,0,.73.11-.21.1-.42,0-.73ZM17.92,51.09s-.19-.02-.16.11c.03.12.13.22.28.21.05,0,.13-.06.13-.11.03-.17-.1-.2-.25-.21ZM25.03,36.54c.28-.15.39-.31.22-.59-.04.21-.27.28-.22.59ZM16.59,49.27c.25.07.4.05.53-.13.05-.07.07-.11,0-.13-.24-.07-.32.15-.53.26ZM26.26,46.32s.05.08.07.09c.15.05.29.1.44.13,0,0,.07-.11.06-.15-.05-.15-.2-.12-.31-.12-.08,0-.17.03-.26.05ZM38.97,46.02c-.05.14-.34.21-.17.42.03.04.14.09.14.08.14-.15.07-.32.02-.5ZM29.32,38.81c-.09-.02-.18-.05-.26-.05-.16,0-.23.09-.17.24.02.04.1.08.15.07.14-.02.21-.13.28-.26ZM32.86,45.25s.03-.24-.11-.14c-.1.08-.12.27-.16.42,0,.02.07.1.1.1.24-.04.12-.24.16-.37ZM33.08,24.05c.09-.04.12-.1.06-.13-.13-.09-.03-.46-.31-.31-.08.04,0,.38.24.45ZM31.76,45c.18,0,.26-.12.3-.26.01-.04-.05-.1-.07-.15-.13.07-.26.14-.39.21.06.07.11.14.17.21ZM30.27,45.2c.09-.32.12-.52,0-.73-.11.21-.1.42,0,.73ZM37.07,43.77c-.06.32-.09.61.41.42-.15-.15-.28-.28-.41-.42ZM40.07,40.37c.17.25.33.35.58.21-.17-.1-.27-.31-.58-.21ZM40.79,41.78c.14-.02.22-.12.28-.23-.08-.03-.15-.07-.23-.09-.1-.02-.19.04-.21.14-.02.1.04.18.16.18ZM35.69,41.13c-.09-.02-.18-.05-.26-.05-.16,0-.23.09-.17.24.02.04.1.08.15.07.14-.02.21-.13.28-.26ZM40.46,37.57c-.1-.06-.05-.27-.18-.23-.08.02-.15.19-.17.3-.02.11.11.11.18.1.09,0,.26.03.17-.17Z"/>
      <path class="cls-1" d="M54.66,50.69c.03.11.03.33.18.24.42-.26.79-.1,1.21-.07.46.04.23.29.25.4.06.3-.08.38-.38.26-.16-.07-.4-.13-.46.15-.03.18-.04.35.12.53.58.66.43,1.06-.5,1.31,0,.35.6.28.5.75-.21.14-.45-.48-.66-.05-.1.21-.11.61.02.61,1.14,0,.28.68.25.9-.14,1.12-.68,2.15-.73,3.3-.01.29-.23.51-.4.71-.09.11-.41.04-.15.31.34.37.22.54-.24.63-.12.02-.25.17-.27.33.15.16.32-.12.42,0,.14.17-.03.29-.14.39-.45.41-.95.24-1.41.06-.42-.16-.37-.58-.32-.92.05-.37-.18-.87.4-1.08.05-.02.06-.49-.05-.59-.46-.4-.19-.95-.34-1.41-.14-.43.12-.91,0-1.4-.12-.52,0-1.09-.04-1.63-.03-.38.25-.56.37-.84.14-.12.21-.28.25-.45.43.27.73,0,1.07-.31-.42-.1-.71-.57-1.25-.3-.07.03-.25-.08-.33-.16-.4-.43.02-1.73.59-1.89.06-.02.13,0,.19,0,.21-.01.53.05.43-.3-.05-.2-.24.15-.48,0-.33-.2-.75-.76-.61-1.14.05-.14.2-.25.08-.43-.66-.97-.16-2.05-.3-3.07-.02-.14.1-.22.16-.33.07-.13.36-.07.28-.29-.05-.14-.2-.07-.32-.08-.13-.02-.13-.2-.12-.32.03-.57-.09-1.15.08-1.71.04-.14-.1-.33.2-.43.61-.21.19-.54.1-.95.1-.16.46.14.7-.15-.32-.09-.63-.21-.48-.62l-.02.02c.43.1.85.23,1.22-.2.09-.1.3-.09.12-.27-.08-.08-.23-.35-.32-.12-.26.65-.67.22-1.02.19l.02.02c.02-.22.19-.2.35-.22.09-.01.17-.06.26-.09-.06-.02-.11-.05-.17-.07-.37-.14-.4-.77-1.11-.55.28-.22.41-.31.52-.41.09-.08.18-.18.05-.32-.14-.14-.56.25-.49-.29.1-.78-.18-1.6.17-2.35.11-.24.23-.31-.04-.59-.32-.34-.11-.91-.1-1.38.31.04.6.05.87.12.16.04.24.05.24-.13,0-.2-.12-.11-.25-.11-.48-.01-.77-.39-.82-.95-.05-.56.18-.82.74-.78-.02.18-.3.4-.16.49.3.17-.25.8.38.67.57-.12-.21-.33.02-.57.22-.24.17-.54-.27-.56-.58-.22-.61-.24-.68-1.01-.07-.76-.13-1.56-.29-2.27-.22-.95-.62-1.9-1.14-2.76-.59-.97-1.31-1.83-2.17-2.57-.21-.18-.46-.35-.55-.65.75.2,1.46.21,2.06-.62-.34.19-.7-.14-.83.08-.26.43-.61.41-.97.32-.3-.07-.19.13-.24.25-.54-.35-.88-.93-1.39-1.28-.44-.31-.7-.57-.49-1.24-.61.51-.84.2-1.04-.2.28,0,.43-.1.36-.4-.01-.05-.09-.12-.12-.12-.3.04-.16.28-.2.44,0,.03,0,.06,0,.1-.84-.89-2.07-1.4-2.62-2.59-.74-.27-1.13-.96-1.71-1.42-.43-.34-.69-.8-.45-1.3.22-.45.59-.71,1.23-.69,1.85.07,3.7,0,5.54,0,.32,0,.72-.19.94.25.04.07.1.13.14.08.47-.56.97-.37,1.47-.06.41-.59,1.01-.27,1.5-.25.55.01,1.11,0,1.65.01.53.01,1.08-.02,1.62-.04.56-.02,1.12,0,1.69,0,.51.01,1.02.06,1.53.05.17,0,.32-.05.43.09.24.33.49.15.75.04.81-.34.87-.3.96.56.02.23.2.2.35.24-.49.76-.46.84.41.95q.04.26.26.24c.19-.02.15,0,.3.42.05.13.32.25.5.27.55.04.45.4.3.67-.13.23-.27.42-.16.76.14-.32.3-.59.56-.75.17-.11.3-.06.33.16v-.02q-.16.53.52.43c-.04.49-.61.23-.79.63.19.12.65.09.6.33-.08.33.39.36.24.6-.15.24-.37.11-.59.03-.46-.17-.49.37-.47.48.05.34.08.35-.32.32-.7-.05-1,.53-.66,1.09.12.19.28.17.4-.11.1-.23.26-.16.38-.13.28.09.36.34.37.61-.51-.32-.78.65-1.32.26-.03-.02-.32.19-.33.29,0,.34-.49.31-.47.57.18.33.61-.02.73.37-.3.07-.62-.06-.99.17.38.17.39.56.61.81l-.02-.02c.13.37.41.4.87.27-.33.46-.28.89-.23,1.33-.35-.26-.49-.72-.93-.94-.26.18-.36.55-.7.67-.12.04-.33.07-.05.25.17.11.06.55.49.44.29-.07.1-.2.05-.29-.09-.18.08-.22.15-.29.1-.09.16.02.23.07q.31.29.73.06c.3-.32.84-.2,1.12-.62-.24,0-.52.08-.64-.02-.23-.19-.18-.45.12-.59-.39-.37-.25-.54.22-.59.02,0-.07-.22-.12-.2-.6.31-.47-.36-.71-.52.05-.35.52-.07.59-.39l-.02.02q.65-.24.75-.79c-.15.3-.32.58-.71.3.2-.23.38-.44.57-.65.09.02.18.04.26.06-.35-.57.38-.67.45-1.06.02-.12.02-.25.03-.38,0,0-.02.02-.02.02.34.02.35.02.33.28-.03.4.35.73.24,1.14-.17.06-.25-.06-.34-.13-.13-.11-.28-.19-.37.02-.05.11-.03.25.07.35.28.3.27.64,0,1.06-.06.1-.07.23-.1.35h-.71q.5.33.68-.03c.56.44-.22.84.05,1.31-.33-.12-.4-.44-.71-.37,0,0-.05.1-.04.11.41.28.56.69.31,1.09-.21.33-.48.8-1.2.29.34.51.77.53.93.87.09.18.2.41-.18.25-.23-.09-.27.07-.32.22-.05.15.12.9.12,1.11,0,.45-.03.93-.25,1.34-.11.2-.5.19-.45.55.01.08-.06.09-.11.09-.18.02-.03-.75-.4-.18-.19.3-.04.6.3.78.04.02,0,.18.01.28l.02-.02c-.17.16-.57-.34-.6.21l.02-.02c-.48.04-.13.36-.18.54-.07.26.14.68-.41.62v.02c-.08-.21-.03-.77-.43-.36-.37.37-.43.31-.54-.11-.03-.13-.06-.31-.15-.03-.12.36-.57.22-.75.48-.07.1-.46-.1-.25.27.09.18.12.52.4.35.47-.27.91,0,1.36-.04h-.02c.14.24-.26.43-.11.67.2.13.3-.11.43-.09.27.03.03-.56.42-.34.26.15.25.41.25.67,0,.71-.37,1.2-1.07,1.58.6.03,1.06.04.71.72-.11.21.1.53-.24.65-.02-.12,0-.25-.16-.29-.47-.1-.47-.1-.19-.44.06-.07.15-.11.24-.17-.35-.07-.68-.19-1,.03-.04.03-.21-.27-.19-.02.05.61-.45.65-.82.82.2.25.51.33.41.66-.31.04-.32.35-.48.53-.33.37-.66.31-.91-.15-.06-.12-.1-.23-.33-.06.23.36.24.81.15,1.22-.09.39.11.32.33.34.28.03.36-.39.65-.29.08.03.12.05.13-.05,0-.05-.01-.14-.04-.16-.68-.36-.04-.41.13-.58.15-.16.48.05.53-.29.27-.05.12.39.39.33-.19-.37.44-.46.31-.86-.3.14-.67.13-.67.56-.76.05.07-.45-.2-.57.16-.04.31-.17.32-.31.01-.41.42-.55.55-.4.31.37.62-.01.9.12-.34.4-.26,1.04-.81,1.34-.18.1-.02.17.11.2.35.08.31.17,0,.22-.17.03-.23.07-.09.22.32.36.35.42.01.62-.4.24-.5.45-.15.8.41.42-.37.76-.09,1.17-.68.14-.25.71-.38,1.06-.27.73.05,1.67-.84,2.18-.08.05,0,.15.16.18.27.04.19.31.07.43-.14.13-.33.12-.49-.06-.24-.27-.88-.2-.83.02.12.52-.28.78-.4,1.16-.03.08.14.07.23.06.08.16.16.32.23.47.16.3.25.66.42.93.34.54-.25.94-.08,1.42.03.08-.17.08-.31.07-.14-.01.1-.52-.22-.15,0,0-.6.32.04.41.17.02.37.21.29.42-.08.23-.3.13-.48.11-.66-.1-.78-.5-.57-1.08-.67.15.02,1.21-.87,1.15.02-.12.02-.26.07-.37.07-.14.19-.27-.02-.39-.05-.03-.13-.02-.19-.02-.28.04-.02.23-.1.36-.14.24.12.29.25.39ZM53.68,34.12c-.06-.19.11-.44-.28-.61.15.24-.26.59.3.59.05.21.29.24.36.15.15-.18-.02-.38-.08-.63-.12.21-.04.47-.3.5ZM53.91,28.36c-.28-.08-.46.13-.68.26.3.07.7.41.66-.28.07-.05.15-.11.22-.16.1-.08.16-.19.11-.32-.01-.04-.11-.06-.16-.06-.17.02-.13.17-.15.28-.01.09,0,.18,0,.28ZM52.35,20.99s.11-.07.13-.12c.1-.28-.02-.48-.27-.6-.04-.02-.14.02-.16.05-.16.28.17.35.25.52.03.06.05.11.07.17-.56-.15-.27.57-.64.62.03.03.06.09.09.09.48.06.19-.45.43-.58.05-.03.06-.1.09-.16ZM55.79,48.35c.25-.09.48-.21.31-.52-.14-.25-.28-.09-.43.03-.37.3.21.31.15.51-.26,0-.42.11-.36.39.03.15.14.18.28.12.32-.15.08-.35.05-.53ZM53.86,47.62q.49.12.72-.33c-.27.13-.5.24-.74.35-.5-.74-.54-.76-1.16-.47.51-.13.75.38,1.18.44ZM55.6,17.9c-.41.05-.85.07-.63.7.1-.33.73-.2.61-.72.17,0,.31.28.5.03.25-.34,0-.56-.19-.85-.09.31.16.71-.28.84ZM56.77,37.17c.46-.44-.05-.63-.23-.93-.08.24-.27.36-.35.56-.14.04-.31-.03-.43.11.41.23.26.39-.06.57-.1.06-.1.26,0,.32.14.09.34-.04.39-.12.17-.28.07-.6.07-.91.31-.01.53.1.63.42-.28,0-.43.1-.36.4.01.05.09.12.12.12.3-.04.16-.28.2-.44,0-.03,0-.06,0-.1ZM54.47,37.37c.07.46.09.47.81.09-.28-.12-.56-.03-.84-.07-.06-.24.16-.4.18-.62.01-.12.03-.28-.13-.3-.2-.03-.32.15-.48.23.48,0-.06.69.45.66ZM54.83,41.24c.31.27.64.48,1.09.28-.3-.46-.74-.22-1.12-.26,0-.18.06-.24.36-.61.06-.08.04-.24.03-.37-.01-.17-.16-.17-.28-.17-.15,0-.24.09-.23.24.03.3-.15.64.15.89ZM50.97,24.25c.31.05.88-.09.9.1.08.89.48.11.68.22-.47-.34-.94-.77-1.55-.3-.1.03-.31,0-.27.14.05.19.31.32.44.19.15-.15-.26-.16-.2-.36ZM54.61,28.75c.07-.32.48-.56.23-.96-.05.32-.55.53-.2.94-.06.14-.14.28-.16.42-.03.21-.5.27-.2.58.04.04.12.1.16.08.29-.12.37-.38.39-.65.01-.16.08-.39-.21-.42ZM52.34,22.52c.16-.01.38.03.45-.05.39-.45-.3-.02-.25-.29.07-.42.44-.11.6-.32-.22-.16-.6.06-.72-.34-.03.39-.24.7-.07,1.04-.24.03-.5-.06-.82.15.22.07.05.49.39.36.16-.06.5-.19.4-.53ZM57.74,26.01c-.02-.15-.03-.3-.05-.51-.1.27-.39.37-.41.71.22-.1.35-.17.49-.23.06.26.33.25.5.36.13.08.34.07.39-.12.05-.17.09-.4-.08-.53-.12-.1-.34-.09-.41.07-.09.23-.23.27-.44.25ZM58.51,35.07c.04.13-.02.35.2.34.22-.01.2-.23.14-.35-.11-.2-.23.09-.36.04.16-.61-.59-.6-.67-1.04-.05.54-.02,1.03.7,1.02ZM57.54,42.41c-.39-.66-.46-.68-1.31-.25.54-.29.89.18,1.34.23-.09.37-.55.1-.68.42-.04.09-.08.16-.02.25.07.09.14.06.23,0,.33-.19.32-.18.37.22.01.09.05.25.26.27-.08-.39.18-.8-.19-1.14ZM55.23,22.54c.04.13-.02.35.2.34.22-.01.2-.23.14-.35-.11-.2-.23.09-.36.04,0-.34,0-.69-.02-1.03,0-.1-.12-.12-.22-.12-.1,0-.19.04-.1.14.46.53-.27.57-.4.83.27.22.53.11.77.16ZM57.4,21.43c-.25-.02-.51-.08-.79.09.22.45.18.99.46,1.44.2-.19.23-.35.04-.57-.36-.43-.14-.74.27-.98.04-.05.1-.09.12-.14.05-.15.08-.32-.1-.41-.03-.02-.13.02-.16.06-.09.13.02.23.09.33.03.05.05.12.07.17ZM59.29,23.14c-.52.14-.37.98-1.02.99-.18-.35-.36-.7-.55-1.04-.03-.05-.1-.31-.12-.09-.04.33-.52.31-.42.67.02.09.04.17.06.26.04-.08.07-.17.12-.24.04-.06.18-.19.16-.02-.07.76.51.32.77.44.39.34.58-.12.86-.2.64-.19.55-.46.11-.79q.36-.23.28-.74c-.28.18-.25.48-.25.76ZM60.06,21.18c0,.09,0,.19,0,.28,0,.29.04.71.35.62.4-.12.18-.4-.1-.55,0,0,.01-.05.02-.08.02-.23-.04-.27-.3-.24,0-.18.3-.34.13-.5-.22-.22-.25-.53-.45-.74-.12.14-.3-.13-.38.04-.04.09-.08.21.12.33.44.27.41.32,0,.49-.47-.15-.22-1.03-.95-.94.59.88.58,1.06-.07,1.2.28.49.47.51.78.07.08-.12.07-.32.27-.35.15.2.14.64.59.38ZM55.07,44.88c-.02.18-.3.37-.14.49.24.18.56.12.85-.04-.14-.07-.34-.01-.41-.08-.11-.1-.02-.39-.32-.35-.1-.44.37-.55.52-.94-.43.1-.9-.45-1.35.27.33-.03.58-.24.81.05-.42.23-.49.46.05.6ZM55.4,15.63c.09-.54-.27-.83-.64-1.25-.17.72.39.89.66,1.23.05.2-.05.42.09.61.13-.14.2-.33.4-.39.03.05.09.12.08.15-.09.25-.16.49.22.54-.25-.31.69-.25.21-.66-.02-.01.1-.15.11-.24,0-.07,0-.12-.16-.12-.33.02-.7-.4-.98.12ZM58.4,17.59c-.09.36-.02.55.06.77.1.3-.14.42-.38.62-.43.36-.27,0-.39-.16-.2-.26-.61-.06-.87-.28-.08-.07-.17.06-.19.15-.02.12-.03.34.11.31.54-.12.83.34,1.26.48.5.17.7.19.63-.46-.01-.14-.17-1.1.71-.79.1.04.14-.18.11-.31-.06-.24-.19-.17-.36-.09-.24.11-.54.41-.69-.25ZM55.38,39.77c-.03-.39-.35-.66-.39-1.05,0-.07-.36-.56-.52.02,0,0-.61,0-.61,0-.24-.18-.28.12-.41.17-.16.07-.3.15-.01.24.17.06.01.47.23.32.37-.25.9-.19,1.1-.69.26.35-.02.95.63.99ZM60.86,29.05c-.23-.52.14-.99.09-1.5-.03-.35-.34-.23-.5-.34-.15-.1-.38-.02-.47.18-.05.12.08.12.16.14.16.03.17.08.21.27.1.42.06.93.51,1.25ZM56.56,43.13c-.06-.45-.45-.54-.51-.79-.12-.55-.52-.09-.75-.23-.04-.02-.46.21-.33.45.19.33.23-.13.38-.14.16-.02.35-.06.43.1.08.18-.09.26-.24.33-.1.04-.2.12-.19.27.17.07.38.04.53.19.04.04.19.1.19-.13,0-.25.11-.25.48-.03ZM59,29.66c.04-.63-.08-1.29.82-1.37.26-.02.03-.25.11-.38.13-.21-.14-.12-.2-.19-.04-.05-.13-.15-.21,0-.07.14.24.29,0,.39-.2.08-.21-.17-.32-.26-.07-.05-.17.11-.24.22-.31.54.04,1.06.03,1.58ZM57.22,29.77c-.01-.29-.09-.52-.08-.77,0-.2-.09-.39-.3-.38-.13,0-.32.12-.38.23-.08.19-.15.44.09.59.21.13.45.22.67.33ZM53.08,27.94c0-.14-.11-.22-.21-.29-.03.29-.58.22-.44.55.12.3.34.56.23.92-.06.18.09.12.15.13.13.02.31-.04.26-.16-.17-.4-.22-.77.02-1.15ZM59.98,25.09c.12-.76-.24-.81-.67-.8-.44,0-.67.17-.55.64.4.04.78-.77,1.22.16ZM55.25,35.25c.28.06-.03-.41.38-.27.18.06.49-.21.72-.35.04-.03.04-.21,0-.27-.15-.22-.13.06-.21.08-.25.09-.5.1-.73-.02-.07-.04-.1-.04-.14.11,0,.04-.02.13-.02.23,0,.16,0,.32,0,.49ZM56.87,44.98c.12-.18.25-.31.5-.31.14,0,.34-.13.25-.31-.12-.22-.48-.17-.62-.41,0,0-.3.91-.28.92.05.04.1.07.16.1ZM53.04,53.8c-.27.27-.57.43-.66.75-.06.2.04.36.21.48.13.1.24.04.33-.04.09-.08.23-.26.14-.3-.57-.27.08-.52-.02-.89ZM55.74,18.51c-.44.44.28.71-.13,1.02-.03.02.05.12.88-.24-.28-.24-.7-.29-.75-.78ZM51.57,15.04q-.61.65-.88.12c-.05-.11-.14-.12-.24-.1-.1.02-.11.07-.09.2.05.36.21.56.58.57.44.02.56-.23.62-.79ZM54.19,23.4c-.11.06-.28.21-.2.23.42.13.58.55.92.74.06.04.27-.06.31-.14.1-.22-.12-.11-.2-.14-.17-.05-.34-.17-.31-.3.12-.57-.49-.09-.53-.4ZM53.45,24.08c-.23.41.28.64.16.96-.08.21-.12.4.18.32.16-.04.36-.22.21-.44-.18-.26-.2-.64-.55-.84ZM60.97,19.15q-1.05.23-.79.89c.07-.28.07-.26.32-.32.28-.07.46-.24.47-.57ZM46.38,19.53c.04.16-.08.4.19.47.08.02.22,0,.26-.04.16-.21.14-.39-.13-.51-.11-.05-.08-.14.03-.18.2-.08.09-.18,0-.25-.09-.06-.17,0-.24.07-.14.13-.09.29-.11.45ZM54.92,31.67c-.02.07-.13.29.19.26.16-.02.33-.2.25-.44-.04-.12-.13-.23-.14-.34-.02-.26-.2-.37-.38-.27-.32.17-.07.25.1.36.12.07.13.21-.02.44ZM58.78,27.5c-.08-.36-.4-.29-.53-.47-.13-.19-.3-.21-.43.01-.13.23.04.37.2.45.23.11.49.06.75.02ZM54.09,56.59c.34-.33.74-.52.49-.98-.05-.09-.15-.07-.24-.03-.56.18-.16.59-.25,1.01ZM59.07,15.69c.01-.18-.09-.3-.23-.39-.12-.08-.31.05-.27.08.39.29-.05.51-.03.76,0,.16.1.22.25.21.06,0,.12-.03.17-.05-.43-.29.21-.38.11-.61ZM54.39,45.91c-.17.14-.28.24-.4.33-.3.23-.15.53-.13.81,0,.05.14.09.22.13.04-.2.09-.4.05-.61-.04-.23.33-.28.26-.67ZM55.03,17.15c-.07-.18-.31.02-.4-.18-.25-.57-.4.42-.66.06-.02.09-.08.2-.05.26.13.26.31,0,.47.02.19.02.44.11.63-.16ZM52.24,17.46c-.03.39.16.68.41.94,0,0,.18-.11.19-.18.04-.42-.15-.69-.6-.76ZM57.31,27.79c0-.24-.22-.27-.34-.28-.21,0-.23.45-.55.27-.04.25.07.33.31.34.28,0,.49-.06.58-.33ZM51.64,19.03c.47.01.94.68,1.53-.08-.6.31-1.04-.24-1.53.08ZM53.49,49.15c.35-.3.31-.64.3-1,0-.16-.09-.13-.16-.14-.09-.01-.25.07-.22.1.29.33-.31.65.08,1.03ZM56.45,24.38c.45.11.4.52.54.82.02.05-.14.42.15.14.03-.03.45,0,.15-.34-.23-.26-.3-.65-.84-.63ZM50.27,18.96c.31.17.64.09,1,.06-.09-.26-.09-.51-.32-.61-.14-.06-.29.11-.26.17.25.65-.43,0-.42.38ZM53.78,56.9c-.09.38-.14.65.03.91.07.1.18.21.32.15.14-.06.16-.3.1-.32-.28-.14-.19-.46-.45-.73ZM61.5,17.4c-.32-.04-.65-.18-.79.1-.08.16.11.44.33.58.26-.17.08-.58.47-.68ZM54.89,53.52q-.76-.11-.86.53c.27-.13.57-.22.86-.53ZM55.66,52.69c-.27-.04-.55-.09-.82-.13-.17-.02-.18.14-.22.24-.07.19.07.18.2.19.33.03.62-.02.85-.3ZM60.16,29.69c.09-.12.15.56.24.02.03-.22-.15-.26-.42-.3-.36-.06-.32.18-.41.31-.08.12.08.22.18.27.08.04.24.09.18-.14-.05-.19.1-.17.23-.16ZM43,17.25c.4.16.59-.2.9-.13.23.05.22-.07.16-.27-.08-.25-.19-.13-.33-.09-.3.07-.42.37-.73.5ZM56.78,17.54c-.4-.08-.21.31-.31.46-.13.19.04.26.22.27.36.01.06-.54.43-.51,0-.24-.17-.2-.34-.22ZM51.5,16.47c-.21.06-.42.1-.62.18-.05.02-.05.17-.05.26,0,.1.04.13.1.06.59-.61.19.47.56.28.11-.24.08-.51.01-.78ZM59.15,30.97c-.02.2.11.24.23.23.17-.01.4.27.51-.1.02-.08.11-.13.17-.19-.18-.02-.35-.05-.53-.05-.14,0-.31-.05-.39.11ZM52.66,43.29c.29-.15.34-.62.83-.49-.61-.37-.8-.05-.83.49ZM60.76,20.39c.49.02.68-.17.57-.66-.33.11-.57.27-.57.66ZM56.81,34.68c.4.05,0-.86.64-.47,0-.06.04-.12.02-.17-.02-.04-.09-.08-.14-.09-.69-.1-.54.35-.53.73ZM54.65,20.5c-.5-.11-.88-.15-.65.59,0-.47.52-.15.65-.59ZM57.45,41.75c.17-.15.32-.31.49-.45.18-.16.07-.29-.06-.37-.18-.1-.33-.03-.3.18.03.23-.28.37-.12.64ZM54.88,20.67c.46.58.63.05.89-.09-.32-.17-.54.11-.89.09ZM53.03,56.79c.1-.32.29-.5.54-.59-.07-.05-.14-.11-.22-.15-.32-.16-.28.34-.54.3.05.11.11.22.22.43ZM55.08,32.94c.14-.19.3-.36.4-.57.03-.05-.15-.2-.29-.16-.4.1-.12.45-.11.73ZM53.64,21.16c-.28.07-.54-.3-.82-.06q.38.36.82.06ZM57.93,16.77c.13.17.29.17.44.17.15,0,.27.34.41.06.03-.06-.02-.45-.38-.3-.09.04-.24-.2-.46.07ZM48.49,21.69c-.24,0-.35.1-.51.06-.45-.12-.27.24-.16.31.3.19.51.03.67-.37ZM53.34,49.47c-.03-.21-.43,0-.33-.32.05-.15.14-.33-.11-.33-.22,0-.14.23-.15.37-.02.25.11.33.34.32.08,0,.16-.03.25-.04ZM55.39,36.25c0-.23-.21-.19-.33-.26-.2-.12-.19.06-.18.16.01.12-.11.35.13.33.12,0,.31-.05.38-.23ZM60.16,28.81c-.04-.12-.12-.23-.24-.25-.22-.03-.37.12-.4.3-.04.23.15.05.21.08.2.09.34.09.42-.13ZM54.12,15.76c-.18-.1-.21.03-.21.15,0,.19.09.19.23.11.09-.05.17-.04.27,0,.07.04.06.29.21.1.04-.04,0-.22-.05-.25-.14-.07-.3-.09-.45-.13ZM57.67,17.21c-.29-.14.19-.52-.2-.61-.07-.02-.22.03-.24.08-.1.31.22.39.43.54ZM58.56,29.56c-.28-.34-.58-.27-.88-.12.29.11.61-.04.88.12ZM58.5,22.59c-.01.28-.16.58.11.8.31-.3.16-.56-.11-.8ZM50.88,21.68c-.27-.19-.51-.44-.78-.03-.02.03.02.1.05.24.2-.25.48-.06.73-.21ZM44.04,16.01q-.5-.2-.75-.06c.15-.23.45.36.75.06ZM56.05,31.91c.11.09.19.19.3.23.14.05.25-.07.3-.18.08-.15-.07-.27-.16-.26-.14.02-.28.12-.44.21ZM58.15,40.4c-.26.05-.52.09-.78.14.28.1.54.15.78-.14ZM57.6,30.54c-.02.32-.1.58.09.86-.07-.27.17-.5.08-.77,0-.02-.05-.03-.17-.09ZM52.79,22.88c-.18.3,0,.56.04.84.09-.29.1-.57-.04-.84ZM55.59,45.94c-.02-.05,0-.21-.11-.14-.14.08-.42.04-.38.31.01.09.12.12.22.12.18,0,.3-.06.28-.29ZM57.66,16.06c-.09-.11-.16-.23-.31-.23-.15,0-.26.11-.29.22-.03.12.1.26.22.24.13-.02.25-.14.37-.22ZM54.75,48.59c-.21,0-.29.12-.26.3.01.05-.03.23.14.13.12-.08.33-.05.36-.24.03-.18-.14-.16-.24-.18ZM54.87,48.35c.39-.04.23-.16.2-.25-.03-.09.2-.22-.02-.26-.17-.03-.29.13-.3.27,0,.1.11.22.12.24ZM55.64,35.84c.04.07.08.16.13.22.18.18.44.14.38-.05-.07-.2-.28-.16-.51-.17ZM59.56,17.15c.01-.22.31-.4.21-.69-.33.16-.29.41-.21.69ZM46.19,18.04c.18-.07.25-.11.33-.14.17-.06.31-.2.11-.3-.24-.12-.36.1-.44.43ZM49.96,23.4c-.1.21-.14.38-.23.47-.3.28.07.18.11.17.3-.11.16-.34.13-.64ZM53.37,44.39c.31.07.38.1.46.1.21,0,.24-.15.22-.32-.01-.08-.03-.18-.16-.1-.13.08-.27.16-.52.32ZM54.6,32.02c-.16-.2-.32-.42-.64-.34.12.29.39.3.64.34ZM45.76,18.31c-.1-.09-.13-.03-.14.07-.02.19.06.29.25.28.12,0,.27,0,.26-.17,0-.27-.39.17-.37-.18ZM56.28,33.07c-.15-.12-.29-.22-.43-.33-.04.08-.13.19-.11.24.12.23.32.14.54.09ZM54.62,41.99c-.01-.17-.15-.25-.28-.32-.09-.05-.19.02-.21.11-.04.23.19.18.3.27.09.07.15.05.19-.06ZM48.18,19.77c.3-.17.35-.39.28-.66-.05.23-.38.32-.28.66ZM52.68,58.6c0-.09.03-.18.02-.27,0-.15-.04-.38-.23-.24-.28.21.12.33.21.51ZM56.93,40.85c-.07-.2-.18,0-.27-.02-.09-.03-.24-.17-.22.07.02.17.19.12.3.12.09,0,.18-.04.18-.17ZM56.89,30.89c-.07-.06-.13-.12-.2-.18-.07.12-.14.24-.21.37,0,.01.07.09.11.09.16,0,.25-.12.29-.28ZM53.07,30.79c-.1-.15-.24.08-.38-.03-.15-.11-.12.09-.1.13.06.13.2.11.32.1.1-.01.16-.07.15-.21ZM54.71,30.36c.16.03.25.08.32.05.09-.03.44.11.2-.2-.18-.24-.29.11-.53.14ZM53.86,30.14s.02-.19-.11-.16c-.12.03-.22.13-.21.28,0,.05.06.13.11.13.17.03.2-.1.21-.25ZM50.29,16.97c-.06.08-.15.15-.17.23-.04.14.1.21.2.26.03.01.17-.11.19-.18.04-.14-.12-.19-.23-.31ZM54.48,33.35c0,.07-.2,0-.09.17.07.1.1.21.16.32.07-.06.18-.1.2-.17.04-.18-.12-.23-.27-.31ZM61.04,29.33c-.15-.01-.25.08-.29.2-.05.15.1.12.17.11.08-.01.2-.04.24-.11.05-.09-.02-.17-.12-.21ZM57.23,33.51c.08-.07.06-.11-.04-.13-.13-.02-.26-.06-.35.07-.06.08-.01.2.08.23.14.05.23-.06.31-.17ZM58.38,28.55c.11-.03.14-.15.11-.2-.06-.11.34-.39-.09-.32-.1.02-.1.34-.02.52ZM56.32,20.25c-.14.14-.3.21-.27.39.01.08.08.11.12.05.08-.12.32-.02.31-.22,0-.07-.1-.14-.15-.22ZM57.5,35.12c.02-.19-.08-.29-.2-.32-.13-.03-.12.11-.1.18.01.08.05.19.11.23.09.05.17-.02.19-.09ZM54.64,35.08c-.07,0,0-.2-.17-.09-.1.07-.21.1-.32.16.06.07.1.18.17.2.18.04.23-.12.31-.27ZM61.69,19.89c.08-.4.12-.58.18-.85-.34.21-.25.43-.18.85ZM57.76,35.95c0,.14.05.25.22.23.04,0,.09-.09.1-.14.01-.15-.09-.25-.21-.28-.12-.02-.09.11-.11.19ZM52.9,16.23c-.07,0,.04-.22-.14-.12-.08.04-.15.13-.18.21-.04.1.03.19.14.2.19.01.17-.14.18-.29ZM51.9,27.33c.31-.03.2-.32.36-.42-.05-.03-.12-.09-.15-.08-.2.11-.18.3-.21.5ZM55.77,38.39c.01-.14-.05-.2-.15-.21-.12-.01-.26-.04-.32.1-.02.04-.06.25.1.14.14-.1.28.13.38-.02ZM56.15,14.87c-.02-.06-.02-.14-.06-.17-.13-.08-.23,0-.32.1-.07.09-.07.16.05.18.12.02.25.02.32-.11ZM55.13,19.86s-.19-.02-.16.11c.03.12.13.22.28.21.05,0,.13-.06.13-.11.03-.17-.1-.2-.25-.21ZM48.85,18.2s-.06-.12-.09-.19c-.12.06-.22.14-.23.28,0,.05.04.13.09.15.16.05.22-.05.24-.23ZM55.88,44.83c.28-.15.39-.31.22-.59-.04.21-.27.28-.22.59ZM49.23,18.36c.03.11.15.14.2.11.11-.06.39.34.32-.09-.02-.1-.34-.1-.52-.02ZM50.32,22.84c-.14.27-.08.45.2.56.13-.27-.15-.36-.2-.56ZM57.69,22.2c.11.21.15.35.18.35.11-.01.03.43.21.1.09-.17-.05-.33-.4-.45ZM53.28,42.13c-.14-.14-.21-.3-.39-.27-.08.01-.11.08-.05.12.12.08.02.32.22.31.07,0,.14-.1.22-.15ZM51.19,20.7c.05.14.08.23.1.23.15-.02.35.31.4.03.04-.21-.28-.17-.5-.27Z"/>
      <path class="cls-1" d="M63.09,61.31c-.37.09-.81.33-.29.62.54.31.2.58.14.84-.11.46-.12.42.28.72.24.18.43.48.26.81-.2.38-.39.11-.59-.03-.13-.09-.25-.06-.29.09-.03.11-.06.27.09.34.11.05.27.03.35.11.12.12.29.32.17.46-.15.18-.26-.15-.33-.14-.17.01-.26.31-.51.2-.07-.2.11-.56-.32-.54-.06,0-.16,0-.18.04-.18.35.48.05.31.41-.01.03,0,.06-.01.09-.15.03-.33,0-.36.23-.03.3.06.59-.51.5-.31-.05-.42.75-1.02.74-.25-.13.48-.71-.24-.7v.02c-.07-.26.31-.64-.2-.79l.02.02c.02-.05.03-.13.07-.16.16-.13.53-.1.33-.49-.26-.49-.29.34-.52.08-.05-.05-.18-.02-.28-.03l.02.02c-.25-.77-.3-.84.3-1.32.26-.21.14-.56.43-.66.28.29.41-.02.59-.15l.05-.02c0,.15-.03.3-.02.45,0,.11-.02.27.15.27.22,0,.18-.19.2-.33,0-.06.01-.12.02-.18.43.04.63-.21.72-.57.04-.14-.09-.28-.2-.28-.21,0-.06.26-.19.34-.25-.74-.21-.69.21-1.03.25-.2.77.52.66-.18-.06-.4.18-.66.16-.99l-.02.02c.05-.03.12-.05.16-.09.22-.19.49-.19.7-.06.09.06-.29.26-.09.49.06.07.02.24.02.37-.04.18-.11.33-.26.45ZM61.4,63.61c-.1.08-.21.14-.29.23-.17.21.18.49-.09.69.06,0,.13.02.19,0,.3-.11.14-.37.17-.57.02-.12,0-.25,0-.38.09,0,.19.02.28.02.1,0,.23.2.28-.03.03-.13-.12-.27-.22-.27-.15,0-.26.14-.32.3ZM60.42,63.54c-.28-.01-.1.26-.19.38-.09.12.05.28.08.22.11-.27.47.15.5-.22.02-.28-.2-.28-.39-.37Z"/>
      <path class="cls-1" d="M66.61,62.63c-.13-.02-.26.29-.37.03-.1-.22.05-.53-.3-.7-.57.3-1.04.9-1.8.91-.38,0-.09.57-.45.64-.28-.25-.29-.26-.12-.53.11-.17-.05-.22-.11-.29-.26-.27.41-.31.13-.57.27-.16.28.08.38.22.25.36.41.17.48-.13.05-.21.03-.44.05-.66.33.02.42.32.65.42.23-.21-.22-.38,0-.65.23.04.36.44.67.31.1-.01.14-.08.09-.11-.44-.21.14-.46-.01-.6-.1-.1-.36,0-.49-.26.27-.2.65.25.82-.16l-.02.02c.37-.24.4-.59,0-.73-.32-.11-.55-.25-.79-.69.77.45,1.47.1,2.16.23.35.07.63.15.49.58-.04.12-.2.3-.38.17-.16-.11.14-.26,0-.4-.84.62-1.37,2.06-1.09,2.96l.02-.02Z"/>
      <path class="cls-1" d="M62.92,16.73c.23-.17.44-.45.69-.5.49-.1.61-.43.69-.83l-.02.02c.2-.02.47-.02.37.24-.12.31-.33.69-.61.8-.24.1-.33.14-.31.39.02.29.23.25.41.27.15.01.3.03.47.04-.09.22-.05.49-.34.54h.02c-.48-.52-.69.24-1.07.27-.25.02-.46.31-.67-.06v.02c.11-.06.22-.2.12-.3-.58-.55-.59-.54-.53-1.15,0-.1.01-.3-.18-.16-.83.62-.47-.48-.83-.59-.12-.04.08-.13.19-.16.39-.09.17.41.5.48.06-.42-.04-.63-.48-.68-.17-.02-.38-.22-.29-.42.11-.27.31-.04.47,0,1.03.21,1.05.21,1.24,1.26.04.19.15.34.18.53-.12.03-.33.01-.32.14.04.42.35.19.57.19-.07-.14-.28-.16-.28-.35Z"/>
      <path class="cls-1" d="M69.12,44.13c-.14.06-.3.2-.42.18-.24-.05.05-.33-.13-.45.27-.26.28-.55,0-.89.78.3,1.34-.27,2.02-.3.15.4.24.89.69,1.16.13-.14.24-.33.41-.42.13-.07.34-.29.47-.1.11.17.12.46-.28.35-.03,0-.09.25-.02.35.14.18.27.05.39-.06.15-.13.11-.56.53-.31.33.2-.08.29-.03.48.14.46-.27.18-.4.21-.2.05-.36.09-.45.28.17.17.45,0,.62.22-.17.09-.33.2-.5.27-.43.19-.58-.19-.69-.44-.32-.73-.3-.75-1.05-.81-.09,0-.14,0-.21-.07-.48-.43-.81-.31-.97.37,0,0,.02-.02.02-.02Z"/>
      <path class="cls-1" d="M69.3,73.24c.05.21.39.14.38.37-.01.34.24.5.45.46.27-.06-.14-.34.07-.56.22-.24-.18-.51-.14-.8.03-.21.16-.26.33-.23.34.06.03.18.03.28,0,.35.07.69.03,1.04-.03.32.17.59.16.95-.32.11-.6-.28-.9-.07-.1.07-.15.03-.22-.04-.59-.59-.82-.59-1.14.04-.07.14-.07.35-.28.28-.2-.07-.08-.24-.05-.39.12-.66.02-.72-.87-.55l.02.02c-.06-.18.43-.46-.07-.56-.29-.06-.42-.21-.31-.43.16-.35.26-.04.43.05.25.12.31-.16.28-.4h.28c-.02.13.03.35.09.31.59-.42.5.27.73.43.1.07.17.18.24.27-.08.34-.39-.11-.51.23.37.12.72.1,1.04.03.24-.3-.7-.36-.08-.69l-.02-.02Z"/>
      <path class="cls-1" d="M67.18,74c0,.43-.46.66-.41,1.17.04.36-.32.1-.49.04-.23-.08-.21.37-.39.2-.14-.14-.02-.33.1-.51.2-.31.2-.36-.18-.56-.23-.13-.16-.23-.05-.33.2-.18.3-.42.39-.64.13-.33-.12-.49-.51-.45-.34.04-.61-.19-.75-.49-.1-.21.09-.32.29-.4.2-.09.28-.05.3.16.02.28.23.3.41.26.47-.1.46.27.52.53.13.54.11.55.8,1.05l-.02-.02Z"/>
      <path class="cls-1" d="M67.81,72.68h-.28c-.64-.22-1.06-.75-1.64-1.07.22-.16.45-.43.67-.06.31.52.75.37,1.19.29.08.07.16.07.24,0,.45-.47-.27-.75-.18-1.19.17-.13.23.08.33.15.06.04.07.31.18.05.06-.14.04-.32.38-.27-.24.24.09.48-.14.76-.26.31.15.27.27.38.31.31-.56.02-.18.38.15.15.47.09.49.39,0,.15-.01.31-.05.49-.09-.36-.4-.36-.66-.44,0,0-.59.14-.59.14Z"/>
      <path class="cls-1" d="M63.73,58.41c0-.29-.15-.6.16-.83.09.08.17.17.26.25.21.37.69-.05.9.31.04.3-.25.24-.36.38-.16.2-.41.35.13.3.3-.03.06.5.41.7.22.13-.26.05-.31.21-.06.17-.17.29-.35.17-.25-.18.08-.46-.1-.69-.26.35-.56.67.08,1.02-.86.1-.95.07-.73-.46.18-.43-.13-.54-.29-.76.07-.39.58-.11.66-.48-.09-.21-.32-.05-.47-.13l.02.02Z"/>
      <path class="cls-1" d="M65.46,77.86c-.19.11-.41.24-.54-.05-.12-.25.18-.78.53-.94.15-.07.17-.16.18-.28,0-.13,0-.25,0-.38,0-.12.02-.24.04-.38.28.11.28.4.45.56.24-.39.37-.11.51.08,0,.16,0,.32,0,.48.06.11.16.22.16.33,0,.2-.12.15-.24.08-.08-.05-.23-.06-.24.03-.12.71-.45.23-.75.17-.43-.09,0,.24-.11.32l.02-.02Z"/>
      <path class="cls-1" d="M70.49,31.36c.18.13.29.29.03.43-.33.17.04.29,0,.43.8-.02.22.42.26.65-.3-.32-.86-.39-.88-.95-.01-.39-.37-.03-.49-.2.01.41-.77.09-.59.61.12.32.16.56-.15.79-.03-.9-.44-1.83.25-2.67h-.02c.13.31.12.39-.15.88.45.12.88.06,1.31.04.14.15.29.15.43,0Z"/>
      <path class="cls-1" d="M72.01,34.51q-.23-.35-.69-.47c.11-.2.82-.27.21-.62-.33-.19-.38-.45-.27-.69.11-.23.37-.27.69-.24.39.04.8-.28,1.23-.11h-.02c.04.13.17.16.43.27-.65.09-1.13.37-1.69.16-.12.71.43.87.83,1.13-.12.4-.49.39-.74.54l.02.02Z"/>
      <path class="cls-1" d="M73.53,29.27c.12.35-.08.51-.36.63-.07.03-.12.18-.19.01-.04-.09-.02-.2-.06-.28-.08-.15-.19-.11-.31-.03-.09.06-.61-.18-.63-.28-.08-.38-.07-.4-.63-.51-.16-.03-.12-.12-.13-.19-.03-.42.37-.37.6-.48.18-.09.27,0,.28.28.01.26.33.51.53.78.51-.2.2-.68.38-.98.26-.05.33.26.55.31l-.02-.02c-.03.26-.39.52,0,.77v-.02Z"/>
      <path class="cls-1" d="M70.27,59.5c.26-.27.09-.6.27-.83.18.04.1.22.18.31.41-.68.57.11.85.15.16.02.26.05.35-.23.07-.22.45-.43.68-.71-.19.57,0,1.1-.01,1.63,0,.13-.02.26-.18.3-.13.03-.33.03-.35-.06-.21-1.04-.95-.46-1.49-.5-.06,0-.12-.02-.31-.06Z"/>
      <path class="cls-1" d="M65.28,1.38c0-.09,0-.19,0-.28.19.08.46-.06.57.23.11.28.22.5.64.45.23-.03.05.4.2.56.22-.14-.06-.54.3-.61l-.02-.02c-.21.36.53.55.17.92-.24.24-.72.09-.88.28-.3.36-.43,0-.64-.03l.02.02c0-.41-.02-.81-.03-1.22,0-.25-.12-.33-.35-.29Z"/>
      <path class="cls-1" d="M58.91,66.29c-.23.1-.27.35-.35.53-.12.29-.34.31-.53.24-.56-.18.22-.22.05-.35-.16-.12-.42-.12-.34-.45.15-.61,1.07-1.41,1.75-1.5l-.02-.02c-.39.27-.35.84-.62,1.07-.38.31.16.34.04.49l.02-.02Z"/>
      <path class="cls-1" d="M66.62,56.65c-.19.27-.15-.53-.41-.09-.09.17-.05.28,0,.43.04.14-.03.23-.19.26-.11.02-.37-.04-.1.22.12.11-.1.16-.21.16-.25-.01-.42-.16-.43-.41,0-.21.23-.16.37-.24-.11-.21-.3-.09-.45-.11-.31-.03-.3-.14-.13-.34.04-.05.11-.12.09-.16-.13-.46-.14-.43.42-.35.4.06.82.05,1.23.07l-.02-.02-.19.6.02-.02Z"/>
      <path class="cls-1" d="M71.64,50.86c-.57-.36.09-.71.01-1.06-.02-.1.3-.08.11-.23-.13-.1-.44-.06-.28-.34.14-.24.33.08.49.05.18-.03.34-.15.52-.21.11-.03.03-.41.27-.16.08.08.15.23.14.33-.02.3-.37.09-.47.25-.12.21.41.26.21.35-.39.18-.48.25-.04.44.2.09.2.24.09.38-.13.17-.32.31-.35.54-.39-.18.15-.57-.21-.68-.25-.08-.53-.04-.51.35h.02Z"/>
      <path class="cls-1" d="M68.93,22.53c-.43-.14-.56-.43-.27-.79.24-.3.38-.64.51-1.01.26.07.13.29.16.43.05.23.22.23.36.17.22-.09,0-.2-.04-.26-.11-.13-.17-.26-.15-.43.02-.15.21-.26.23-.2.17.52.87.1,1.04.64-.68.38-1.48.66-1.85,1.47l.02-.02Z"/>
      <path class="cls-1" d="M63.73,74.99c-.09-.36.38-.7.04-1.07,0,0,.15-.19.25-.25.13-.08.27,0,.28.13.05.92.48.34.79.2l-.02.02c.12.04.48-.13.23.24-.1.15-.57.71-.54.79.23.6-.22.44-.52.48-.36.05-.38-.08-.25-.36.25-.54-.2-.11-.28-.19l.02.02Z"/>
      <path class="cls-1" d="M72.89,6.72c-.24-.29.12-.42.03-.58-.17-.33-.04-.72.13-.85.2-.16.63-.16.9-.06.26.1.62-.5.7.04.07.46-.32.48-.69.35-.02,0-.11.08-.1.11.25.97-.88.4-.96.99Z"/>
      <path class="cls-1" d="M65.61,5.68c.08.39.11.67-.44.7-.65.03-1.23-.06-1.76-.46-.15-.12-.35-.23-.23-.44.1-.17.27,0,.41.01.67.08,1.32.43,2.03.19Z"/>
      <path class="cls-1" d="M67.18,1.15c.27.01.59-.33.78.11.17.41.47-.23.63.24-.33.42.34,1.02-.06,1.58l.02-.02c-.2-.07-.39-.13-.59-.2,0-.08-.01-.15-.02-.23-.14-.32.29-.66.08-.88-.26-.28-.69.05-1.04-.05l.02.02c-.01-.23.5-.28.2-.6l-.02.02Z"/>
      <path class="cls-1" d="M75.82,42.63c-.3.34-.19.62-.21.87,0,.07-.17.2-.19.18-.55-.37-.64,0-.71.42-.05.33-.37.17-.54.28-.15.1-.23.05-.24-.12,0-.09.02-.26.05-.26.58-.11.52-.65.71-1.03.18-.37.43-.59.87-.44.1.03.27.01.25.08Z"/>
      <path class="cls-1" d="M69.71,33.48c.13.07.3.22.39.19.53-.23.54.15.6.48-.11-.06-.21-.13-.32-.17-.17-.06-.36-.12-.45.12-.02.05-.03.14,0,.18.14.24.29-.06.45-.01.12.04.24-.03.31-.15.16-.02.39-.05.33.17-.07.32-1.11.6-1.21.35-.26-.67-.79-.47-1.5-.44.52-.33.75-.67,1.17-.72.08.07.16.07.24,0Z"/>
      <path class="cls-1" d="M74.99,50.02c.66-.21.45-.81.6-1.21.66.21-.29,1.2.64,1.27.34.59.96.29,1.54.46-.37.19-.65.34-1,.35-.33,0-.83.31-.65-.43.06-.24-.16-.1-.24-.15-.27-.18-.59-.19-.88-.29Z"/>
      <path class="cls-1" d="M70.6,38.4c.05.27.08.49.15.7.1.31-.15.39-.31.5-.18.13-.29-.09-.34-.21-.1-.21-.19-.33-.41-.15-.25.19-.4-.1-.61-.11-.23,0-.51-.1-.45-.34.07-.28.43-.4.62-.19.56.6.89,0,1.36-.2Z"/>
      <path class="cls-1" d="M67.4,56.32c.11.5.02,1.06.53,1.42.05.03.15.46-.17.34-.32-.12-.52.29-.87.05.26-.11.07-.45.38-.58.15-.06.07-.21-.02-.32-.15-.19-.25-.06-.37.04-.1.08,0,.38-.27.25-.18-.09-.13-.23-.06-.4.06-.14.05-.31.07-.47l-.02.02c.38,0,.69-.07.54-.57.09.07.17.14.26.22Z"/>
      <path class="cls-1" d="M73.9,48.11c-.56-.25-.94-.82-1.59-.97-.16-.04-.12-.2-.1-.31.03-.21.15-.14.26-.07.24.17.68-.13.68-.02.02.78.76.8,1.14,1.18.13.13.04.35-.11.51-.15.17-.35.13-.53.19-.11.04-.08.41-.28.13-.08-.11-.06-.32.15-.38.13-.04.33.03.38-.26Z"/>
      <path class="cls-1" d="M66.79,5.01c.05-.03.11-.05.16-.09.18-.17.35-.41.64-.3.22.09.14.38.15.54.01.19-.04.64-.49.39.04.53-.65-.16-.61.37-.09.09-.17.17-.26.26-.14.06-.24.22-.49.13.32-.44.62-.88.93-1.31h-.02Z"/>
      <path class="cls-1" d="M70.28,71.69c-.28.02-.55.06-.83-.09-.34-.18-.54-.36-.15-.68.02-.02.05-.04.08-.05.28-.1-.15-.62.43-.61.59,0,.07.65.48.68l-.02-.02c0,.26,0,.52,0,.78l.02-.02Z"/>
      <path class="cls-1" d="M68.72,49.33c.03.34.91.23.43.84.28.35.27.77.34,1.41-.39-.65-.89-.96-1.1-1.51-.14-.37-.03-.61.35-.72l-.02-.02Z"/>
      <path class="cls-1" d="M71.62,50.88c.37.27.15.6.1.97-.3-.41-.66-.63-1.17-.62-.16,0-.3-.2-.15-.43.14-.21.11-.58.44-.57.19,0,.46.1.39.42-.1.49,0,.62.4.23h-.02Z"/>
      <path class="cls-1" d="M76.07,41.81c-.32-.08-.23-.36-.21-.55.09-.63-.19-.87-.78-.81h.02c-.01-.24,0-.47.36-.31.46.2.95.32,1.49.34-.22.36-.64.02-.9.44.39-.1.67,0,.97.23-.23.08-.17.66-.66.23-.16-.14-.26.24-.3.44l.02-.02Z"/>
      <path class="cls-1" d="M68.27,56.09c.24.21.15.82.67.46.12-.08.16.04.17.13.04.33.06.66.11.99.03.22-.17.13-.24.2-.11.1-.25.11-.25-.07-.01-.25-.13-.44-.31-.56-.44-.31-.48-.66-.15-1.15Z"/>
      <path class="cls-1" d="M79.87,41.1c-.24-.32-.63-.1-.79-.45-.04-.1-.35-.11-.54-.03-.16.07-.33.46-.47.11-.06-.16.12-.37-.23-.35-.06,0-.06-.2,0-.23.46-.23.92.11,1.42.02.31-.05.62.34.6.94Z"/>
      <path class="cls-1" d="M68.4.22c.65-.31-.12.55.33.38.22-.08.16-.52.52-.43.08.02.22.1.22.13-.04.24-.07.5-.19.71-.13.22-.4.17-.6.1-.17-.06-.29-.24-.45-.32-.19-.1-.46-.12-.36-.42.09-.3.4.02.54-.15Z"/>
      <path class="cls-1" d="M77.48,46.02c-.2.26-.36.33-.45.04-.06-.19.03-.3.24-.43.34-.2.66-.24.81.08.16.35.49.25.68.43.11.11.26.23.13.4-.11.14-.39.14-.42.03-.18-.57-.89.05-.99-.56Z"/>
      <path class="cls-1" d="M69.3,25.44c.37-.43.6.32.99.13-.3.25-.71.43-.45.92.03.06-.16.32-.32.18-.29-.25-.64.1-.91-.15.45-.23.53-.69.7-1.1l-.02.02Z"/>
      <path class="cls-1" d="M67.8,53.87c-.17-.62.14-1.21.15-1.81,0-.14.09-.24.25-.19.18.05.07.22.12.3.1.17-.47.78.32.52.06-.02.12.17.07.22-.32.3-.35.86-.9.96Z"/>
      <path class="cls-1" d="M68.53,3.08c.19-.02.43-.1.54.07.19.3.29.44.42-.02.11-.39.59-.24.66-.2.22.17.19.38-.1.57-.22.15-.34.44-.36.73l.02-.02c-.28-.17-.25-.71-.8-.6-.24.05-.42-.26-.35-.56l-.02.02Z"/>
      <path class="cls-1" d="M71.23,57.81c.08.49-.3.48-.53.39-.48-.19-.91-.08-1.5.29.27-.63.75-.92.63-1.5.35.59.75.96,1.42.84l-.02-.02Z"/>
      <path class="cls-1" d="M58.91,67.07c0-.26,0-.52,0-.78l-.02.02c.4-.25.34-.96.98-.97l-.02-.02c-.01.12.01.26-.04.35-.23.34-.02.41.25.45v-.02c-.2.31-.49.51-.76.74-.1.13-.24.2-.4.24Z"/>
      <path class="cls-1" d="M62.57,14.46c.03-.21.2-.23.35-.22.51.03,1.01.16,1.67-.03-.28.47-.43.82-.31,1.21l.02-.02c-.12,0-.26.06-.35-.07-.35-.51-.87-.84-1.4-.89l.02.02Z"/>
      <path class="cls-1" d="M71.83,2.48c-.38-.02-.82.19-1.12-.25.19-.27.47.14.67-.12.06-.08.2-.1.19-.26,0-.11-.64-.17-.02-.35.29-.08.53-.11.77.09.13.11.06.23-.02.33-.16.2-.33.38-.49.58l.02-.02Z"/>
      <path class="cls-1" d="M69.15,53.91v-1.43c.33.31-.02.78.45,1.01v-1.45c.43.64.39,1.21.38,1.69-.01.37-.54-.08-.83.18Z"/>
      <path class="cls-1" d="M70.08,47.99q.77-.31,1.14.81-.96-.04-1.13-.83v.02Z"/>
      <path class="cls-1" d="M56.41,47.45c-.08-.16-.16-.32-.23-.47.14-.18.46-.21.4-.57-.04-.24-.06-.53.31-.68.16.24.13.49,0,.74-.13.23.81.06.16.46.18.64-.34.45-.63.52Z"/>
      <path class="cls-1" d="M64.28,78.88v-.28c.13-.2.55-.27.16-.66.4.05.45.25.46.48,0,.09.03.18.05.27.36-.33.61,0,.45.21-.18.24-.57.49-.96.44-.28-.03-.1-.3-.16-.46Z"/>
      <path class="cls-1" d="M65.64,2.87c.05.3-.01.62.14.9-.24.1-.63.1-.62,0,.08-.5-.74-.64-.4-1.24.26.2.55.38.89.36l-.02-.02Z"/>
      <path class="cls-1" d="M83.28,25.13c.13-.4.17-.9.77-1.02.2-.04.37.16.27.21-.5.26-.16.5-.03.75.06.12.1.25-.05.33-.14.07-.43.06-.42-.05.06-.93-.43.13-.54-.21Z"/>
      <path class="cls-1" d="M67.4,56.32c-.09-.07-.17-.14-.26-.22-.12,0-.23-.02-.35-.03l.02.02c-.32-.51.03-.71.39-.55.33.14.58-.04.94-.01-.05.5-.16.86-.74.79Z"/>
      <path class="cls-1" d="M64.09,3.66c.15,0,.36-.07.37.14.04.49.16.78.75.64.28-.07.24.19.23.38l.02-.02c-.1,0-.19.01-.29.03-.99.15-1.09.07-1.08-.9,0-.1.01-.19.02-.29l-.02.02Z"/>
      <path class="cls-1" d="M74.3,70.89c-.35.02-.53-.1-.65-.3.5-.24.1-1.06.71-1.19.48-.11.36.52.69.61-.28.46-.45-.43-.74.02-.19.29-.2.56,0,.86Z"/>
      <path class="cls-1" d="M81.43,21.11c-.12-.26-.57-.14-.55-.52.01-.23.53-.9.75-.95.17-.04.34-.06.58-.1-.04.48-.66.24-.7.61-.04.31-.05.62-.08.96Z"/>
      <path class="cls-1" d="M85.57,26.59c-.28.21-.63.55-.79.37-.3-.33-.87-.26-1.01-.74-.02-.08,0-.21.05-.26.11-.09.12.06.17.11.2.25.53.05.78.23.19.15.47.18.8.29Z"/>
      <path class="cls-1" d="M68.81,44.76c1.06.13,1.16.31.69,1.4-.18-.55-.64-.85-.69-1.4Z"/>
      <path class="cls-1" d="M68.16,61.68c-.09-.22.79-.3.07-.63-.2-.09-.04-.46-.2-.68.37.14.42.67.88.64-.01.22.36.39.14.59-.25.23-.58.39-.91.06l.02.02Z"/>
      <path class="cls-1" d="M74.15,55.26c-.22-.47-.89-.25-.86-.95.01-.28.08-.34.25-.44.11-.06.23-.15.33-.02.14.18.02.27-.14.34-.08.04-.16.11-.09.28.18.16,1.1-.28.51.79Z"/>
      <path class="cls-1" d="M67.17,77.11c.28-.08.11-.41.29-.55.24.09.34.38.69.35-.11.16-.14.26-.21.29-.32.14-.71.19-.65.71.03.25-.22.16-.35.13-.14-.03-.18-.16-.11-.29.11-.22.24-.44.35-.66l-.02.02Z"/>
      <path class="cls-1" d="M71.72,59.75c-.1.45-.83.51-.57,1.12.04.09-.22.32-.45.17-.16-.11-.02-.29-.03-.36-.07-.83.43-.9,1.05-.93Z"/>
      <path class="cls-1" d="M70.01,28.61c.17.23,0,.51.15.77.27-.13.43-.56.92-.34-.33.35-.54.86-1.16.57-.33-.16-.3-.41.08-1Z"/>
      <path class="cls-1" d="M77.37,37.48c-.51,0-.85-.15-.76-.76.04-.25.16-.3.38-.32.32-.03.34.13.33.38,0,.23.03.47.05.7Z"/>
      <path class="cls-1" d="M65.93,62.49c.17.18.08.4.23.55.14.14.64.2.18.55-.17.13-.32.37-.52.04-.14-.24-.66-.41-.15-.78.09-.07.14-.2.25-.36Z"/>
      <path class="cls-1" d="M65.08,74c-.49-.17-.75-.68-1.28-.82-.14-.04-.13-.29-.03-.42.14-.18.23-.07.35.07.24.29.52.55.87.08.28.36-.32.77.08,1.1l.02-.02Z"/>
      <path class="cls-1" d="M77.79,54.93c-.15,0-.36.06-.38-.16-.03-.34-.13-.38-.37-.14-.13.13-.22.04-.3-.07-.03-.04-.02-.11-.03-.16.5-.07.7-.86,1.42-.56-.33.31-.61.64-.36,1.11v-.02Z"/>
      <path class="cls-1" d="M67.21,55.18c.18-.29.43-.5.43-.88.36.07.45.88.91.26.06-.08.22.19.15.24-.16.12-.03.63-.45.36-.37-.24-.68-.01-1.05.02Z"/>
      <path class="cls-1" d="M84.46,62.52c-.4.34-.77.66-.92,1.17-.01.05-.18.1-.25.07-.06-.03-.13-.16-.11-.23.07-.36.39-.59.53-.93.11-.28.45-.14.74-.08Z"/>
      <path class="cls-1" d="M71,42.4c-.22,0-.37-.08-.34-.32.04-.34.26-.47.58-.47.26,0,.44.08.38.37-.06.34-.31.44-.62.42Z"/>
      <path class="cls-1" d="M67.94,2.64c0,.08.01.15.02.23-.61.27-1.13.69-1.68,1.1.14-.25-.15-.59.39-.78.42-.15.84-.39,1.27-.54Z"/>
      <path class="cls-1" d="M63.09,61.31c.14-.12.22-.27.26-.45.22.01.44.02.67.04.2.01.46.18.37.28-.16.19-.26.4-.37.61-.14-.1-.18-.32-.42-.3-.18.02-.39.03-.5-.18Z"/>
      <path class="cls-1" d="M72.38,54.76c.02-.28-.08-.66.3-.7.38-.04.07.56.44.62-.3.05.14.58-.42.56-.5-.02-.24-.31-.32-.47Z"/>
      <path class="cls-1" d="M70.37,35.68c-.03.29-.1.54-.38.68q-.08-.49-.86-.23c-.05-.34-.07-.66,0-.96.65-.11-.07.56.38.5.29-.04.56-.06.86,0Z"/>
      <path class="cls-1" d="M68.55,36.31c.26.35,1.03.07.92.8-.24.19-.58,0-.84.26-.18-.37-.09-.71-.08-1.07Z"/>
      <path class="cls-1" d="M74.14,45.3c-.05-.11-.1-.22-.15-.33.29-.09.57-.04.72.21.29.52.06.98-.23,1.49-.37-.43.09-.79-.07-1.18-.09-.21-.2-.14-.29-.21l.02.02Z"/>
      <path class="cls-1" d="M48.87,83.27c.13.3.65.3.58.76-.39.41-.7.36-1.15-.19l-.02.02c.38-.02.58-.22.6-.6h-.02Z"/>
      <path class="cls-1" d="M71.37,71.24c.44.4.58.77.27,1.25-.08.12-.15.22-.28.15-.1-.05-.17-.16-.26-.25.4-.27-.02-.76.28-1.15Z"/>
      <path class="cls-1" d="M69.41,46.43c.22.43-.2.75.13,1.06-.46.12-.35-.62-.87-.39-.18.08-.18-.32-.06-.39.23-.14.51-.19.8-.28Z"/>
      <path class="cls-1" d="M74.97,69.36c-.17-.44.22-.88-.31-1.16-.24-.13.08-.29.18-.4.22-.21.38,0,.41.16.1.47.11.95-.29,1.4Z"/>
      <path class="cls-1" d="M76.65,69.79c-.23.19-.39-.12-.55,0-.58.45-.51-.23-.72-.41-.1-.08-.03-.16.03-.23.09-.1.15-.05.28-.03.41.09.7.29.96.66Z"/>
      <path class="cls-1" d="M52.54,40.65s-.06.02-.09.02c-.43-.01.1.54-.25.47-.35-.07-.25-.45-.26-.72,0-.13,0-.25,0-.38,0-.21.06-.37.32-.35.4.02.06.27.12.39.04.08.11.14.16.21l-.02-.02c0,.13,0,.27,0,.4,0,0,.02-.02.02-.02Z"/>
      <path class="cls-1" d="M66.24,75.63c.3-.14.58-.05.81-.21.21-.15.36.03.47.19.11.17.11.37-.04.53-.07.08-.28.22-.26.04.07-.56-.08-.39-.38-.18-.32.23-.38-.15-.61-.36Z"/>
      <path class="cls-1" d="M93.99,40.01c.61-.12.61-.59.73-.95.09-.28.21-.41.45-.29.23.12.03.39-.03.46-.29.33-.27,1.08-1.14.79Z"/>
      <path class="cls-1" d="M76.87,37.93c-.49.02-.87.22-.99-.33-.05-.22-.09-.21.29-.57.33.18.36.58.71.9Z"/>
      <path class="cls-1" d="M74.06,7.85c-.29-.23-.69-.3-.67-.77,0-.12-.08-.26.1-.32.16-.05.35-.07.43.09.14.28.33.56.14,1Z"/>
      <path class="cls-1" d="M84.18,66.7c-.31.4-.82.18-1.09.52-.08.11-.25.03-.28-.12-.03-.12-.03-.34.06-.33.33.05.39-.17.55-.36.2-.23.33.37.61.15,0,0,.07.07.15.14Z"/>
      <path class="cls-1" d="M60.82,31.61c.12.02.37-.1.3.17-.09.32-.25.62-.38.91-.59-.08-.53-.49-.48-.9l-.02.02c.27.13.49.13.6-.21l-.02.02Z"/>
      <path class="cls-1" d="M71.25,46.62c-.56.08-1.09.11-1.31-.59-.05-.15-.05-.26.07-.32.06-.03.23,0,.25.06.17.45.44.71.96.59,0,.09.01.19.02.28,0,0,.02-.01.02-.01Z"/>
      <path class="cls-1" d="M60.81,62.64c-.18.12-.31.43-.59.15-.02-.4.4-.55.49-.9.03-.12.19-.27.37-.07.12.13.21.31.04.39-.2.1-.28.23-.3.43Z"/>
      <path class="cls-1" d="M72.2,25.17c-.05.57-.82.57-.82,1.26-.23-.44-.24-.77.08-.93.48-.23-.21-.34.04-.56.2.08.47.03.7.23Z"/>
      <path class="cls-1" d="M77.71,57c-.45-.22-.15-.77-.49-1,.11-.15.22-.34.43-.28.18.05.4.23.3.4-.16.27-.09.6-.25.89Z"/>
      <path class="cls-1" d="M79.17,47.51c0-.6.38-.74.87-.79q-.2.88-.87.79Z"/>
      <path class="cls-1" d="M71.8,6.91c.02.19.04.41-.24.38-.11-.01-.24-.12-.29-.22-.11-.24-.55.05-.51-.35.01-.11.12-.21.18-.31.2.18.57-.02.7.33.03.08.12.13.18.2l-.02-.02Z"/>
      <path class="cls-1" d="M75.03,51.88c.04.33.09.62.55.5.12-.03.33-.04.44.11.08.11.06.24.02.36-.31-.37-.73.11-1.01-.09-.32-.23-.32-.57.01-.88Z"/>
      <path class="cls-1" d="M73.28,9.76c.56.16.91.12,1.04-.35.04-.15.16-.2.29-.13.13.07.09.2.04.33-.27.74-.54.8-1.37.16Z"/>
      <path class="cls-1" d="M68.8,28.09c-.16-.3.22-.44.04-.68-.08-.11-.22-.34,0-.33.17,0,.43-.18.58.1.1.18.16.38.01.52-.17.16-.4.26-.63.4Z"/>
      <path class="cls-1" d="M87.01,63.5c-.07.08-.13.16-.2.21-.11.09-.2-.02-.23-.08-.14-.28-.26-.55-.63-.22-.03.02-.21-.05-.23-.1-.08-.27.2-.15.24-.2.14-.19.3-.4.52-.26.22.15.35.42.52.65Z"/>
      <path class="cls-1" d="M84.72,21.18c.17.16-.35.52.21.63.13.03-.28.26-.3.54-.68-.99-.67-1.06.11-1.16l-.02-.02Z"/>
      <path class="cls-1" d="M71.61,68.6q.14.66-.81.96.3-.75.82-.94v-.02Z"/>
      <path class="cls-1" d="M73.56,72.29c.07-.17.1-.38.22-.51.32-.38-.04-.3-.22-.38-.15-.07-.25-.23-.15-.39.07-.11.21-.05.34-.02.41.09.5.47.47.72-.04.26-.23.63-.66.56l.02.02Z"/>
      <path class="cls-1" d="M71.42,37.57c0,.23.11.47-.23.63-.33.15-.58.03-.69-.2-.1-.21.14-.39.38-.42.18-.03.38,0,.56.01l-.02-.02Z"/>
      <path class="cls-1" d="M69.7,75.95c-.19-.39-.86-.5-.68-1.12.13-.08.21.01.32.07.17.08-.08.64.44.37.07-.04.44.49-.11.67l.02.02Z"/>
      <path class="cls-1" d="M78.41,43.38c.43.55-.36.76-.33,1.21-.07-.5-.28-1,.08-1.47.09.09.17.17.26.26Z"/>
      <path class="cls-1" d="M69.76,44.85c.02-.24.2-.35.33-.45.21-.15.48-.15.7,0,.1.07.05.23-.04.32-.17.17-.33.53-.6.08,0-.01-.24.14-.38.04Z"/>
      <path class="cls-1" d="M68.83,59.61c.51.28.58.68.41,1.17,0-.45-1.17-.4-.41-1.17Z"/>
      <path class="cls-1" d="M72.58,26.82c.47-.09.61.52,1.02.25.13-.08.13.1.13.17,0,.08,0,.21-.06.25-.27.23-.66.07-.84-.32-.05-.11-.14-.2-.25-.35Z"/>
      <path class="cls-1" d="M70.21,55.6c-.69.07-.96.7-1.55.45q.37-.6,1.55-.45Z"/>
      <path class="cls-1" d="M77.78,52c-.21.16-.4.66-.66.09-.15-.33-.52-.17-.8-.3.58-.62.97.23,1.46.21Z"/>
      <path class="cls-1" d="M74.31,38.74c.01-.18,0-.39.22-.37.23.02.19.2.12.36-.09.23.12.4.11.62,0,.18.45-.11.3.25-.08.18-.27.11-.42.11-.36,0-.17-.2-.16-.37.02-.22-.23-.38-.16-.6Z"/>
      <path class="cls-1" d="M71.47,54.14c-.15,0-.27-.09-.22-.21.1-.21.1-.5.41-.57.16-.04.32-.29.48-.07.13.19.14.47-.19.48-.28.01-.28.3-.48.37Z"/>
      <path class="cls-1" d="M73.53,55.9c.43-.02.67-.37.99-.58l-.02-.02c.05.41.08.73-.47.9-.45.14-.41.25-.48-.31h-.02Z"/>
      <path class="cls-1" d="M58.91,67.07c.16-.03.29-.11.4-.24.22.02.44.04.83.08-.46.19-.62.51-.97.61-.14.04-.29.21-.42.04-.15-.2.1-.33.15-.5Z"/>
      <path class="cls-1" d="M62.57,60.13c-.72-.23-.11-.51-.02-.75.13-.33.39-.3.57-.07.1.12.2.23.35.32-.29.22-.47.13-.6-.14-.18.18-.31.39-.32.65l.02-.02Z"/>
      <path class="cls-1" d="M67.85,60.96c.15.43-.25.41-.45.51-.13.06-.23-.09-.21-.23.04-.3.25-.52.47-.69.03-.02.35.16.19.42Z"/>
      <path class="cls-1" d="M73.72,30.28c-.21.16-.45.7-.65.05-.04-.12.49-.4.79-.26.47.21.37.54-.05.65-.22.05.15-.3-.09-.43Z"/>
      <path class="cls-1" d="M80.89,65.9c.26-.18.48-.14.52.13.07.38-.26.26-.45.27-.15,0-.3-.1-.45-.08-.27.03-.23-.14-.22-.29.01-.19.11-.17.25-.1.11.05.24.05.35.07Z"/>
      <path class="cls-1" d="M73.78,2.59c-.12-.25-.24-.5-.39-.82.32-.04.56-.21.8.2.27.47-.49.29-.4.62Z"/>
      <path class="cls-1" d="M70.26,76.12c-.04.25-.28.3-.43.44-.46.46-.45-.41-.77-.25-.04-.35.29-.26.45-.37.04-.03.12,0,.19,0l-.02-.02c.03.55.43.05.6.21l-.02-.02Z"/>
      <path class="cls-1" d="M76.64,39.32c0-.12-.03-.34.1-.32.33.07.64.22.96.35.15.06.11.23.09.34-.05.21-.16.09-.27.04-.31-.12-.66-.14-.89-.43l.02.02Z"/>
      <path class="cls-1" d="M75.09,32.58c.28.38-.3.68-.29,1.09,0,.05-.38.17-.4.14-.13-.22-.17-.46.05-.67.2-.18.4-.36.64-.57Z"/>
      <path class="cls-1" d="M85.69,47.65c.18-.39.19-.67.21-.96.36.11.54.36.71.64-.27.09-.52.18-.92.32Z"/>
      <path class="cls-1" d="M73.77,32.96c-.13.49-.32.77-.78.76-.06,0-.19,0-.13-.17.14-.41.43-.55.91-.59Z"/>
      <path class="cls-1" d="M75.43,58.79q-.84-.22-.48-.93c.24.25.37.54.48.93Z"/>
      <path class="cls-1" d="M71.49,4.55c.04-.31-.4-.44-.24-.71.15-.25.37-.49.74-.38.08.03.2.04.19.17-.01.2-.12.1-.24.11-.59.02-.11.56-.45.82Z"/>
      <path class="cls-1" d="M69.63,40.16c-.08.63-.18,1.05-.77,1.05-.04-.51.28-.74.77-1.05Z"/>
      <path class="cls-1" d="M79.64,16.75c-.12.22-.22.49-.39.71-.1.13-.32.12-.43,0-.14-.16-.03-.27.14-.34.17-.08.31-.17.25-.42-.04-.19.16-.12.27-.13.1,0,.17.04.15.19Z"/>
      <path class="cls-1" d="M81.12,44.44c-.04-.37-.35-.67-.25-1.07.02-.08.04-.2.17-.19.06,0,.12.03.17.05-.13.39.55.85-.09,1.2Z"/>
      <path class="cls-1" d="M52.56,53.15c-.04.18-.11.33-.25.45-.38,0-.37-.25-.35-.51,0-.18.08-.28.28-.29.25,0,.32.13.33.35Z"/>
      <path class="cls-1" d="M71.23,46.64c.35.19.27.51.1.71-.14.16-.39.32-.67.26-.1-.02-.18-.07-.18-.18,0-.11.1-.1.17-.14.27-.15.56-.29.6-.66h-.02Z"/>
      <path class="cls-1" d="M72.52,52.94c-.5-.17-.08-.67-.44-.83,0,0,.11-.2.23-.24.14-.05.21.02.29.14.24.35-.02.63-.08.94Z"/>
      <path class="cls-1" d="M70.62,27.66c.08.43-.58.12-.44.59.03.09-.27.11-.4.04-.1-.05-.25-.2-.23-.27.04-.14.16-.26.34-.28.24-.02.47-.05.73-.08Z"/>
      <path class="cls-1" d="M73.32,39.07c-.25-.08-.46-.14-.72-.22.23-.24.46-.72.66-.64.49.18.03.56.06.87Z"/>
      <path class="cls-1" d="M76.45,43.37c0-.09-.02-.19-.02-.28-.02-.26,0-.52.27-.63.11-.04.22.09.27.19.15.32,0,.54-.27.69-.07.04-.18,0-.27,0l.02.02Z"/>
      <path class="cls-1" d="M73.93,9.2c-.43-.01-.66.23-.9.48-.11.12-.21.1-.31-.01-.12-.13-.08-.27.04-.31.36-.11.62-.74,1.17-.16Z"/>
      <path class="cls-1" d="M74.31,27.28c-.29.06-.2-.3-.38-.4-.17-.1-.28-.28-.1-.48.06-.06.21-.14.21-.13.21.26.27.63.62.79-.11.07-.21.13-.35.22Z"/>
      <path class="cls-1" d="M86.53,22.6c.39-.31.11-.77.57-.8.11,0,.47.05.43.35-.07.47-.49.28-.99.45Z"/>
      <path class="cls-1" d="M71,4.9c-.08.28,0,.68-.44.63-.13-.01-.44-.1-.39-.28.09-.38.55-.2.84-.35Z"/>
      <path class="cls-1" d="M65.4,76.4c-.15-.44-.72-.08-.93-.46q.72-.28.93.46Z"/>
      <path class="cls-1" d="M74.56,72.52q.88.33.18,1.1c-.03-.4.34-.83-.18-1.1Z"/>
      <path class="cls-1" d="M80.39,70.32c.05-.34.69.05.56-.51-.02-.08.17-.26.35-.1.16.15.2.3.03.47-.29.28-.61.17-.94.13Z"/>
      <path class="cls-1" d="M72,34.49c-.05.29.34.49.17.8-.2-.14-.5-.16-.6-.48-.05-.15-.14-.27.03-.4.19-.15.27.1.41.1l-.02-.02Z"/>
      <path class="cls-1" d="M64.15,57.84c-.09-.08-.17-.17-.26-.25-.02-.4.41-.54.49-.89.51.52-.19.76-.23,1.15Z"/>
      <path class="cls-1" d="M79.14,45.34c.04-.34.4-.29.54-.5.09-.14.2-.07.31.03.13.13.15.28.11.44-.05.2-.19.09-.28.03-.22-.13-.45.13-.67,0Z"/>
      <path class="cls-1" d="M71.25,74c-.18.04-.35.08-.53.12-.08-.09-.08-.21,0-.26.22-.16-.02-.73.43-.6.43.12-.04.51.08.76l.02-.02Z"/>
      <path class="cls-1" d="M61.59,74c0,.06.03.13.02.19-.03.22.13.53-.26.59-.13.02-.27,0-.31-.14-.08-.33.05-.54.38-.63.06-.01.12,0,.19,0l-.02-.02Z"/>
      <path class="cls-1" d="M77.59,16.62c.1-.28.47-.39.49-.74.05.29.41.53.21.8-.14.19-.45.15-.7-.06Z"/>
      <path class="cls-1" d="M63.5,19.6c.1-.21-.35-.55.05-.61.21-.03.46.28.48.64.02.29-.17.18-.28.23-.09-.09-.17-.17-.26-.26Z"/>
      <path class="cls-1" d="M60.43,16.19c-.23-.29-.22-.63-.18-.97.25.07.43.26.53.47.15.31.05.54-.35.51Z"/>
      <path class="cls-1" d="M71.19,55.06c-.26.12-.48.23-.7.34-.27.14-.2-.14-.28-.23-.11-.12-.09-.23.09-.25.29-.04.59-.25.89.13Z"/>
      <path class="cls-1" d="M71.23,74.02c.31.21.63.41,1,.66-.41.18-.71.12-1.01.09h.02c.18-.24-.07-.51,0-.77l-.02.02Z"/>
      <path class="cls-1" d="M74.17,50.49c-.26-.04-.24-.21-.25-.35-.01-.24.02-.44.34-.41.2.02.25.13.25.31,0,.26-.18.37-.34.45Z"/>
      <path class="cls-1" d="M66.79,55.1c-.03-.5-.23-1.09.56-1.23-.44.31-.27.85-.56,1.23Z"/>
      <path class="cls-1" d="M72.93,35.73c-.33.46.22.89,0,1.32-.47-.61-.48-.72,0-1.32Z"/>
      <path class="cls-1" d="M65.27,63.83c-.01.15-.11.41-.2.31-.17-.19-.56-.12-.54-.39,0-.23.33-.29.51-.32.28-.05.22.22.24.4Z"/>
      <path class="cls-1" d="M71.82,6.93c-.02-.2-.02-.46.25-.37.44.16.93.36.62,1.11-.13-.51-.37-.82-.88-.76l.02.02Z"/>
      <path class="cls-1" d="M76.19,8.32c.13.42.11.71-.23.89-.08.04-.2.03-.24-.07-.17-.44.14-.61.47-.82Z"/>
      <path class="cls-1" d="M76.83,5.47c-.1.28-.11.41-.19.48-.21.22-.05.63-.41.75-.04.01-.15-.06-.14-.09.06-.33.11-.66.33-.93.05-.06.15-.09.41-.22Z"/>
      <path class="cls-1" d="M69.71,33.48c-.08.08-.16.08-.24,0-.41-.14-.31-.48-.29-.79.01-.2.17-.13.27-.14.16,0,.22.08.13.23-.18.28.21.44.13.69Z"/>
      <path class="cls-1" d="M88.41,51.03c-.46.26-.78.14-1.15-.02.38-.37.72-.36,1.15.02Z"/>
      <path class="cls-1" d="M77.25,68.77c.33-.34.5-1.01.96-.21-.2.23-.51.31-.96.21Z"/>
      <path class="cls-1" d="M79.01,34.61c-.53.02-.28.6-.69.65-.06,0-.34-.01-.18-.14.26-.2.16-.45.24-.67.05-.14.17-.18.3-.1.08.05.15.12.32.26Z"/>
      <path class="cls-1" d="M85.51,28.81c0,.37-.37.33-.59.45-.07.04-.2-.07-.17-.15.1-.27.59-.29.46-.72.21.05.29.2.3.41Z"/>
      <path class="cls-1" d="M72.53,46.1c-.03.06-.03.1-.05.1-.38.15-.64-.04-.84-.34-.02-.02.03-.13.07-.14.44-.2.58.18.81.38Z"/>
      <path class="cls-1" d="M77.26,53.27c.34-.24.7-.34,1.1-.3-.34.16-.46.89-1.1.3Z"/>
      <path class="cls-1" d="M81.79,63.05c.37.28.28.66.19,1-.06.22-.35.18-.46.06-.13-.14.01-.17.17-.25.29-.17.08-.51.11-.8Z"/>
      <path class="cls-1" d="M75.29,36.24c-.09.21-.19.38-.41.36-.16-.01-.34-.16-.29-.29.05-.13.03-.43.3-.37.15.04.39.06.41.3Z"/>
      <path class="cls-1" d="M79.58,42.39c-.29.02-.41-.03-.44-.23-.05-.3.18-.35.38-.43.19-.08.2.06.2.18,0,.21.08.46-.14.48Z"/>
      <path class="cls-1" d="M93.79,61.1c-.32.05,0,.64-.46.55-.08-.01-.2-.11-.21-.17-.05-.38.28-.55.52-.66.22-.1.11.18.13.3v-.02Z"/>
      <path class="cls-1" d="M69.68,4.24c.16-.08.34-.16.49-.25.16-.1.35-.27.45-.01.1.25-.24.35-.34.33-.2-.05-.53.7-.59-.08,0,0-.02.02-.02.02Z"/>
      <path class="cls-1" d="M72.75,69.01c.14-.45-.23-.76-.06-1.23.48.39.62.73.06,1.23Z"/>
      <path class="cls-1" d="M70.49,31.36c-.14.16-.29.16-.43,0-.11-.17-.18-.33.04-.47.14-.09.32-.14.44-.03.16.15-.13.32-.05.5Z"/>
      <path class="cls-1" d="M68.92,22.54c.14.06.28.13.43.19.2.08.19.26.15.4-.08.26-.25,0-.37.03-.11.03-.22.06-.33.1-.14-.3.2-.47.15-.72l-.02.02Z"/>
      <path class="cls-1" d="M79.88,19.25c-.5.29-.9.06-1.38-.31.56-.08.93.31,1.38.31Z"/>
      <path class="cls-1" d="M65.27,55.44c.27-.34.44-.65.84-.47.15.07,0,.15-.02.22-.13.46-.45.33-.81.24Z"/>
      <path class="cls-1" d="M73.54,72.27c.1.47-.46.29-.57.57-.02.05-.19-.08-.17-.15.06-.2.13-.44.27-.57.17-.15.32.11.49.17l-.02-.02Z"/>
      <path class="cls-1" d="M71.25,57.83c-.01-.06-.04-.13-.03-.19.02-.2-.45-.44.05-.59.16-.05.33,0,.35.21.02.28.09.62-.39.55l.02.02Z"/>
      <path class="cls-1" d="M69.24,42.76c-.23-.32.01-.73-.5-.86.5-.21.73.06.84.32.11.27-.42.17-.35.53Z"/>
      <path class="cls-1" d="M83.43,19.09c-.05.22-.07.5-.41.29-.13-.08-.27-.2-.33-.34-.08-.16-.35-.37-.09-.53.22-.13.17.3.38.32.12.14.28.21.45.25Z"/>
      <path class="cls-1" d="M95.22,37.58c.02-.62.56-.29.73-.57.01-.02.14.11.07.19-.1.11.17.34-.11.37-.22.02-.44,0-.69,0Z"/>
      <path class="cls-1" d="M72.81,58.93c.37.05.71.14.97.42-.58.36-.7-.21-.97-.42Z"/>
      <path class="cls-1" d="M78.16,49.35c.28.25.53-.19.77.1q-.48.61-.77-.1Z"/>
      <path class="cls-1" d="M48.3,83.83c-.28,0-.65.14-.58-.38l-.02.02c.2-.08.36-.35.63-.08.21.21-.03.31-.05.47l.02-.02Z"/>
      <path class="cls-1" d="M74.22,57.5c-.1-.34-.2-.68,0-1,.02-.02.14-.02.17.01.35.39-.16.65-.17.98Z"/>
      <path class="cls-1" d="M73.55,55.89c-.1-.06-.22-.11-.3-.19-.17-.18-.07-.33.08-.47.09-.08.21-.15.32-.06.14.11.11.28.06.42-.04.11-.12.21-.19.31h.02Z"/>
      <path class="cls-1" d="M65.73,58.8q-.38-.74.47-.77c-.26.21-.36.43-.47.77Z"/>
      <path class="cls-1" d="M61.79,14.44c-.26,0-.51.25-.77.04-.18-.14-.2.56-.38.08-.11-.3.2-.34.42-.31.25.03.57-.17.71.22v-.02Z"/>
      <path class="cls-1" d="M72.21,54.72c-.02.14.03.35-.17.37-.31.03-.26-.3-.37-.47-.03-.05.15-.27.33-.26.22.01.19.2.21.36Z"/>
      <path class="cls-1" d="M86.63,31.52c-.17-.21-.23-.46-.46-.6.12-.16.29-.13.42-.09.59.19.16.45.04.69Z"/>
      <path class="cls-1" d="M84.74,21.2c-.09-.75.6.09.67-.33.14.12.14.29.06.41-.1.17-.24.42-.42.03-.04-.08-.22-.09-.33-.13,0,0,.02.02.02.02Z"/>
      <path class="cls-1" d="M74.15,3.18c.87-.51.44.5.83.54.07,0,.04.11-.06.11-.09,0-.2.03-.28,0-.25-.14-.05-.59-.49-.65Z"/>
      <path class="cls-1" d="M76.05,41.82c.22.26.53-.14.81.14-.19.27-.4.49-.72.37-.18-.07-.09-.34-.07-.52l-.02.02Z"/>
      <path class="cls-1" d="M72.98,43.19c.43-.18.73-.08.76.27,0,.08-.04.21-.1.25-.06.03-.23,0-.25-.05-.09-.22-.2-.4-.42-.49v.02Z"/>
      <path class="cls-1" d="M74.71,53.19c-.19.02-.14.26-.37.33.05-.29-.32-.51-.03-.8.06-.06.19-.1.24-.08.27.12.13.37.14.57l.02-.02Z"/>
      <path class="cls-1" d="M73.36,45.83c-.05.15-.11.27-.2.21-.24-.15-.65-.1-.68-.52,0-.05.13-.11.21-.17.04.39.57.19.67.47Z"/>
      <path class="cls-1" d="M70.47,1.16c-.09.19-.5-.2-.58.16,0,.02-.19-.07-.18-.16.03-.29.22-.43.51-.42.21,0,.26.14.24.41Z"/>
      <path class="cls-1" d="M78.37,38.94c-.27-.02-.37-.07-.36-.17.03-.32.34-.31.55-.4.1-.04.19.07.18.16-.03.31-.24.41-.36.41Z"/>
      <path class="cls-1" d="M79.36,51.32c.81.06.82.08.48.69-.16-.23-.31-.44-.48-.69Z"/>
      <path class="cls-1" d="M70.97,36.01c.18-.34-.13-.81.42-1.12-.04.46.07.87-.42,1.12Z"/>
      <path class="cls-1" d="M69.93,37.58c.08.1.07.17,0,.26-.15.2.16.6-.28.68-.04,0-.13-.09-.13-.1.14-.27-.15-.77.4-.84Z"/>
      <path class="cls-1" d="M70.09,47.97c-.28.08-.11.41-.31.55-.33-.2-.43-.48-.14-.76.26-.25.36.01.44.23v-.02Z"/>
      <path class="cls-1" d="M82.88,51.51c-.04-.41-.26-.84.21-1.18.23.47-.2.8-.21,1.18Z"/>
      <path class="cls-1" d="M73.09,4.26c.39.13.68.43,1.12.41-.52.27-.91.16-1.12-.41Z"/>
      <path class="cls-1" d="M78.6,11.13c.39.14.66.23,1.02.36q-.83.25-1.02-.36Z"/>
      <path class="cls-1" d="M71.55,36.36c-.44.42-.76.46-1.07.09-.04-.05-.02-.19.02-.27.1-.18.15,0,.17.05.2.37.49.02.88.13Z"/>
      <path class="cls-1" d="M86.62,49.9c-.19-.14.02-.26.02-.4,0-.2.04-.38.3-.36.09,0,.22.03.25.09.13.25-.14.28-.26.39-.1.1-.1.3-.31.28Z"/>
      <path class="cls-1" d="M83.28,49.77c-.31.27-.66.27-1,.24-.06,0-.06-.17,0-.24.34-.44.67.15,1,0Z"/>
      <path class="cls-1" d="M69.76,20.01c-.2.06-.3-.08-.4-.19-.09-.1-.29-.19-.13-.38.06-.07.15-.15.23-.16.22-.02.26.15.24.31-.01.15.2.26.06.42Z"/>
      <path class="cls-1" d="M72.09,56.28c.12.3.21.47.26.64.05.17.14.43-.1.47-.28.05-.11-.39-.37-.44.06-.2.12-.4.21-.68Z"/>
      <path class="cls-1" d="M84.34,19.25c0,.09,0,.19.01.28,0,.25-.13.32-.36.31-.1,0-.19-.04-.21-.14-.04-.18.1-.28.21-.38.11-.09.24-.05.36-.05l-.02-.02Z"/>
      <path class="cls-1" d="M82.15,48.24c-.15.21-.42.09-.5.33-.06.18-.22.25-.34.07-.12-.17.04-.3.16-.39.19-.14.42-.13.68-.01Z"/>
      <path class="cls-1" d="M87.65,63.81c.18.06.33.17.34.38,0,.17-.13.18-.25.19-.24.02-.32-.12-.31-.34,0-.14.07-.22.22-.23Z"/>
      <path class="cls-1" d="M83.48,25.46c-.04.28-.08.55-.13.82-.41-.34-.38-.53.13-.82Z"/>
      <path class="cls-1" d="M77.58,8.79c.07-.36.21-.49.46-.52.13-.01.27,0,.3.14.04.13-.03.23-.18.26-.17.03-.33.07-.58.12Z"/>
      <path class="cls-1" d="M79.08,38.36c-.37-.29-.15-.71-.47-.91q.51.2.47.91Z"/>
      <path class="cls-1" d="M75.37,35.45c.1.18-.05.18-.12.19-.3.08-.36-.15-.45-.36-.08-.18.03-.2.16-.22.34-.06.31.25.4.38Z"/>
      <path class="cls-1" d="M78.06,37.54c-.37-.29-.3-.56-.23-.84.27.23.65.43.23.84Z"/>
      <path class="cls-1" d="M79.75,37.78c.16.13.48.09.53.39.01.09-.09.19-.18.15-.21-.09-.5-.09-.55-.39-.01-.09.07-.16.2-.16Z"/>
      <path class="cls-1" d="M75.24,72.25c-.18.03-.3-.06-.27-.11.12-.16.07-.48.41-.45.18.01.37.07.39.22.07.53-.8-.46-.53.34Z"/>
      <path class="cls-1" d="M86.6,28.84c.11.1.16.14.16.14-.16.27.09.7-.32.88-.05.02-.12-.01-.19-.02.25-.26.13-.69.35-1Z"/>
      <path class="cls-1" d="M81.06,38.53s-.19-.02-.17-.18c.03-.28.3-.26.48-.32.11-.04.25.15.21.25-.07.17-.22.29-.52.25Z"/>
      <path class="cls-1" d="M75.25,4.45c.02.32.17.58-.14.72-.12.05-.26-.06-.29-.17-.08-.3.17-.39.43-.55Z"/>
      <path class="cls-1" d="M70.65,75.36c.34.13.23.42.17.62-.09.26-.36.14-.56.14l.02.02c-.16-.41.48-.42.39-.8v.02Z"/>
      <path class="cls-1" d="M86.49,24.35c-.17.14-.27.27-.3.25-.23-.11-.56-.11-.63-.44,0-.05.12-.13.18-.19.18.2.4.33.75.38Z"/>
      <path class="cls-1" d="M73.45,52.26q.21.48-.47.77c.14-.31.17-.56.47-.77Z"/>
      <path class="cls-1" d="M82.21,18.05c-.25-.08-.47-.14-.68-.2.1-.17.21-.34.32-.53.23.17.34.4.36.73Z"/>
      <path class="cls-1" d="M63.92,18.51c-.06-.35.13-.59.37-.79h-.02c.31.55.27.63-.37.77v.02Z"/>
      <path class="cls-1" d="M79.9,13.85c-.02.21-.17.37-.29.35-.17-.03-.32-.2-.29-.42.01-.09-.04-.31.17-.21.15.07.4.04.41.28Z"/>
      <path class="cls-1" d="M70.28,23.27c.08-.21.22-.36.47-.35.12,0,.28.02.2.19-.07.16-.09.43-.42.29-.08-.03-.22.07-.25-.13Z"/>
      <path class="cls-1" d="M74.12,45.28c-.24.28.17.59-.07.9-.34-.1-.33-.37-.31-.64.02-.27.2-.27.4-.24l-.02-.02Z"/>
      <path class="cls-1" d="M81.72,22.64c.25-.3.53-.25.79-.05.13.09-.24.46-.28.35-.1-.28-.41-.1-.51-.3Z"/>
      <path class="cls-1" d="M73.08,34.33c.03.25.33.46.08.73-.04.04-.23.03-.27-.02-.23-.3-.12-.53.19-.71Z"/>
      <path class="cls-1" d="M71.79,39.84c-.37.08-.67.11-.93-.13.29,0,.6-.45.93.13Z"/>
      <path class="cls-1" d="M68.92,30.44c-.46-.24-.04-.49.06-.65.1-.16.28.1.45.13.03.38-.44.27-.52.54h.02Z"/>
      <path class="cls-1" d="M75.07,40.45c0,.15.27.23.13.41-.1.12.16.33-.11.38-.09.02-.22.03-.28-.02-.17-.12-.11-.27,0-.41.09-.11.07-.32.28-.34h-.02Z"/>
      <path class="cls-1" d="M84.14,42.55c.03.31-.05.45-.3.43-.12-.01-.26-.02-.25-.19.01-.21.15-.33.34-.37.15-.03.2.09.21.13Z"/>
      <path class="cls-1" d="M76.04,30.64c.76-.01.86.23.51.72-.15-.22-.3-.43-.51-.72Z"/>
      <path class="cls-1" d="M78.08,17.71c-.18.01-.27-.05-.28-.2-.03-.21.02-.37.27-.37.12,0,.26,0,.28.16.04.23-.17.3-.27.41Z"/>
      <path class="cls-1" d="M76.63,56.33c-.13.14-.11.42-.36.42-.11,0-.21-.14-.2-.28.02-.21.16-.34.35-.37.17-.03.2.1.21.23Z"/>
      <path class="cls-1" d="M75.78,3.4c.16-.05.2-.07.21-.07.28.19.4.46.42.79,0,.03-.11.1-.15.08-.37-.13-.18-.55-.48-.81Z"/>
      <path class="cls-1" d="M87.4,31.75q.42-.65.82.01c-.29-.14-.53-.11-.82-.01Z"/>
      <path class="cls-1" d="M87.11,61.82c-.11-.29-.11-.56,0-.86.2.29.6.56,0,.86Z"/>
      <path class="cls-1" d="M75.41,48.27c-.29.11-.43.47-.85.5q.36-.5.85-.5Z"/>
      <path class="cls-1" d="M68.92,48.75c0,.06.02.12.03.18,0,.19.32.21.27.31-.09.17-.32.09-.49.08l.02.02c-.01-.06-.03-.12-.03-.18,0-.19-.33-.21-.27-.32.09-.17.32-.09.5-.07l-.02-.02Z"/>
      <path class="cls-1" d="M73.85,4.4c-.1-.35-.7-.35-.42-.88.09.31.68.26.42.88Z"/>
      <path class="cls-1" d="M62.55,14.44c-.09.37-.29.37-.76,0v.02c.25-.24.51-.25.78,0l-.02-.02Z"/>
      <path class="cls-1" d="M63.33,15.79c-.28-.06-.38-.3-.55-.48.25-.17.46-.09.68-.08-.06.22-.1.4-.14.58v-.02Z"/>
      <path class="cls-1" d="M97.88,55.55c.35.15.42.36.29.63-.02.04-.12.08-.15.07-.31-.15-.18-.4-.14-.7Z"/>
      <path class="cls-1" d="M63.91,18.49c-.12.28-.33.27-.52.11-.12-.11-.11-.32,0-.42.15-.14.27-.03.34.14.03.08.12.13.18.2v-.02Z"/>
      <path class="cls-1" d="M68.14,61.66c0,.16.05.35-.02.47-.11.2-.36.19-.49.04-.13-.15,0-.28.19-.33.12-.04.23-.1.34-.16l-.02-.02Z"/>
      <path class="cls-1" d="M93.05,33.27c0-.24.05-.29.12-.24.19.13.4-.23.58.02.03.04.05.15.02.17-.24.21-.48.16-.71.05Z"/>
      <path class="cls-1" d="M82.28,40.4c-.1-.21-.1-.42.02-.68.32.25.79.46-.02.68Z"/>
      <path class="cls-1" d="M90.55,33.12c0,.8-.41.39-.77.34.23-.23.56-.11.77-.34Z"/>
      <path class="cls-1" d="M74.52,55.32c0-.12-.05-.25.05-.35.12-.12.25-.35.44-.16.19.19-.03.32-.16.44-.1.1-.23.06-.35.05l.02.02Z"/>
      <path class="cls-1" d="M95.14,42.39c-.14.34-.22.35-.97.15.35-.25.68-.14.99-.14l-.02-.02Z"/>
      <path class="cls-1" d="M83.37,17.15c-.37.29-.6.17-.8-.25.35-.08.53.27.8.25Z"/>
      <path class="cls-1" d="M77.78,42.94c-.01.47.18.93-.51.77.07-.29.3-.44.51-.77Z"/>
      <path class="cls-1" d="M68.77,39.57c.29.07.45.29.76.51-.46-.02-.92.19-.76-.51Z"/>
      <path class="cls-1" d="M78.69,15.31s-.22-.05-.33,0c-.23.12-.34-.1-.36-.27-.03-.18.1-.13.24-.11.16.02.37-.17.45.38Z"/>
      <path class="cls-1" d="M79.7,43.81c-.32.04-.39-.32-.67-.26-.02-.18.08-.18.16-.21.55-.27.35.3.51.47Z"/>
      <path class="cls-1" d="M76.43,43.35c.01.12.05.25-.05.36-.1.11-.19.27-.37.2-.2-.07.02-.2-.03-.3-.15-.35.14-.24.28-.26.06-.01.12.01.19.02l-.02-.02Z"/>
      <path class="cls-1" d="M83.76,64.47c-.01-.13.01-.26.16-.28.22-.02.34.13.4.31.05.15-.04.23-.2.16-.12-.06-.4.18-.37-.19Z"/>
      <path class="cls-1" d="M66.8,5c-.52-.31,0-.58.04-.87,0,0,.12-.02.15,0,.06.06.15.18.13.21-.13.21-.34.38-.34.66h.02Z"/>
      <path class="cls-1" d="M80.97,17.44c.23.48.06.71-.46.78-.02-.38.48-.45.46-.78Z"/>
      <path class="cls-1" d="M62.95,20.8c-.08-.04-.17-.08-.25-.12-.13-.07-.33-.06-.31-.29,0-.12.11-.15.2-.16.22-.03.38.04.37.3,0,.1-.01.19-.02.29,0,0,.02-.02.02-.02Z"/>
      <path class="cls-1" d="M63.5,19.6c.09.09.17.17.26.26-.16.25.31.43.03.74-.18-.33-.65-.52-.28-1Z"/>
      <path class="cls-1" d="M80.81,14.89c-.04.18-.23.19-.35.24-.24.1-.17-.18-.25-.28-.11-.14,0-.2.14-.22.22-.03.35.09.46.26Z"/>
      <path class="cls-1" d="M83.02,20.35c.35.04.49.32.78.58-.56.1-.65-.27-.78-.58Z"/>
      <path class="cls-1" d="M68.11,4.14c.35-.13.71-.15,1.2-.03-.47.2-.83.12-1.2.03Z"/>
      <path class="cls-1" d="M84.34,52.61c0,.18-.14.31-.27.33-.11.02-.3-.1-.23-.29.05-.14.15-.25.23-.38.12.09.26.16.27.34Z"/>
      <path class="cls-1" d="M75.83,35.58c.12-.34.21-.58.31-.88.12.39.47.78-.31.88Z"/>
      <path class="cls-1" d="M73.98,67.39c.12-.28.32-.43.54-.54.06.09.12.15.11.18-.11.25-.18.59-.65.36Z"/>
      <path class="cls-1" d="M77.22,67.47c.2-.38.43-.25.66-.03.09.09.16.2.05.32-.12.14-.28.06-.3-.03-.06-.24-.24-.26-.42-.29l.02.02Z"/>
      <path class="cls-1" d="M75.72,4.13c.05.02.14.05.14.06-.01.26.56.16.32.54-.02.04-.12.08-.16.06-.3-.12-.44-.32-.3-.66Z"/>
      <path class="cls-1" d="M68.14,5.38c.1-.26-.36-.49-.07-.71.05-.04.26.06.31.14.16.25-.09.39-.25.57Z"/>
      <path class="cls-1" d="M72.14,26.93c.07.37.18.62-.07.79-.11.08-.26-.02-.3-.13-.16-.38.35-.28.38-.66Z"/>
      <path class="cls-1" d="M75.45,51.32c-.25-.14-.76.17-.74-.58.25.28.6.25.74.58Z"/>
      <path class="cls-1" d="M75.71,38.85c.2-.32.4-.42.66-.24.04.03.07.13.05.16-.19.25-.43.16-.71.08Z"/>
      <path class="cls-1" d="M74.51,50.73c-.3.16-.38.39-.49.82-.07-.51-.57-.99.49-.82Z"/>
      <path class="cls-1" d="M70.13,61.37c-.37.15-.59.4-.78.05-.05-.09-.07-.2.02-.25.29-.18.43.16.76.21Z"/>
      <path class="cls-1" d="M83.43,19.09c-.18-.04-.33-.11-.45-.25.03-.16-.01-.38.29-.22.23.12.48.18.16.47Z"/>
      <path class="cls-1" d="M71.62,68.62c.12-.36.35-.48.72-.32-.17.29-.31.63-.74.31v.02Z"/>
      <path class="cls-1" d="M71.16,24.32c-.09.29-.09.6-.49.54-.19-.03-.19-.17.04-.28.16-.07.12-.38.45-.26Z"/>
      <path class="cls-1" d="M80.58,68.49c.6-.13.8,0,.86.34,0,.04-.06.13-.1.14-.38.07-.27-.46-.76-.48Z"/>
      <path class="cls-1" d="M69.95,50.83c-.14-.29-.01-.6-.19-.86q.45.33.19.86Z"/>
      <path class="cls-1" d="M72.58,69.2c.26.1.5.23.5.55,0,.05-.17.17-.21.15-.34-.14-.3-.43-.27-.72l-.02.02Z"/>
      <path class="cls-1" d="M80.43,49.45c.09.49.1.81.02,1.18-.45-.38-.18-.69-.02-1.18Z"/>
      <path class="cls-1" d="M72.36,71.86c-.22-.29-.2-.57-.11-.93.46.35.04.67.11.93Z"/>
      <path class="cls-1" d="M73.25,49.22c.43.35.52.62.21,1-.18-.28-.15-.57-.21-1Z"/>
      <path class="cls-1" d="M78.96,47.77c-.4-.04-.67-.07-.76-.39-.01-.04.05-.14.09-.14.35-.04.46.25.68.53Z"/>
      <path class="cls-1" d="M67.98,71.85c-.08.08-.16.08-.24,0-.09-.23-.35-.06-.47-.21q.47-.28.71.21Z"/>
      <path class="cls-1" d="M85.04,25.97c-.34-.02-.57-.11-.45-.48.02-.07.17-.18.19-.17.26.15.09.45.26.65Z"/>
      <path class="cls-1" d="M76.96,72.26q.11-.67.63-.45c-.38-.02-.26.51-.63.45Z"/>
      <path class="cls-1" d="M69.14,58.66c.41.05.61.26.68.61-.31.21-.29-.12-.41-.21-.11-.09-.32-.09-.27-.39Z"/>
      <path class="cls-1" d="M76.66,48.74c.27-.24.56-.2.92-.13-.3.5-.67-.03-.92.13Z"/>
      <path class="cls-1" d="M97.12,59.22c.35.11.37.4.49.75-.47-.14-.65-.33-.49-.75Z"/>
      <path class="cls-1" d="M68.94,48.77c-.04-.19-.38-.33-.1-.56.1-.08.24-.01.32.1.21.3-.03.36-.24.44l.02.02Z"/>
      <path class="cls-1" d="M86.41,48.48c-.27-.06-.55-.11-.97-.2.45-.15.74-.17,1-.02-.01.07-.02.15-.03.22Z"/>
      <path class="cls-1" d="M80.12,48.69c-.28-.03-.38-.15-.4-.3-.02-.14-.07-.35.13-.38.37-.07.03.26.17.36.06.04.05.16.1.32Z"/>
      <path class="cls-1" d="M70.26,71.7c.24.09.46.27.75.08q-.5.42-.74-.09l-.02.02Z"/>
      <path class="cls-1" d="M66.37,6.17c.09-.09.17-.17.26-.26.23.02.43.1.5.36-.28.09-.54.18-.76-.11Z"/>
      <path class="cls-1" d="M71.72,31.26c-.05.23-.24.14-.36.18-.09.03-.21.2-.3.01-.04-.08-.04-.2,0-.28.08-.19.19-.03.29,0,.12.03.24.06.37.09Z"/>
      <path class="cls-1" d="M79.07,18.69c-.14,0-.28-.02-.3-.18-.02-.18.12-.2.25-.21.13,0,.26,0,.28.17.02.18-.12.19-.23.21Z"/>
      <path class="cls-1" d="M74.6,71.11c.1.12.26.25.24.29-.07.15-.06.39-.26.41-.07,0-.19-.24-.21-.38-.01-.08.13-.19.23-.32Z"/>
      <path class="cls-1" d="M69.32,73.25c0-.1-.03-.19-.02-.29.02-.17-.08-.4.18-.47.05-.01.14.02.17.06.12.21-.11.34-.14.51-.02.1-.1.16-.2.17l.02.02Z"/>
      <path class="cls-1" d="M76.82,49.34c.63-.01.34.4.38.77-.24-.29-.44-.48-.36-.79l-.02.02Z"/>
      <path class="cls-1" d="M69.32,25.42c-.06,0-.13.02-.19.01-.24-.06-.41-.18-.37-.46,0-.04.09-.1.14-.1.27-.02.21.27.34.39.04.04.04.11.06.17l.02-.02Z"/>
      <path class="cls-1" d="M89.36,35.69c.43.3.56.51.36.95-.23-.29-.24-.53-.36-.95Z"/>
      <path class="cls-1" d="M73.1,25.86c.14.38.03.57-.24.68-.18-.31-.09-.53.24-.68Z"/>
      <path class="cls-1" d="M70.13,26.1c.17.12.49-.01.51.33,0,.05-.06.14-.1.14-.31.02-.4-.18-.41-.47Z"/>
      <path class="cls-1" d="M77.04,46.61c.28-.02.55,0,.7.34-.34.1-.53-.11-.7-.34Z"/>
      <path class="cls-1" d="M72.59,69.18c-.2-.06-.41.28-.55.04-.11-.18.12-.36.29-.39.28-.05.26.18.24.37l.02-.02Z"/>
      <path class="cls-1" d="M71.44,37.59c-.02-.59.24-.63.71-.3-.26.1-.5.19-.73.28l.02.02Z"/>
      <path class="cls-1" d="M93.77,61.12c.16-.03.26-.29.48-.11.07.06.23-.15.28.06.04.16-.07.23-.21.23-.2,0-.45.11-.54-.19v.02Z"/>
      <path class="cls-1" d="M73.64,38.98c.26-.03.11-.36.29-.42.14-.04.2.09.21.23.02.24-.08.35-.32.33-.08,0-.2,0-.17-.14Z"/>
      <path class="cls-1" d="M71.22,74.77c.03.31.02.63.11.94q-.33-.41-.09-.93h-.02Z"/>
      <path class="cls-1" d="M82.15,45.74c.09.26.18.5-.09.68-.03.02-.15-.01-.16-.05-.14-.29.12-.43.25-.63Z"/>
      <path class="cls-1" d="M79.74,38.55c.41.22.44.45.22.89-.16-.34-.22-.56-.22-.89Z"/>
      <path class="cls-1" d="M70.67,75.34c-.19.1-.38.26-.54-.03-.07-.13-.06-.29.07-.32.26-.05.39.13.46.36v-.02Z"/>
      <path class="cls-1" d="M69,75.9c-.32-.1-.39-.3-.36-.54,0-.04.11-.11.14-.1.29.13.08.45.22.65Z"/>
      <path class="cls-1" d="M85.29,51.55c.39-.15.64-.09.88-.08.03.18-.05.32-.17.31-.2-.02-.4-.12-.71-.23Z"/>
      <path class="cls-1" d="M68.54,52.38c.19-.23.27-.52.58-.44.05.01.12.13.11.14-.15.17-.32.33-.69.3Z"/>
      <path class="cls-1" d="M87.12,67.03c-.09-.23-.17-.46.05-.64.01-.01.16.08.2.16.15.28-.06.37-.25.49Z"/>
      <path class="cls-1" d="M84.54,66.1c-.32.08-.49-.17-.88-.36.48,0,.9-.25.87.38l.02-.02Z"/>
      <path class="cls-1" d="M65.44,4.81c.18-.01.43-.1.5.09.04.1-.04.42-.25.45-.37.06-.02-.3-.19-.39-.04-.02-.04-.11-.05-.17l-.02.02Z"/>
      <path class="cls-1" d="M71,45.71c-.17-.31-.45-.47-.15-.72.06-.05.23-.09.24-.07.12.23-.08.43-.09.79Z"/>
      <path class="cls-1" d="M88.99,64.83c.22-.01.17.15.17.24,0,.17-.08.31-.28.23-.1-.04-.17-.16-.26-.24.12-.08.25-.16.36-.23Z"/>
      <path class="cls-1" d="M68.05,75.56c0,.42.08.65-.09.9q-.16-.35.09-.9Z"/>
      <path class="cls-1" d="M66.63,76.95c0-.16,0-.32,0-.48.45-.02.67.17.55.64l.02-.02c-.22.07-.26-.55-.56-.14Z"/>
      <path class="cls-1" d="M74.7,53.21c.17-.04.31-.33.46-.15.14.17-.03.44-.21.49-.27.07-.25-.17-.24-.36l-.02.02Z"/>
      <path class="cls-1" d="M77.6,44.26c-.02.11-.04.26-.22.23-.16-.02-.18-.16-.17-.28,0-.13.03-.27.21-.25.16.02.17.16.18.3Z"/>
      <path class="cls-1" d="M73.1,33.97c.32-.04.72-.21.61.49-.2-.25-.41-.35-.61-.49Z"/>
      <path class="cls-1" d="M72.05,5.6c-.34-.13-.35-.42-.47-.77.26.07.39.16.43.35.03.12.19.25.04.42Z"/>
      <path class="cls-1" d="M79.94,53.75c-.12.38-.21.65-.33,1.01-.14-.44-.18-.74.33-1.01Z"/>
      <path class="cls-1" d="M81.83,53.83c-.2.24-.31.52-.82.5.28-.29.37-.59.82-.5Z"/>
      <path class="cls-1" d="M88.53,28.14c.15-.02.21.05.23.14.03.19-.11.31-.25.36-.11.04-.25-.09-.25-.21,0-.17.15-.25.27-.29Z"/>
      <path class="cls-1" d="M78.41,43.38c-.09-.09-.17-.17-.26-.26.17-.22.42-.25.55-.05.15.24-.1.29-.29.31Z"/>
      <path class="cls-1" d="M82.3,54.69c-.1-.19-.2-.37-.31-.58q.56.09.31.58Z"/>
      <path class="cls-1" d="M74.41,8.41c.13-.04.31-.17.28.12-.01.15-.15.29-.3.27-.09-.01-.22-.15-.24-.25-.05-.25.1-.23.26-.14Z"/>
      <path class="cls-1" d="M92.43,63.77c.3-.22.49-.37.76-.57-.02.52-.24.65-.76.57Z"/>
      <path class="cls-1" d="M67.2,1.13c-.2.19-.4.2-.6,0l.02.02c.05-.23.17-.41.42-.38.2.03.15.22.14.37l.02-.02Z"/>
      <path class="cls-1" d="M73.55,29.29c.24-.39.38-.1.53.07.06.07.07.19-.03.25-.39.23-.27-.34-.52-.34v.02Z"/>
      <path class="cls-1" d="M97.67,55c-.23,0-.43.12-.6-.07-.04-.05,0-.26.02-.26.23-.03.46,0,.58.33Z"/>
      <path class="cls-1" d="M77.25,42.67c.24-.34.48-.1.9-.22-.39.43-.62.39-.9.22Z"/>
      <path class="cls-1" d="M76.05,33.44c-.12.1-.2.21-.3.25-.2.08-.28-.06-.27-.23,0-.09-.06-.29.15-.23.14.04.26.13.42.21Z"/>
      <path class="cls-1" d="M76.23,29.74c-.09.16-.18.33-.4.3-.09,0-.17-.08-.15-.19.04-.24.29-.2.43-.29.07-.04.13.07.12.19Z"/>
      <path class="cls-1" d="M72.97,43.17c-.06.19-.24.26-.33.1-.14-.24-.12-.52,0-.79.28.16,0,.58.33.7v-.02Z"/>
      <path class="cls-1" d="M72.84,39.18c-.38.14-.62.23-.92.34.11-.58.46-.4.92-.34Z"/>
      <path class="cls-1" d="M70.18,30.66c-.27-.62.15-.6.43-.8.08.46-.39.43-.43.8Z"/>
      <path class="cls-1" d="M70.35,56.38c.11.23.48.21.49.51-.05.03-.11.1-.14.09-.31-.16-.31-.17-.36-.59Z"/>
      <path class="cls-1" d="M81.28,45.9c-.29.2-.5.35-.82.57.09-.52.29-.65.82-.57Z"/>
      <path class="cls-1" d="M91.22,60.43c.08.24.17.48.28.79-.28-.04-.39-.14-.41-.33-.02-.15,0-.3,0-.45.05,0,.09,0,.14-.01Z"/>
      <path class="cls-1" d="M77.01,8.12c-.03.18-.19.16-.34.15-.17-.01-.21-.12-.1-.23.08-.09,0-.36.25-.25.11.05.19.15.19.32Z"/>
      <path class="cls-1" d="M74.85,8.01c.27-.19.56-.15.86-.02-.27.15-.56.11-.86.02Z"/>
      <path class="cls-1" d="M70.23,60.6c-.37.32-.61.34-.63-.24.27-.08.41.17.63.24Z"/>
      <path class="cls-1" d="M73.18,32.39s-.07-.11-.11-.14c-.14-.09-.4-.11-.23-.38.06-.09.17-.09.25-.03.18.15.47.3.07.53h.02Z"/>
      <path class="cls-1" d="M70.98,40.71c-.02.11-.09.16-.18.13-.18-.07-.33-.18-.32-.4,0-.09.08-.16.19-.15.25.04.17.31.3.42Z"/>
      <path class="cls-1" d="M63.72,58.39c-.14.28-.38.34-.69.39.09-.49.42-.39.7-.37l-.02-.02Z"/>
      <path class="cls-1" d="M91.03,59.38c-.12.23-.26.19-.37.2-.1.01-.21.22-.29.03-.1-.22.09-.25.25-.26.12,0,.24.01.42.02Z"/>
      <path class="cls-1" d="M84.36,19.27c-.11-.1-.29-.19-.3-.3-.01-.14.19-.12.29-.09.16.05.38.1.26.35-.02.04-.17.02-.26.02l.02.02Z"/>
      <path class="cls-1" d="M92.82,58.09c0-.09.02-.21.12-.19.16.04.28.16.25.35-.02.1-.1.16-.21.13-.16-.04-.17-.16-.16-.29Z"/>
      <path class="cls-1" d="M66.23,60.51c-.23-.06-.43-.17-.66-.37q.49,0,.64.39l.02-.02Z"/>
      <path class="cls-1" d="M77.2,32c-.03.09-.06.18-.18.17-.18-.02-.26-.15-.32-.3.09-.03.18-.08.26-.08.13,0,.25.04.24.2Z"/>
      <path class="cls-1" d="M76.12,32.9c-.07-.29-.21-.56.24-.8-.02.34-.08.56-.24.8Z"/>
      <path class="cls-1" d="M92.62,33.1c.02.16-.07.2-.16.21-.18.02-.22-.12-.2-.24,0-.08-.07-.3.16-.22.12.04.21.14.21.25Z"/>
      <path class="cls-1" d="M92.83,38.94c.14,0,.24.09.28.21.07.23-.14.15-.22.16-.12.01-.26-.03-.24-.21.01-.09.05-.18.18-.17Z"/>
      <path class="cls-1" d="M67.07,62.06c-.09,0-.21-.02-.18-.12.04-.16.16-.28.35-.25.09.02.16.1.13.21-.04.15-.16.17-.29.16Z"/>
      <path class="cls-1" d="M59.66,32.94c-.11.21-.11.49-.39.58h.02c-.29-.45-.06-.58.38-.56v-.02Z"/>
      <path class="cls-1" d="M68.31,62.51c-.21.17-.39.32-.7.31.16-.41.39-.43.7-.31Z"/>
      <path class="cls-1" d="M71.81,2.49c.16.08.32.16.5.24q-.58.15-.48-.26l-.02.02Z"/>
      <path class="cls-1" d="M66.6,62.65c.48-.12.38.29.64.58-.55-.04-.47-.42-.63-.59l-.02.02Z"/>
      <path class="cls-1" d="M77.78,54.95c.1-.11.2-.21.34-.35.09.24.17.48-.04.63-.1.07-.25-.13-.28-.29v.02Z"/>
      <path class="cls-1" d="M77.78,33.67c.01.1-.03.2-.12.22-.13.03-.25-.03-.25-.19,0-.11-.05-.27.12-.28.13,0,.2.13.26.25Z"/>
      <path class="cls-1" d="M70.39,54.62c-.02.11-.11.11-.2.12-.13,0-.26,0-.29-.16-.03-.17.09-.24.22-.21.12.02.22.12.26.26Z"/>
      <path class="cls-1" d="M66.47,54c-.03.23.02.48-.18.67-.07-.27-.2-.53.18-.67Z"/>
      <path class="cls-1" d="M84.29,18.61c.23-.17.46-.17.77-.04-.29.19-.53.1-.77.04Z"/>
      <path class="cls-1" d="M78.05,6.61c.11.02.12.11.12.2,0,.13,0,.26-.16.29-.17.03-.23-.09-.21-.22.02-.12.12-.22.25-.26Z"/>
      <path class="cls-1" d="M73.56,28.53c-.08-.31.14-.5.3-.73.19.39.03.6-.31.72l.02.02Z"/>
      <path class="cls-1" d="M77.59,34.86c-.09-.03-.18-.06-.17-.18.02-.18.15-.26.3-.32.03.09.08.18.08.26,0,.13-.04.25-.2.24Z"/>
      <path class="cls-1" d="M75.02,9.2c-.13-.02-.24-.11-.26-.22-.02-.13.1-.24.21-.26.13-.02.24.1.26.21.02.13-.11.2-.21.27Z"/>
      <path class="cls-1" d="M71.98,4.6c-.16-.02-.18-.15-.18-.27,0-.12-.01-.27.16-.28.29,0,.07.2.11.3.06.13.08.22-.1.25Z"/>
      <path class="cls-1" d="M84.53,66.12c.13,0,.24-.28.37-.05.08.13.07.36-.11.4-.28.06-.27-.17-.25-.37l-.02.02Z"/>
      <path class="cls-1" d="M86.45,66.73c-.17.18-.07.47-.4.51-.03,0-.07-.07-.11-.11.15-.12.04-.49.51-.4Z"/>
      <path class="cls-1" d="M77.69,9.19c-.21.06-.42.11-.71.19.17-.48.46-.32.71-.19Z"/>
      <path class="cls-1" d="M73.7,51.6c-.3.07-.54.14-.54-.22,0-.15.02-.36.22-.09.07.1.17.17.33.31Z"/>
      <path class="cls-1" d="M73.66,68.3c-.45-.24-.31-.5-.24-.8.16.25.22.47.24.8Z"/>
      <path class="cls-1" d="M77.2,67.45c.03.17.3.26.17.49-.28-.02-.47-.13-.41-.45,0-.02.17-.01.26-.02l-.02-.02Z"/>
      <path class="cls-1" d="M83.26,16.3c.04.09.12.24-.07.24-.21,0-.2-.18-.2-.34,0-.14.08-.24.23-.2.22.06.02.19.04.3Z"/>
      <path class="cls-1" d="M81.57,50.69c.11.29.17.54,0,.67-.08.06-.35-.1-.18-.35.05-.07.09-.15.19-.32Z"/>
      <path class="cls-1" d="M79.21,50.61c.18-.18.43-.14.63-.24.09.11.08.21,0,.26-.2.11-.41.1-.62-.02Z"/>
      <path class="cls-1" d="M68.27,50.33c.14.34-.12.45-.19.64-.04-.03-.1-.05-.11-.08-.06-.25.05-.43.31-.56Z"/>
      <path class="cls-1" d="M82.84,69.4c-.15.21-.22.34-.35.32-.11-.02-.24-.13-.21-.26.02-.11.13-.23.26-.21.11.02.21.11.3.16Z"/>
      <path class="cls-1" d="M100.26,50.03c-.12.17-.31.08-.48.07-.09,0-.17-.12-.07-.16.13-.05.24-.22.4-.15.08.03.16.1.15.24Z"/>
      <path class="cls-1" d="M71.86,70.03c.21.06.42.11.75.2-.36.16-.58.17-.78.02.01-.07.02-.15.03-.22Z"/>
      <path class="cls-1" d="M81.58,14.44c.08,0,.2.01.24.16.03.11-.04.19-.13.21-.19.04-.31-.09-.35-.25-.03-.1.1-.12.24-.13Z"/>
      <path class="cls-1" d="M70.28,70.94c-.03-.32-.11-.67.56-.56-.23.22-.41.38-.58.54l.02.02Z"/>
      <path class="cls-1" d="M75.66,6.14s.14.01.18.17c.03.11-.04.19-.13.21-.19.04-.31-.09-.35-.25-.03-.1.1-.12.3-.13Z"/>
      <path class="cls-1" d="M69.11,5.97c.19-.02.43-.04.37.24-.03.18-.26.18-.39.11-.23-.13.06-.24.04-.37l-.02.02Z"/>
      <path class="cls-1" d="M70.39,37.08c-.02.11-.11.11-.2.12-.13,0-.26,0-.29-.16-.03-.17.09-.24.22-.21.12.02.22.12.26.26Z"/>
      <path class="cls-1" d="M75.25,36.87c-.32.22-.58.14-.9.07.32-.22.58-.14.9-.07Z"/>
      <path class="cls-1" d="M80.05,49.32c-.19.01-.31.03-.43.02-.16-.01-.34-.04-.24-.26.09-.19.19.03.29.04.11.01.26-.02.38.2Z"/>
      <path class="cls-1" d="M76.84,49.32c-.26.01-.54.1-.83-.12q.41-.09.81.14l.02-.02Z"/>
      <path class="cls-1" d="M76.06,12.32c-.7-.14-.02-.45-.13-.67.21.21.13.45.11.69v-.02Z"/>
      <path class="cls-1" d="M71.43,47.99c.19.02.3.15.33.28.02.06-.15.16-.23.25-.07-.12-.15-.25-.22-.37-.07-.14.07-.12.12-.15Z"/>
      <path class="cls-1" d="M90.12,31.39c-.14,0-.24-.09-.28-.21-.07-.23.14-.15.22-.16.12-.01.26.03.24.21-.01.09-.05.18-.19.17Z"/>
      <path class="cls-1" d="M94.61,37.9c-.06-.06-.17-.12-.17-.19,0-.21.14-.31.33-.31.08,0,.18.07.08.17-.09.1-.04.3-.24.33Z"/>
      <path class="cls-1" d="M76.26,46.92c-.02.31-.03.43-.14.4-.16-.04-.28-.16-.25-.35.02-.1.1-.16.21-.13.16.04.17.16.17.08Z"/>
      <path class="cls-1" d="M70.32,1.6c.21.06.42.11.75.2-.36.16-.58.17-.78.02.01-.07.02-.15.03-.22Z"/>
      <path class="cls-1" d="M76.04,12.34c.21-.06.29-.32.53-.34q-.16.45-.52.32v.02Z"/>
      <path class="cls-1" d="M74.89,37.96c-.05.19-.17.2-.3.19-.09,0-.21-.02-.19-.12.04-.16.16-.28.35-.25.1.02.16.1.14.18Z"/>
      <path class="cls-1" d="M77.76,5.81c-.18.14-.32.36-.53.18-.05-.04-.04-.21,0-.26.25-.28.3.25.53.08Z"/>
      <path class="cls-1" d="M97,38.31c-.1.08-.14.24-.29.15-.13-.08-.25-.19-.2-.36.04-.12.14-.09.2-.02.08.09.32.02.29.24Z"/>
      <path class="cls-1" d="M72.13,73.32s.04.04.05.06c.05.18.07.37-.03.54,0,.01-.17-.03-.22-.09-.19-.26.19-.31.2-.51Z"/>
      <path class="cls-1" d="M92.01,38.89c-.18-.19-.32-.33-.47-.49.41-.13.59-.03.47.49Z"/>
      <path class="cls-1" d="M72.79,25.18c-.01-.19-.03-.31-.02-.43.01-.16.04-.34.26-.24.19.09-.03.19-.04.29-.01.11.02.26-.2.38Z"/>
      <path class="cls-1" d="M75.13,46.08c.19.2.32.37.34.6-.52.04-.38-.27-.34-.6Z"/>
      <path class="cls-1" d="M78.82,12.26c.15-.15.28-.33.52-.21.06.03.07.15.11.23-.21.09-.41.1-.63-.02Z"/>
      <path class="cls-1" d="M75.73,46.23c-.03-.13-.07-.22-.07-.3,0-.12.04-.24.06-.36.05.01.12.01.16.04.19.11.11.25.02.38-.05.07-.1.14-.17.25Z"/>
      <path class="cls-1" d="M65.27.76V.2c.21.19.35.33.5.47-.16.14-.35.09-.52.07l.02.02Z"/>
      <path class="cls-1" d="M63.32,15.81s.06-.03.08-.04c.15-.07.27-.29.46-.09.07.07.07.18-.02.23-.2.11-.4.15-.51-.13,0,0-.01.02-.01.02Z"/>
      <path class="cls-1" d="M78.62,13.14c-.04.08-.16.17-.33.11-.05-.02-.11-.18-.08-.24.06-.13.2-.15.32-.11.07.02.22,0,.09.24Z"/>
      <path class="cls-1" d="M75.85,39.66c.02.16-.07.2-.16.21-.18.02-.22-.12-.2-.24,0-.08-.07-.3.16-.22.12.04.21.14.21.25Z"/>
      <path class="cls-1" d="M76.62,39.3s0,.06.01.1c.02.23-.1.36-.3.42-.01,0-.07-.09-.08-.14-.05-.31.11-.41.39-.35l-.02-.02Z"/>
      <path class="cls-1" d="M66.6,1.13c.01.19.05.42-.25.37-.1-.02-.26-.23-.24-.25.13-.18.33-.11.51-.1l-.02-.02Z"/>
      <path class="cls-1" d="M75.62,45.04c-.21-.19-.16-.45-.26-.63.11-.09.21-.08.26,0,.12.2.07.41,0,.63Z"/>
      <path class="cls-1" d="M83.29,18.12c-.07-.03-.15-.06-.24-.09.06-.15.14-.28.33-.3.12-.01.17.08.18.17.02.18-.12.19-.27.22Z"/>
      <path class="cls-1" d="M76.79,44.14c.19.01.18.1.12.24-.05.1.18.3-.11.31-.12,0-.15-.09-.16-.18-.01-.15-.04-.31.15-.37Z"/>
      <path class="cls-1" d="M81.23,22.99c.34-.08.62-.19.7.04.06.16-.14.32-.37.15-.07-.05-.15-.09-.33-.19Z"/>
      <path class="cls-1" d="M69.11,44.15c.13,0,.24-.28.37-.05.08.13.07.36-.11.4-.28.06-.27-.17-.25-.37l-.02.02Z"/>
      <path class="cls-1" d="M65.44,77.88c.19-.01.42-.05.37.25-.02.1-.23.26-.25.24-.18-.13-.11-.33-.1-.51l-.02.02Z"/>
      <path class="cls-1" d="M98.21,43.75c-.03.1-.06.18-.18.17-.19-.02-.26-.15-.33-.3.09-.03.18-.08.26-.08.13,0,.25.03.25.2Z"/>
      <path class="cls-1" d="M78.44,14.4c-.07-.29-.2-.55.23-.8-.01.34-.07.56-.23.8Z"/>
      <path class="cls-1" d="M95.93,39.65c-.01-.06-.08.02-.17.03-.19.03-.31-.09-.34-.25-.02-.11.1-.11.19-.12.13,0,.25,0,.32.34Z"/>
      <path class="cls-1" d="M81.85,39.79c-.03.07-.06.15-.09.24-.15-.06-.28-.14-.3-.33-.01-.13.08-.17.17-.18.18-.02.19.12.22.27Z"/>
      <path class="cls-1" d="M73.15,39.9c-.06.26-.24,0-.36.08-.14.09-.23,0-.18-.15.04-.15.18-.13.3-.13.14,0,.23.06.24.21Z"/>
      <path class="cls-1" d="M83.22,14.76c.1.05.19.18.13.35-.02.05-.18.11-.24.08-.12-.06-.15-.2-.11-.33.02-.07,0-.22.22-.1Z"/>
      <path class="cls-1" d="M81.85,42.6c-.02-.13.08-.18.17-.19.17-.02.22.12.2.24,0,.08.07.3-.16.22-.12-.04-.2-.14-.21-.28Z"/>
      <path class="cls-1" d="M93.39,42.58c.02.13-.08.18-.17.19-.17.02-.22-.12-.2-.24,0-.08-.07-.3.16-.22.12.04.2.14.21.28Z"/>
      <path class="cls-1" d="M78.75,42.14c-.13.36-.29.49-.51.61-.14-.38.11-.46.51-.61Z"/>
      <path class="cls-1" d="M71.9,23.09c-.37-.4-.31-.62-.21-.88.14.23.23.45.21.88Z"/>
      <path class="cls-1" d="M95.15,42.4c-.03-.16-.32-.31-.03-.47.32-.17.28.2.31.29.07.27-.17.13-.29.16l.02.02Z"/>
      <path class="cls-1" d="M80.24,14.45s-.1-.06-.12-.15c-.04-.19.09-.31.25-.35.11-.03.12.1.12.19,0,.13,0,.25-.25.31Z"/>
      <path class="cls-1" d="M69.12,5.95c-.68-.12-.03-.45-.14-.65.23.2.13.44.13.67l.02-.02Z"/>
      <path class="cls-1" d="M85.01,19.83c.2.39.09.58-.19.74-.24-.33.15-.44.19-.74Z"/>
      <path class="cls-1" d="M83.47,21.3c.15.05.11.18.11.28,0,.14.03.38-.18.35-.37-.05.02-.26-.03-.4-.03-.06-.01-.19.1-.23Z"/>
      <path class="cls-1" d="M97.84,40.12c-.19.2-.08.48-.41.53-.03,0-.07-.07-.11-.11.15-.12.06-.48.52-.42Z"/>
      <path class="cls-1" d="M81.07,21.45s-.06.09-.15.11c-.19.04-.31-.09-.35-.25-.03-.11.1-.12.19-.12.13,0,.25,0,.31.26Z"/>
      <path class="cls-1" d="M62.1,21.12c-.04.13-.14.23-.26.25-.14.02-.25-.05-.22-.21.03-.16.16-.17.29-.16.09,0,.18,0,.19.13Z"/>
      <path class="cls-1" d="M73.54,40.71c-.05.12-.13.25-.26.25-.17,0-.12-.17-.12-.28,0-.17.12-.22.25-.19.09.02.14.12.13.22Z"/>
      <path class="cls-1" d="M96.05,41.04c-.18-.24-.29-.39-.4-.54.06-.01.12-.04.18-.04.36.01.3.24.22.58Z"/>
      <path class="cls-1" d="M98.78,46.18c-.34.12-.49-.12-.69-.24.32-.18.52-.07.69.24Z"/>
      <path class="cls-1" d="M75.96,34.09c.15.03.29.04.27.22-.01.09-.05.18-.18.17-.18-.02-.26-.15-.33-.3.09-.03.17-.07.24-.09Z"/>
      <path class="cls-1" d="M60.08,1.98c-.3.22-.59.14-.88.1-.08-.24.19-.39.11-.67.11.42.63.15.77.57Z"/>
      <path class="cls-1" d="M60.84,1.51s-.11.07-.14.11c-.09.14-.11.4-.38.23-.09-.06-.09-.17-.03-.25.15-.18.3-.47.53-.07v-.02Z"/>
      <path class="cls-1" d="M60.44,24.67c.17-.16.33-.32.5-.48q-.01.42-.51.46l.02.02Z"/>
      <path class="cls-1" d="M61.61,23.3c-.33.09-.63-.08-.95-.12q.39-.58.94.14l.02-.02Z"/>
    </g>
  </g>
</svg>