<?xml version="1.0" encoding="UTF-8"?>
<svg id="Layer_2" data-name="Layer 2" xmlns="http://www.w3.org/2000/svg" viewBox="0 0 26.24 29.72">
  <defs>
    <style>
      .cls-1 {
        stroke-width: 0px;
      }
    </style>
  </defs>
  <g id="Layer_1-2" data-name="Layer 1">
    <g>
      <path class="cls-1" d="M13.66,7.86s-.05,0-.04.01c.03,0,.04,0,.04-.01Z"/>
      <path class="cls-1" d="M17.2,9.18l-.07-.08s.03.04.07.08Z"/>
      <path class="cls-1" d="M18.49,10.29l.02.02s.02,0,.04,0l-.06-.03Z"/>
      <path class="cls-1" d="M20.07,14.87v.02s.02,0,.03,0l-.03-.03Z"/>
      <path class="cls-1" d="M11.72,7.85h0s.01,0,0,0Z"/>
      <path class="cls-1" d="M6.19,16.38c.01-.13.11.19.11,0-.02.02-.12-.15-.11,0Z"/>
      <path class="cls-1" d="M8.27,9.77h.01s.02-.03.05-.05c-.02.02-.04.02-.06.05Z"/>
      <polygon class="cls-1" points="7.57 10.55 7.6 10.54 7.61 10.51 7.57 10.55"/>
      <path class="cls-1" d="M19.85,16.8c0-.25.26-.38.21-.71l-.04.03c.02-.11.03-.35.07-.33,0-.01-.03-.04,0-.08h.03c0-.09,0-.18-.02-.28.03-.21.11.04.14-.27,0-.12-.07-.33-.09-.29,0,.05-.02.12-.05.12v-.1s-.02,0-.03,0c0,0,0-.01,0-.02,0-.42-.04-.83-.11-1.22h.02s-.02-.02-.02-.02c0-.05-.01-.1-.02-.14.01,0,.02,0,.03.03.02-.12-.05-.09-.03-.2,0-.01,0,0,.01,0l-.05-.1s.05-.03.05.04c0-.21-.14-.3-.1-.39v.02c-.07-.2-.07-.11-.11-.12-.01-.04-.03-.08-.05-.12l.06-.12h-.06s-.02-.09,0-.09c-.07-.09-.02.03-.07-.02,0-.15-.17-.35-.1-.41-.06-.03.03.13-.06.01.07-.08-.09-.15-.11-.28.06.01.09.14.07,0-.11-.03-.09-.24-.17-.32-.02,0-.04,0-.06-.04.03,0,.05.02.06.04,0,0,.02-.01.02-.03-.01-.03-.06,0-.09,0-.05-.06-.12-.19-.2-.29.03,0-.17-.3-.25-.45h.01c-.08.01-.16-.14-.26-.22.03-.02.06-.02.12.03l-.08-.09s-.07-.03-.13-.08h.06c-.11-.13-.26-.21-.38-.38-.03.02,0,.1-.05.12-.02-.02-.05-.05-.08-.07.01,0,.03-.01.06,0-.02-.01-.06-.03-.08-.06l.09.03c-.06-.08-.06,0-.11-.06.03-.03-.02-.06,0-.07.02.01.04.05.07.06-.06-.06-.12-.15-.13-.19,0,.02-.03.04-.08,0-.12-.11-.01-.07-.07-.15-.04,0-.11-.09-.15-.05-.04-.03-.03-.05-.03-.08-.08-.03-.32-.23-.27-.12v.02s0,0,0,0c-.24-.13-.45-.33-.69-.46v-.02c-.14-.06-.32-.15-.44-.16-.04-.02-.09-.08-.06-.09-.12-.04-.13-.04-.29-.12.13.01-.03-.04.13.02-.14-.07-.17-.11-.35-.12.07-.02-.09-.1-.17-.11l.1.07c-.08-.02-.15-.05-.22-.08l.06-.04c-.3-.16-.6-.04-.82-.2-.09.03.17.06.08.09-.15-.03-.29-.14-.34-.15-.2-.06-.2.05-.42.01.03.02.05.08-.12.1-.15-.02-.18-.1-.08-.11.04,0,.05,0,.05.02.05,0,.11-.01.06-.04l-.02.02c-.07-.03-.28-.03-.23-.07-.12.02-.05.03.03.05-.19-.04-.3-.03-.5-.03.03.01.06.03.03.04-.29-.01-.13.05-.32.07-.11-.03.03-.08-.16-.04-.12-.02-.03-.06.02-.08-.18.04-.34.02-.45.02l.09-.03c-.06.02-.1.03-.15.03l.06.03c-.06,0-.11,0-.11-.01-.05.04.06.07-.05.12-.08,0-.22.05-.26,0,.24-.02-.04-.06.16-.1-.04.01-.08.02-.14.02,0,0,0-.01.02-.02-.23,0-.09.09-.32.15.02-.04-.07-.05-.1-.03.09-.02.06.04-.02.09-.15.01-.15.06-.23.08h.09s-.09.04-.19.09c-.02-.02.08-.05.05-.05-.09.09-.27.03-.41.13-.08,0-.03-.05-.1-.05-.16.1-.2.04-.36.15.07.02.07,0-.03.1l.27-.16-.16.15c.09-.04.17-.12.22-.13-.08.07-.07.06-.01.07-.14,0-.21.15-.37.17l-.04-.1c-.23.05-.33.23-.6.36l.09-.03c-.01.06-.15.1-.22.16-.01-.03-.07-.02-.12-.01.02.02-.17.13-.15.2l-.13.04c-.2.13-.16.24-.33.38.02-.08-.07-.03.03-.15-.06.05-.11.09-.1.11-.05.01-.12.18-.2.2-.01.03,0,.07-.06.12-.01,0-.01-.01-.01-.01.01.01-.08.11,0,.09-.23.1-.44.47-.63.58-.09.14-.2.31-.28.43,0-.01-.01-.01,0-.03-.14.16.02.17-.13.34-.11.07.04-.12-.02-.07-.12-.03-.14.25-.27.36v-.04c-.08.09-.08.29-.17.46,0,0,0-.01-.02,0-.01.14-.07.39-.12.58-.02-.07,0-.09-.05-.07-.02.08.08,0,.04.17-.04.04-.11.15-.16.15.01-.05.03-.1.05-.15-.09.06-.06.2-.09.28l-.02-.02c-.05.24.02.26-.05.52l.03-.02c.04.15-.06.11-.03.26l-.08.03c0,.1.01.34.01.51-.05-.1-.04-.3-.05-.43-.01.09-.04.32-.01.37,0-.04-.01-.09,0-.12.03.12.06.27.05.46-.14-.04-.07.49-.15.63.06.33.02.67.1,1.06.09-.16.02.11.13.07.02.08.03.12.03.13,0,0,0,0,0,0h0s0,.28,0,.28c-.02.07-.05-.08-.07-.06.04.2-.03.09-.02.23.03-.04.07.05.09.17v-.17c.13.25,0,.26.14.51l-.06-.07c.07.13.18.51.34.59,0,.03-.01.07-.05.02.13.33.44.64.54.89h-.04s.1.06.13.14c-.01,0-.04,0-.02.02.03.02.14.11.18.19l-.07-.04c.17.3.37.37.58.56-.06.05.09.27.19.37h-.01c.28.28.54.41.85.59.12.22.61.46.91.66-.04-.04.04-.05.1-.03.07.05.24.05.19.11h-.03c.03.08.19.15.32.19l.06-.08c.28.27.9.24,1.06.4.09,0,.19.02.28,0v.05c.22.04.34.08.64.1l-.06.03c.17.01.22-.14.37-.13l.04.08c.29.03.59.06.87-.02,0,.01-.01.03-.06.04.14,0,.54-.01.47-.11.01.07.3-.04.44-.1v.06c.1-.1.1-.12.27-.18.04,0,.05.03-.01.03.15-.01.1-.08.27-.09l-.05.05c.15-.03.13-.04.2-.11.08-.05.27-.08.31-.05,0-.03.07-.1.16-.11.02.01,0,.03-.02.04.25-.05.31-.2.49-.23.01.01.02.02.04.02-.18.09-.32.15-.31.14.02.04.17-.02.08.1.1-.09.27-.26.42-.3,0,0,.02,0,.03,0h-.01s.06-.02.09-.04c.05-.02.08-.03.12-.06.04.02.17-.08.24-.12-.03-.04.06-.09-.05-.07.01,0,0,.01-.05.04,0,0-.02.02-.03.02h0s-.1.06-.17.1c.04-.06.09-.11.18-.13.02-.05.04-.1.05-.13.13,0,.33-.07.38-.06.18-.17.46-.35.5-.54.04-.06.08-.03.11-.04-.02.03-.06.07-.07.09.09-.11.3-.28.27-.35.15-.1-.02.11.14-.06v.04c.19-.14.29-.31.39-.48.09-.18.18-.36.39-.53-.03.02-.04.04-.06.04.38-.46.59-1.07.86-1.58.08-.15.04-.18.04-.29l.07-.02-.02-.19ZM16.75,20.99h0s0,.01,0,.02c-.04.03-.06.03-.07.03.02-.01.04-.03.08-.05ZM19.87,13.28s0,0,0,0c0-.02,0-.03-.01-.05,0,.01.01.02.02.04Z"/>
      <path class="cls-1" d="M16.8,20.91h.02s-.02-.01-.03,0v.02s.02-.02.02-.02Z"/>
      <path class="cls-1" d="M17.23,9.21s0,0,0,.01c0,0,0,0,0,0h0Z"/>
      <path class="cls-1" d="M19.7,12.32c-.03-.27-.02.07-.11-.19l.06.2s.02-.1.05,0Z"/>
      <path class="cls-1" d="M19.37,11.53c-.05-.05-.06-.07-.04.02.06.1.03-.01.04-.02Z"/>
      <path class="cls-1" d="M16.01,8.46l.03-.04c-.08-.03,0,.02-.03.04Z"/>
      <polygon class="cls-1" points="14.7 7.93 14.74 7.93 14.6 7.91 14.7 7.93"/>
      <path class="cls-1" d="M7.66,10.36l.06.02s-.01-.1-.06-.02Z"/>
      <path class="cls-1" d="M6.26,13.4s-.07.12-.05.18c.01-.07.05-.14.05-.18Z"/>
      <polygon class="cls-1" points="10.61 21.56 10.74 21.59 10.68 21.56 10.61 21.56"/>
      <polygon class="cls-1" points="14.66 28.63 14.66 28.64 14.67 28.66 14.66 28.63"/>
      <polygon class="cls-1" points="13.15 29.56 13.14 29.56 13.14 29.59 13.15 29.56"/>
      <path class="cls-1" d="M12.54,23.16c.06.03-.06.08.03.11-.01-.02.04-.1-.03-.11Z"/>
      <path class="cls-1" d="M14.75,24.44h0s.01.02,0,.03c0-.01,0-.02,0-.03Z"/>
      <polygon class="cls-1" points="14.62 24.05 14.61 24.06 14.62 24.07 14.62 24.05"/>
      <path class="cls-1" d="M13.43,23.16s.02,0,.03,0c-.01,0-.02,0-.03,0Z"/>
      <path class="cls-1" d="M14.85,26.03s0-.04.03-.04c-.03-.02-.07.02-.11-.03.02-.03-.02-.08.03-.09-.02.09.06,0,.07.06,0-.01,0-.03,0-.05,0,0,.01,0,.02,0,.05-.08-.07-.04-.06-.12.03.01.06-.02.06-.03,0,.03-.05.02-.08-.01.03-.05-.02-.06-.02-.09v.03s-.04-.04-.05-.08c.03,0,.02.03.03.02-.06-.04.06-.09.02-.15.02-.03.06,0,.08-.03-.04-.07.04-.07,0-.14-.04.02-.03.02-.08-.03l.03.11-.06-.07s.03.07.02.09c-.04-.03-.03-.03-.06-.01.07-.05-.04-.09,0-.15h.11c.05-.08-.06-.14-.03-.25l-.02.03s0-.07-.02-.1c.04,0,.05-.02.07-.03-.03,0,0-.08-.07-.09l.05-.05c.02-.09-.11-.1-.1-.19.04.02.06-.02.1.04,0-.03,0-.06-.02-.06.02-.02-.06-.08-.03-.11-.02,0-.05,0-.06-.04,0,0,.02,0,.02,0-.02,0-.04-.04-.07,0,.09-.12-.08-.23-.02-.34-.04-.06-.09-.12-.12-.16.01,0,.02,0,.02,0-.01-.09-.11.01-.13-.08.02-.07.05.02.06-.02.09-.08-.08-.08-.07-.17h.02c0-.06-.11-.05-.17-.11,0,0,0,0,.01-.01-.08,0-.17-.03-.24-.06.05-.03.04,0,.06-.05-.03-.01-.04.07-.1.05,0-.03-.03-.08-.01-.12l.06.03c0-.07-.07-.04-.1-.07l.02-.02c-.1-.03-.12.03-.22-.01v.02c-.07.05-.03-.05-.1-.02v-.07s-.14.03-.2.04c.04-.05.13-.06.18-.08-.03,0-.08-.01-.12,0,0,0,.01,0,.02,0-.06.05-.12.07-.19.06.02-.14-.18-.05-.24-.15-.13.06-.27,0-.43.07.09.09-.04.02,0,.12-.03.02-.04.02-.05.02,0,0,0,0,0,0h0s-.08-.02-.13-.02c-.04-.02.02-.04,0-.06-.08.03-.05-.03-.12-.03.03.03,0,.06-.05.07.03,0,.06,0,.08.01-.07.11-.13-.03-.2.08v-.05s-.17.13-.15.24c-.02,0-.05-.02-.03-.04-.12.09-.14.29-.24.35l-.02-.02s.02.07-.02.08c0,0-.02-.02-.03-.01,0,.02,0,.08-.02.11v-.04c-.11.11-.03.22-.05.33-.08-.03-.13.07-.16.13h-.01c-.04.16.03.29.06.42-.09.08-.04.27-.09.4.01-.02.06,0,.07.03-.02.03.06.08-.02.08h0c-.07.01-.05.07-.06.12h.1c-.14.14.05.34-.07.41.02.03.02.07.05.1h-.05c-.01.08-.02.13,0,.23l-.04-.02c0,.06.15.08.15.13l-.08.02c0,.1-.07.21,0,.31-.01,0-.03,0-.04-.02,0,.05-.05.19.05.17-.07,0,0,.11.02.16h-.05c.07.04.08.04.1.11,0,.02-.04.01-.03,0-.03.05.05.04.02.1l-.03-.02c0,.05.01.05.05.08.02.03-.01.1-.06.11.03,0,.07.04.05.07-.02,0-.03,0-.03-.01-.04.09.06.13,0,.2-.02,0-.03,0-.03.01,0-.07,0-.13,0-.12-.05,0-.06.06-.12.01.04.05.11.13.09.18,0,0,0,0-.02,0h0s0,.02,0,.03c0,.02-.01.03-.01.05-.04,0-.02.07-.02.09.05,0,.04.04.09,0,0,0,0,0,0-.02,0,0,0,0,0-.01h0s0-.04,0-.07c.03.02.05.05.02.08.03.02.07.03.08.04-.07.04-.11.12-.16.13.03.08.02.22.12.27.01.03-.02.03-.04.05-.01-.01-.01-.03-.03-.04.03.05.03.16.1.16-.01.07-.07-.02-.04.06h-.02c-.06.22.25.22.22.45,0-.02,0-.02,0-.03.07.24.32.34.45.54.04.05.08.02.12.01l-.02.06s.06-.01.09-.02c.1,0,.1.2.24.15v-.04s.13.01.12.05c0,0,.02-.03.03-.01v.03s.11-.03.11-.03c.08.03-.03.12.1.13.05,0,.13-.08.12-.1-.02,0-.05-.02-.05-.05h.04s0-.02,0-.03c0,0,0,0,0,0,.16,0,.3-.03.45-.08v.02s.01-.03.01-.03c.02,0,.03,0,.05-.01,0,.01,0,.02,0,.03.05.02.03-.04.08-.01,0,0,0,0,0,.01l.03-.04s.03.05,0,.05c.09,0,.09-.11.14-.07h0c.06-.05.02-.05,0-.1.01,0,.03-.01.04-.02l.08.06-.02-.05s.03-.01.04,0c.01-.06-.02-.02-.02-.06.07.01.1-.11.16-.05-.01-.04-.06,0-.04-.05.08.06.04-.05.1-.06.03.05-.02.06.04.06-.04-.08.08-.06.09-.1-.02-.01-.02-.03-.01-.04.01.02.02.03.01.04,0,0,.02.01.03.02,0,0-.03-.04-.04-.06,0-.03.05-.07.07-.12.02.02.1-.09.15-.14h0c-.06-.03-.01-.09-.01-.14.04.02.05.03.06.06l.02-.04s-.02-.04-.02-.07l.04.03c.02-.06-.02-.14.03-.21-.03,0-.09,0-.12,0,0-.01,0-.02,0-.04.02,0,.03.01.03.02,0,0-.02-.03,0-.04l.04.04s-.03-.02-.02-.05c.04,0,.03-.02.06,0,0,0-.02.02,0,.04.01-.03.04-.07.07-.08-.02,0-.05,0-.05-.03,0-.06.05-.02.07-.05-.02-.02,0-.06-.05-.06,0-.02.03-.02.04-.03-.02-.04,0-.14-.06-.11h0s0,0,0,0c-.05-.1.03-.2,0-.3h.02c-.02-.06-.01-.13-.05-.17,0-.02.03-.04.06-.03-.01-.04-.03-.05,0-.11.03.04.03-.02.02.05.02-.06.04-.07,0-.13.05.02.06-.04.04-.07l-.03.04s0-.06,0-.09h.06c.07-.1-.13-.2,0-.29-.04-.03-.03.06-.08.04,0-.05.1-.11.1-.13.03-.07-.09-.07-.07-.15-.02,0-.08.02-.1-.04,0-.05.09-.07.11-.03,0,.01,0,.02-.01.02,0,.02.02.04.04.02h-.02s.02-.11.06-.09c-.02-.04-.04-.02-.05.01.03-.07,0-.11.02-.18-.01.01-.04.02-.04.01.03-.11-.04-.05-.05-.12.03-.04.08.01.05-.06.02-.04.06,0,.08,0-.04-.07.03-.12.04-.16l.02.03s-.01-.04-.01-.05l-.04.02ZM11.45,27.75s0-.03.01-.03c0,0,0,.02,0,.03h0s-.02,0-.03,0ZM13.73,29.44s0,0,0,0c0,0,0,0,.01,0,0,0,0,0,0,.01Z"/>
      <polygon class="cls-1" points="11.52 27.78 11.52 27.79 11.53 27.78 11.52 27.77 11.52 27.78"/>
      <polygon class="cls-1" points="14.7 27.99 14.7 27.99 14.7 27.99 14.7 27.99"/>
      <path class="cls-1" d="M14.15,29.27l-.07.04s.05.02.03.04c.12-.01-.04-.02.04-.08Z"/>
      <path class="cls-1" d="M14.37,29.15s0-.04-.03-.03c-.02.04.02.02.03.03Z"/>
      <path class="cls-1" d="M14.74,27.47h.05s-.02,0-.05,0Z"/>
      <polygon class="cls-1" points="14.84 26.96 14.84 26.98 14.83 26.92 14.84 26.96"/>
      <path class="cls-1" d="M14.69,24.1l-.05.03s.08,0,.05-.03Z"/>
      <path class="cls-1" d="M13.66,23.19s.05.05.06.04c0-.03-.03-.06-.06-.04Z"/>
      <polygon class="cls-1" points="11.44 25.51 11.42 25.48 11.44 25.53 11.44 25.51"/>
      <path class="cls-1" d="M3.92,22h.04s-.02,0-.04,0Z"/>
      <path class="cls-1" d="M3.41,22.35h0s0,.02,0,.03v-.03Z"/>
      <polygon class="cls-1" points="1.72 22.96 1.71 22.96 1.71 22.99 1.72 22.96"/>
      <path class="cls-1" d="M3.99,18.23c.06.02-.05.09.03.11-.01-.02.04-.1-.03-.11Z"/>
      <path class="cls-1" d="M6.2,19.51h0s.01.02,0,.03c0-.01,0-.02,0-.03Z"/>
      <polygon class="cls-1" points="6.07 19.11 6.07 19.13 6.07 19.14 6.07 19.11"/>
      <path class="cls-1" d="M6.27,19.98s.01-.09-.06-.1l.05-.05c.02-.1-.11-.1-.1-.19.04.02.06-.02.1.04,0-.03,0-.06-.02-.06.02-.02-.06-.08-.03-.11-.02,0-.06,0-.06-.04,0,0,.02,0,.02,0-.02,0-.04-.04-.07,0,.09-.12-.08-.23-.02-.34-.04-.06-.09-.12-.12-.16.01,0,.02,0,.02,0-.02-.09-.11.01-.13-.08.02-.07.06.02.06-.02.09-.08-.08-.08-.07-.17h.02c0-.06-.11-.05-.17-.11,0,0,0,0,.01-.01-.08,0-.17-.03-.24-.06.04-.03.04,0,.06-.05-.03-.01-.04.07-.09.04,0-.03-.03-.07-.01-.12l.06.03c0-.07-.07-.04-.1-.06l.02-.02c-.09-.04-.13.03-.22-.01v.02c-.07.05-.03-.05-.1-.02v-.07s-.14.04-.2.04c.04-.05.13-.06.18-.08-.04,0-.13-.02-.15,0,.02,0,.04-.02.05,0-.06.04-.12.07-.19.06.03-.14-.18-.05-.24-.15-.13.06-.27.01-.43.07.09.09-.04.02,0,.12-.03.02-.04.02-.05.02,0,0,0,0,0,0h0s-.08-.02-.13-.02c-.04-.02.02-.04,0-.06-.08.03-.05-.03-.11-.03.03.03,0,.06-.05.07l.08.02c-.07.1-.13-.04-.19.06v-.05s-.16.09-.15.2c-.01,0-.04-.03-.02-.05-.11.05-.19.22-.3.22v-.03s-.01.06-.05.06c0-.01,0-.03-.02-.02,0,.01-.03.07-.06.07v-.04c-.12.03-.12.16-.19.22-.04-.07-.14-.05-.18-.03h0c-.13.05-.17.17-.27.26-.11-.04-.25.1-.39.13.02,0,.03.06.01.08-.03,0-.04.09-.08.02h.01c-.06-.06-.1,0-.14.01l.04.09c-.18-.06-.26.21-.39.14-.01.04-.05.06-.06.09l-.02-.05c-.08.03-.12.05-.21.11v-.04c-.05.03.01.17-.04.2l-.05-.06c-.09.05-.21.04-.28.17,0-.01-.01-.03,0-.04-.05.02-.21.09-.13.16-.05-.06-.1.07-.12.14l-.03-.04c0,.08.02.1,0,.16-.02,0-.04-.01-.02-.02-.06.03,0,.06-.05.1v-.04s-.03.05-.02.1c0,.04-.07.08-.11.07.02.02.04.07.01.09-.02,0-.02-.02-.02-.03-.08.07,0,.16-.08.2-.02,0-.03,0-.03,0,.03-.07.06-.13.06-.12-.04-.02-.08.04-.12-.04,0,.07.05.17.01.23,0,0-.01,0-.02,0h0s0,.02,0,.03c-.01.02-.02.03-.03.05-.04,0-.04.07-.05.1.05,0,.03.05.09.02,0,0,0,0,0-.03,0,0,0-.01,0-.01h0s0-.04.01-.07c.02.03.04.06,0,.09.03.02.06.05.07.06-.08.03-.13.11-.17.12.02.1.01.24.12.29.01.03-.03.03-.04.05-.01-.01-.01-.03-.03-.04.03.05.03.16.1.16-.02.07-.07-.02-.04.06h-.02c-.05.22.25.22.22.45,0-.02,0-.02,0-.03.07.24.32.34.45.54.04.05.07.02.12.01l-.02.06.09-.02c.1,0,.1.2.24.15v-.04s.13.01.12.05c0,0,.02-.04.03-.01v.03s.11-.03.11-.03c.08.03-.03.11.1.13.05,0,.13-.08.12-.1-.02,0-.05-.02-.05-.05h.04s0-.03,0-.03c0,0,0,0,0,0,.05,0,.1-.01.15-.02,0,0,0,0,0,0,0,0,0,0,0,0,.1-.01.19-.03.29-.06v.02s.01-.03.01-.03c.02,0,.03-.01.05-.02,0,.01,0,.03,0,.04.05.02.03-.04.08-.01,0,0,0,0,0,.01l.03-.04s.03.05,0,.05c.09,0,.09-.11.14-.07h0c.06-.05.02-.05.01-.09l.04-.02.08.06-.02-.05s.03-.01.04.01c.02-.05-.02-.02-.02-.06.07.02.11-.09.17-.02,0-.05-.06,0-.03-.06.06.08.05-.05.11-.03.01.05-.04.05.02.06-.02-.09.09-.03.11-.06,0-.02,0-.03,0-.04,0,.02,0,.03,0,.04,0,0,.01.02.02.03.01,0-.01-.05-.02-.07.02-.03.07-.04.1-.08,0,.02.13-.03.19-.04h0c-.02-.05.04-.07.07-.11.02.04.02.05,0,.08l.04-.02s0-.04.02-.06l.02.05s.07-.11.15-.12c-.01-.03-.06-.06-.07-.09l.03-.02s.01.03,0,.04c0,0,.01-.03.03-.03v.05s0-.04.02-.05c.02.03.03.01.04.04,0,0-.03,0-.03.02.03,0,.07,0,.1,0-.01-.02-.02-.04,0-.06.05-.03.04.03.08.03,0-.03.04-.02.02-.07.01,0,.03.01.04.02.01-.04.12-.08.06-.11h0s0,0,0,0c.06-.1.19-.08.27-.14v.02s.12-.08.13-.13c.01,0,.05,0,.06.03.03-.03.03-.05.1-.06-.02.05.03.02-.03.04.06-.02.08,0,.11-.07,0,.05.07.03.08,0h-.05s.05-.04.07-.05l.02.06c.14,0,.12-.22.26-.15,0-.05-.07,0-.07-.05.05-.02.14.03.16.02.08,0,.02-.11.09-.13-.02-.01-.06-.06-.02-.11.05-.02.1.05.08.08-.01,0-.02,0-.02,0-.01.02-.03.04,0,.05v-.02s.09-.03.1,0c.03-.04,0-.04-.03-.03.08,0,.1-.05.17-.07-.02,0-.04-.02-.03-.03.1-.03.02-.06.08-.11.05,0,.03.08.08,0,.05,0,.04.04.03.07.04-.07.13-.06.17-.08l-.02.04s.03-.04.04-.05l-.05-.02s.04-.02.05,0c0-.04-.06-.04-.05-.1.04,0,.05-.08.1-.05-.08.05.05.03,0,.1,0-.02.02-.03.04-.04,0,0,0,.01,0,.02.11-.03-.02-.08.05-.15.02.03.06.02.07,0-.03.03-.05-.02-.05-.06.06-.03.02-.06.04-.09l-.03.02s0-.05.01-.09c.02.01,0,.04.01.03-.02-.07.11-.06.1-.13.03-.02.06.03.08,0,0-.08.07-.06.07-.14-.05,0-.04.01-.06-.05l-.02.13-.03-.1s0,.08-.02.1c-.02-.05,0-.04-.05-.04.08-.02,0-.1.06-.14l.1.04c.08-.07,0-.17.04-.28l-.03.03s0-.07,0-.11c.04,0,.05-.01.08-.03ZM.06,21.11s0-.03.02-.03c0,0,0,.02,0,.04h0s-.02,0-.02-.01ZM2.3,22.84s0-.01,0-.02c0,0,.02,0,.03-.01,0,0,0,.02-.02.03Z"/>
      <path class="cls-1" d="M.12,21.16s0,0,0,0h.01s-.01-.02-.01-.02h0Z"/>
      <polygon class="cls-1" points="3.91 22 3.9 22 3.91 22 3.91 22"/>
      <path class="cls-1" d="M2.65,22.73s.05.03.02.05c.11,0-.04-.03.05-.07l-.07.02Z"/>
      <path class="cls-1" d="M2.95,22.65s.02-.04-.02-.04c-.03.03.02.02.02.04Z"/>
      <path class="cls-1" d="M4.4,21.82s0-.02-.02-.04l.02.04Z"/>
      <polygon class="cls-1" points="4.85 21.62 4.89 21.58 4.86 21.61 4.85 21.62"/>
      <path class="cls-1" d="M6.15,19.17l-.05.03s.08,0,.05-.03Z"/>
      <path class="cls-1" d="M5.11,18.26s.05.04.06.04c0-.03-.03-.06-.06-.04Z"/>
      <polygon class="cls-1" points="1.75 19.46 1.72 19.49 1.74 19.49 1.75 19.46"/>
      <path class="cls-1" d="M6.16,9.84l.02-.04s-.01.02-.02.04Z"/>
      <polygon class="cls-1" points="6.11 10.5 6.11 10.51 6.13 10.53 6.11 10.5"/>
      <polygon class="cls-1" points="4.6 11.43 4.59 11.43 4.59 11.46 4.6 11.43"/>
      <path class="cls-1" d="M1.12,6.69c.06.02-.05.09.03.11-.02-.02.04-.1-.03-.11Z"/>
      <path class="cls-1" d="M3.64,7.5h0s.02,0,.02.02c0,0,0-.02-.02-.02Z"/>
      <polygon class="cls-1" points="3.31 7.32 3.31 7.33 3.33 7.33 3.31 7.32"/>
      <path class="cls-1" d="M.08,8.81s.06-.02.08,0c0,.04.09.07.01.09h0c-.06.04-.01.1.01.15l.09-.04c-.06.21.25.28.2.42.04,0,.07.04.12.05l-.04.04c.06.08.1.11.21.17l-.04.02c.06.04.16-.08.21-.05l-.02.08c.09.05.15.16.27.15,0,0-.02.03-.04.02.04.03.14.14.18.04-.03.06.09.06.15.06l-.03.04c.07-.03.08-.05.15-.03.01.01,0,.04-.02.02.03.05.06-.02.1.03l-.04.02s.05.01.09,0c.04,0,.08.06.07.11.02-.02.06-.04.09-.01,0,.02-.02.02-.03.02.06.08.15.01.17.09,0,.02,0,.02,0,.03-.06-.04-.11-.07-.1-.07-.02.04.02.08-.05.11.06,0,.17-.04.2.01,0,0,0,.01,0,.02h0s.02.01.03.01c.01.02.02.03.03.04-.01.04.05.05.07.07.02-.05.05-.02.04-.07,0,0,0,0-.03,0,0,0,0,0-.01,0h0s-.04-.02-.06-.04c.03-.01.06-.02.08.02.03-.02.06-.04.08-.05,0,.08.04.15.03.2.09.02.19.09.28.03.03,0,.01.04.01.06-.02,0-.03,0-.05,0,.06,0,.13.07.18.01.04.06-.06.04.02.07h-.02c.09.19.33,0,.42.21,0-.01-.01-.02,0-.03.15.16.41.17.55.36.04.05.07.01.12,0l-.02.05.09-.02c.1,0,.09.2.24.15v-.04s.13.01.12.05c0,0,.02-.04.03-.01v.03s.11-.03.11-.03c.08.03-.03.11.1.13.05,0,.13-.08.12-.1-.02,0-.05-.02-.05-.05h.04s0-.03,0-.03c0,0,0,0,0,0,.05,0,.1-.01.15-.02,0,0,0,0,0,0,0,0,0,0,0,0,.1-.01.2-.03.29-.06v.02s.01-.03.01-.03c.02,0,.03-.01.05-.02,0,.01,0,.03,0,.04.05.02.03-.04.08-.01,0,0,0,0,0,.01l.03-.04s.03.05,0,.05c.09,0,.09-.11.14-.07h0c.06-.05.02-.05.01-.09.01,0,.02-.02.04-.03l.09.07-.02-.05s.03-.01.04,0c.01-.05-.02-.02-.02-.06.07.01.1-.11.16-.05-.01-.04-.06,0-.04-.05.08.06.04-.05.1-.06.03.04-.03.06.04.06-.04-.08.08-.06.09-.1-.02-.01-.02-.03-.01-.04.01.02.02.03.01.04,0,0,.02.01.03.02,0,0-.03-.04-.04-.06,0-.03.05-.07.07-.12.02.02.1-.09.15-.14h0c-.05-.03-.02-.09-.01-.14.04.02.05.03.06.06l.02-.04s-.02-.04-.02-.07l.04.03c.02-.06-.02-.14.03-.21-.03,0-.09,0-.13,0,0-.01,0-.02,0-.04.02,0,.03.01.04.02,0,0-.02-.03,0-.04l.04.04s-.03-.02-.02-.05c.04,0,.03-.02.06,0,0,0-.02.02,0,.04.01-.03.04-.07.07-.08-.02,0-.05,0-.05-.03,0-.06.05-.02.07-.05-.02-.02,0-.06-.05-.06,0-.02.03-.02.04-.03-.02-.03-.01-.15-.07-.11h0s0,0,0,0c-.06-.1,0-.22-.04-.31h.02c-.04-.06-.05-.13-.1-.16,0-.02.01-.05.04-.05-.03-.04-.05-.03-.05-.11.05.03.02-.03.04.03-.01-.06,0-.09-.07-.12.05,0,.03-.07,0-.09v.05s-.04-.05-.05-.08l.06-.02c-.02-.16-.24-.11-.22-.26-.05,0,.03.07-.03.09-.03-.05-.02-.16-.04-.17-.05-.08-.12.02-.17-.05,0,.02-.03.08-.09.06-.04-.04-.01-.12.03-.11.01,0,.02.02.01.02.02,0,.05,0,.04-.02h-.02s-.08-.06-.05-.08c-.05,0-.03.02-.01.05-.05-.06-.09-.06-.15-.11,0,.02,0,.04,0,.04-.08-.08-.06.01-.13-.01-.02-.05.05-.06-.02-.07-.03-.04.02-.06.05-.06-.08,0-.09-.09-.12-.11h.04s-.04,0-.05-.02v.05s-.03-.03-.02-.04c-.03.01-.02.07-.08.08-.01-.03-.08-.02-.06-.08.06.06.02-.06.09-.03-.02,0-.03,0-.04-.03,0,0,0,0,.01,0-.04-.09-.07.04-.14,0,.03-.02.01-.06,0-.06.03.02-.01.06-.05.06-.03-.05-.06-.01-.08-.03l.02.03s-.05,0-.08,0c0-.02.04,0,.03-.01-.07.03-.05-.1-.12-.09-.01-.03.03-.05.02-.08-.08,0-.04-.07-.12-.08,0,.05,0,.04-.06.05l.11.03-.09.02s.08.01.09.03c-.05.01-.04,0-.04.05,0-.08-.1-.01-.12-.08l.06-.09c-.05-.08-.15-.02-.23-.1l.02.03s-.06-.03-.1-.03c.02-.03,0-.05,0-.08-.01.02-.07-.04-.11.02l-.02-.07c-.06-.06-.14.04-.2-.01.04-.02.02-.06.08-.06-.02-.01-.04-.03-.05-.01,0-.03-.09,0-.09-.04-.02,0-.04.04-.07.02,0,0,0-.02,0-.02,0,.02-.05,0-.05.05-.02-.14-.21-.11-.22-.23-.06-.02-.13-.04-.17-.07,0,0,0-.02.02,0-.05-.07-.09.07-.15,0,0-.07.06,0,.04-.04.05-.11-.1-.04-.11-.13h.02c-.02-.06-.12-.01-.17-.06,0,0,0,0,0-.02-.07.03-.16,0-.23-.02.04-.03.04,0,.05-.05-.03,0-.03.07-.09.05,0-.03-.03-.07-.01-.12l.05.03c0-.07-.07-.04-.09-.06l.02-.02c-.09-.04-.12.03-.22-.01v.02c-.07.05-.03-.06-.1-.02v-.07s-.14.03-.2.04c.04-.05.13-.06.18-.08-.04-.01-.13-.03-.15,0,.02,0,.04-.02.05,0-.06.05-.12.06-.19.06.02-.14-.18-.05-.24-.15-.13.06-.27,0-.43.07.09.09-.04.02,0,.12-.03.02-.04.02-.05.02h0s0,0,0,0l-.13-.02s.02-.04,0-.06c-.08.03-.05-.03-.12-.03.03.03,0,.07-.05.07h.08c-.07.12-.14-.02-.2.09v-.05s-.17.14-.15.24c-.02,0-.05-.02-.03-.04-.12.09-.14.29-.24.35l-.02-.02s.02.07-.02.08c0,0-.02-.02-.03-.01,0,.02,0,.08-.02.11v-.04c-.11.11-.04.22-.05.33-.08-.03-.14.07-.16.13h-.01c-.04.16.03.28.07.42-.09.1,0,.31,0,.47ZM2.15,10.46h0s-.01.01-.02.01c-.02,0-.02-.02-.02-.03,0,0,.02,0,.03.01ZM5.18,11.31s0-.01,0-.02c0,0,.02,0,.02,0,0,0,0,.02-.02.03Z"/>
      <polygon class="cls-1" points="2.2 10.43 2.21 10.44 2.2 10.42 2.19 10.43 2.2 10.43"/>
      <polygon class="cls-1" points="6.15 9.85 6.15 9.86 6.15 9.86 6.15 9.85"/>
      <path class="cls-1" d="M5.6,11.15l-.07.04s.05.02.03.04c.12-.02-.04-.02.04-.08Z"/>
      <path class="cls-1" d="M5.83,11.02s0-.04-.03-.03c-.02.04.02.02.03.03Z"/>
      <path class="cls-1" d="M6.07,9.31h.05s-.02,0-.05,0Z"/>
      <polygon class="cls-1" points="5.86 8.8 5.8 8.77 5.84 8.79 5.86 8.8"/>
      <path class="cls-1" d="M3.4,7.31l-.02.06s.06-.05.02-.06Z"/>
      <path class="cls-1" d="M2.23,6.72s.05.05.06.04c0-.03-.03-.06-.06-.04Z"/>
      <polygon class="cls-1" points=".25 9.14 .24 9.12 .21 9.1 .25 9.14"/>
      <polygon class="cls-1" points="14.66 5.56 14.66 5.57 14.67 5.59 14.66 5.56"/>
      <polygon class="cls-1" points="13.15 6.5 13.14 6.5 13.14 6.53 13.15 6.5"/>
      <path class="cls-1" d="M12.54.1c.06.03-.06.08.03.11-.01-.02.04-.1-.03-.11Z"/>
      <path class="cls-1" d="M14.75,1.38h0s.01.02,0,.03c0-.01,0-.02,0-.03Z"/>
      <polygon class="cls-1" points="14.62 .99 14.61 1 14.62 1.01 14.62 .99"/>
      <path class="cls-1" d="M11.54,3.23l-.08.02c0,.1-.07.21,0,.31-.01,0-.03,0-.04-.02,0,.05-.05.19.05.17-.07,0,0,.11.02.16h-.05c.07.04.08.04.1.11,0,.02-.04.01-.03,0-.03.05.05.04.02.1l-.03-.02c0,.05.01.05.05.08.02.03-.01.1-.06.11.03,0,.07.04.05.07-.02,0-.03,0-.03-.01-.04.09.06.13,0,.2-.02,0-.03,0-.03.01,0-.07,0-.13,0-.12-.05,0-.06.06-.12.01.04.05.11.13.09.18,0,0,0,0-.02,0h0s0,.02,0,.03c0,.02-.01.03-.01.05-.04,0-.02.07-.02.09.05,0,.04.04.09,0,0,0,0,0,0-.02,0,0,0,0,0-.01h0s0-.04,0-.07c.03.02.05.05.02.08.03.02.07.03.08.04-.07.04-.11.12-.16.13.03.08.02.22.12.27.01.03-.02.03-.04.05-.01-.01-.01-.03-.03-.04.03.05.03.16.1.16-.01.07-.07-.02-.04.06h-.02c-.06.22.25.22.22.45,0-.02,0-.02,0-.03.07.24.32.34.45.54.04.05.08.02.12.01l-.02.06s.06-.01.09-.02c.1,0,.1.2.24.15v-.04s.13.01.12.05c0,0,.02-.03.03-.01v.03s.11-.03.11-.03c.08.03-.03.12.1.13.05,0,.13-.08.12-.1-.02,0-.05-.02-.05-.05h.04s0-.02,0-.03c0,0,0,0,0,0,.16,0,.3-.03.45-.08v.02s.01-.03.01-.03c.02,0,.03,0,.05-.01,0,.01,0,.02,0,.03.05.02.03-.04.08-.01,0,0,0,0,0,.01l.03-.04s.03.05,0,.05c.09,0,.09-.11.14-.07h0c.06-.05.02-.05,0-.1.01,0,.03-.01.04-.02l.08.06-.02-.05s.03-.01.04,0c.01-.06-.02-.02-.02-.06.07.01.1-.11.16-.05-.01-.04-.06,0-.04-.05.08.06.04-.05.1-.06.03.05-.02.06.04.06-.04-.08.08-.06.09-.1-.02-.01-.02-.03-.01-.04.01.02.02.03.01.04,0,0,.02.01.03.02,0,0-.03-.04-.04-.06,0-.03.05-.07.07-.12.02.02.1-.09.15-.14h0c-.06-.03-.01-.09-.01-.14.04.02.05.03.06.06l.02-.04s-.02-.04-.02-.07l.04.03c.02-.06-.02-.14.03-.21-.03,0-.09,0-.12,0,0-.01,0-.02,0-.04.02,0,.03.01.03.02,0,0-.02-.03,0-.04l.04.04s-.03-.02-.02-.05c.04,0,.03-.02.06,0,0,0-.02.02,0,.04.01-.03.04-.07.07-.08-.02,0-.05,0-.05-.03,0-.06.05-.02.07-.05-.02-.02,0-.06-.05-.06,0-.02.03-.02.04-.03-.02-.04,0-.14-.06-.11h0s0,0,0,0c-.05-.1.03-.2,0-.3h.02c-.02-.06-.01-.13-.05-.17,0-.02.03-.04.06-.03-.01-.04-.03-.05,0-.11.03.04.03-.02.02.05.02-.06.04-.07,0-.13.05.02.06-.04.04-.07l-.03.04s0-.06,0-.09h.06c.07-.1-.13-.2,0-.29-.04-.03-.03.06-.08.04,0-.05.1-.11.1-.13.03-.07-.09-.07-.07-.15-.02,0-.08.02-.1-.04,0-.05.09-.07.11-.03,0,.01,0,.02-.01.02,0,.02.02.04.04.02h-.02s.02-.11.06-.09c-.02-.04-.04-.02-.05.01.03-.07,0-.11.02-.18-.01.01-.04.02-.04.01.03-.11-.04-.05-.05-.12.03-.04.08.01.05-.06.02-.04.06,0,.08,0-.04-.07.03-.12.04-.16l.02.03s-.01-.04-.01-.05l-.04.02s0-.04.03-.04c-.03-.02-.07.02-.11-.03.02-.03-.02-.08.03-.09-.02.09.06,0,.07.06,0-.01,0-.03,0-.05,0,0,.01,0,.02,0,.05-.08-.07-.04-.06-.12.03.01.06-.02.06-.03,0,.03-.05.02-.08-.01.03-.05-.02-.06-.02-.09v.03s-.04-.04-.05-.08c.03,0,.02.03.03.02-.06-.04.06-.09.02-.15.02-.03.06,0,.08-.03-.04-.07.04-.07,0-.14-.04.02-.03.02-.08-.03l.03.11-.06-.07s.03.07.02.09c-.04-.03-.03-.03-.06-.01.07-.05-.04-.09,0-.15h.11c.05-.08-.06-.14-.03-.25l-.02.03s0-.07-.02-.1c.04,0,.05-.02.07-.03-.03,0,0-.08-.07-.09l.05-.05c.02-.09-.11-.1-.1-.19.04.02.06-.02.1.04,0-.03,0-.06-.02-.06.02-.02-.06-.08-.03-.11-.02,0-.05,0-.06-.04,0,0,.02,0,.02,0-.02,0-.04-.04-.07,0,.09-.12-.08-.23-.02-.34-.04-.06-.09-.12-.12-.16.01,0,.02,0,.02,0-.01-.09-.11.01-.13-.08.02-.07.05.02.06-.02.09-.08-.08-.08-.07-.17h.02c0-.06-.11-.05-.17-.11,0,0,0,0,.01-.01-.08,0-.17-.03-.24-.06.05-.03.04,0,.06-.05-.03-.01-.04.07-.1.05,0-.03-.03-.08-.01-.12l.06.03c0-.07-.07-.04-.1-.07l.02-.02c-.1-.03-.12.03-.22-.01v.02c-.07.05-.03-.05-.1-.02v-.07s-.14.03-.2.04c.04-.05.13-.06.18-.08-.03,0-.08-.01-.12,0,0,0,.01,0,.02,0-.06.05-.12.07-.19.06.02-.14-.18-.05-.24-.15-.13.06-.27,0-.43.07.09.09-.04.02,0,.12-.03.02-.04.02-.05.02,0,0,0,0,0,0h0s-.08-.02-.13-.02c-.04-.02.02-.04,0-.06-.08.03-.05-.03-.12-.03.03.03,0,.06-.05.07.03,0,.06,0,.08.01-.07.11-.13-.03-.2.08v-.05s-.17.13-.15.24c-.02,0-.05-.02-.03-.04-.12.09-.14.29-.24.35l-.02-.02s.02.07-.02.08c0,0-.02-.02-.03-.01,0,.02,0,.08-.02.11v-.04c-.11.11-.03.22-.05.33-.08-.03-.13.07-.16.13h-.01c-.04.16.03.29.06.42-.09.08-.04.27-.09.4.01-.02.06,0,.07.03-.02.03.06.08-.02.08h0c-.07.01-.05.07-.06.12h.1c-.14.14.05.34-.07.41.02.03.02.07.05.1h-.05c-.01.08-.02.13,0,.23l-.04-.02c0,.06.15.08.15.13ZM11.45,4.69s0-.03.01-.03c0,0,0,.02,0,.03h0s-.02,0-.03,0ZM13.73,6.37s0,0,0,0c0,0,0,0,.01,0,0,0,0,0,0,.01Z"/>
      <path class="cls-1" d="M13.43.1s.02,0,.03,0c-.01,0-.02,0-.03,0Z"/>
      <polygon class="cls-1" points="11.52 4.72 11.52 4.73 11.53 4.72 11.52 4.71 11.52 4.72"/>
      <polygon class="cls-1" points="14.7 4.92 14.7 4.93 14.7 4.93 14.7 4.92"/>
      <path class="cls-1" d="M14.15,6.21l-.07.04s.05.02.03.04c.12-.01-.04-.02.04-.08Z"/>
      <path class="cls-1" d="M14.37,6.09s0-.04-.03-.03c-.02.04.02.02.03.03Z"/>
      <path class="cls-1" d="M14.74,4.41h.05s-.02,0-.05,0Z"/>
      <polygon class="cls-1" points="14.84 3.9 14.84 3.91 14.83 3.86 14.84 3.9"/>
      <path class="cls-1" d="M14.69,1.04l-.05.03s.08,0,.05-.03Z"/>
      <path class="cls-1" d="M13.66.13s.05.05.06.04c0-.03-.03-.06-.06-.04Z"/>
      <polygon class="cls-1" points="11.44 2.44 11.42 2.42 11.44 2.47 11.44 2.44"/>
      <path class="cls-1" d="M23.9,10.47h.04s-.02,0-.04,0Z"/>
      <path class="cls-1" d="M23.39,10.82h0s0,.02,0,.03v-.03Z"/>
      <polygon class="cls-1" points="21.69 11.43 21.69 11.43 21.69 11.46 21.69 11.43"/>
      <path class="cls-1" d="M23.97,6.7c.06.02-.05.09.03.11-.01-.02.04-.1-.03-.11Z"/>
      <path class="cls-1" d="M26.18,7.98h0s.01.02,0,.03c0-.01,0-.02,0-.03Z"/>
      <polygon class="cls-1" points="26.05 7.58 26.04 7.59 26.05 7.61 26.05 7.58"/>
      <path class="cls-1" d="M26.18,8.35l.05-.05c.02-.1-.11-.1-.1-.19.04.02.06-.02.1.04,0-.03,0-.06-.02-.06.02-.02-.06-.08-.03-.11-.02,0-.06,0-.06-.04,0,0,.02,0,.02,0-.02,0-.04-.04-.07,0,.09-.12-.08-.23-.02-.34-.04-.06-.09-.12-.12-.16.01,0,.02,0,.02,0-.02-.09-.11.01-.13-.08.02-.07.06.02.06-.02.09-.08-.08-.08-.07-.17h.02c0-.06-.11-.05-.17-.11,0,0,0,0,.01-.01-.08,0-.17-.03-.24-.06.04-.03.04,0,.06-.05-.03-.01-.04.07-.09.04,0-.03-.03-.07-.01-.12l.06.03c0-.07-.07-.04-.1-.06l.02-.02c-.09-.04-.13.03-.22-.01v.02c-.07.05-.03-.05-.1-.02v-.07s-.14.04-.2.04c.04-.05.13-.06.18-.08-.04,0-.13-.02-.15,0,.02,0,.04-.02.05,0-.06.04-.12.07-.19.06.03-.14-.18-.05-.24-.15-.13.06-.27.01-.43.07.09.09-.04.02,0,.12-.03.02-.04.02-.05.02,0,0,0,0,0,0h0s-.08-.02-.13-.02c-.04-.02.02-.04,0-.06-.08.03-.05-.03-.11-.03.03.03,0,.06-.05.07l.08.02c-.07.1-.13-.04-.19.06v-.05s-.16.09-.15.2c-.01,0-.04-.03-.02-.05-.11.05-.19.22-.3.22v-.03s-.01.06-.05.06c0-.01,0-.03-.02-.02,0,.01-.03.07-.06.07v-.04c-.12.03-.12.16-.19.22-.04-.07-.14-.05-.18-.03h0c-.13.05-.17.17-.27.26-.11-.04-.25.1-.39.13.02,0,.03.06.01.08-.03,0-.04.09-.08.02h.01c-.06-.06-.1,0-.14.01l.04.09c-.18-.06-.26.21-.39.14-.01.04-.05.06-.06.09l-.02-.05c-.08.03-.12.05-.21.11v-.04c-.05.03.01.17-.04.2l-.05-.06c-.09.05-.21.04-.28.17,0-.01-.01-.03,0-.04-.05.02-.21.09-.13.16-.05-.06-.1.08-.12.14l-.03-.04c0,.08.02.1,0,.16-.02,0-.04-.01-.02-.02-.06.03,0,.06-.05.1v-.04s-.03.05-.02.1c0,.04-.07.08-.11.07.02.02.04.07.01.09-.02,0-.02-.02-.02-.03-.08.07,0,.16-.08.2-.02,0-.03,0-.03,0,.03-.07.06-.13.06-.12-.04-.02-.08.04-.12-.04,0,.07.05.17.01.23,0,0-.01,0-.02,0h0s0,.02,0,.03c-.01.02-.02.03-.03.05-.04,0-.04.07-.05.1.05,0,.03.05.09.02,0,0,0,0,0-.03,0,0,0-.01,0-.01h0s0-.04.01-.07c.02.03.04.06,0,.09.03.02.06.05.07.06-.08.03-.13.11-.17.12.02.1.01.24.12.29.01.03-.03.03-.04.05-.01-.01-.01-.03-.03-.04.03.05.03.16.1.16-.02.07-.07-.02-.04.06h-.02c-.05.22.25.22.22.45,0-.02,0-.02,0-.03.07.24.32.34.45.54.04.05.07.02.12.01l-.02.06.09-.02c.1,0,.1.2.24.15v-.04s.13.01.12.05c0,0,.02-.04.03-.01v.03s.11-.03.11-.03c.08.03-.03.11.1.13.05,0,.13-.08.12-.1-.02,0-.05-.02-.05-.05h.04s0-.03,0-.03c0,0,0,0,0,0,.05,0,.1-.01.15-.02,0,0,0,0,0,0,0,0,0,0,0,0,.1-.01.19-.03.29-.06v.02s.01-.03.01-.03c.02,0,.03-.01.05-.02,0,.01,0,.03,0,.04.05.02.03-.04.08-.01,0,0,0,0,0,.01l.03-.04s.03.05,0,.05c.09,0,.09-.11.14-.07h0c.06-.05.02-.05.01-.09l.04-.02.08.06-.02-.05s.03-.01.04.01c.02-.05-.02-.02-.02-.06.07.02.11-.09.17-.02,0-.05-.06,0-.03-.06.06.08.05-.05.11-.03.01.05-.04.05.02.06-.02-.09.09-.03.11-.06,0-.02,0-.03,0-.04,0,.02,0,.03,0,.04,0,0,.01.02.02.03.01,0-.01-.05-.02-.07.02-.03.07-.04.1-.08,0,.02.13-.03.19-.04h0c-.02-.05.04-.07.07-.11.02.04.02.05,0,.08l.04-.02s0-.04.02-.06l.02.05s.07-.11.15-.12c-.01-.03-.06-.06-.07-.09l.03-.02s.01.03,0,.04c0,0,.01-.03.03-.03v.05s0-.04.02-.05c.02.03.03.01.04.04,0,0-.03,0-.03.02.03,0,.07,0,.1,0-.01-.02-.02-.04,0-.06.05-.03.04.03.08.03,0-.03.04-.02.02-.07.01,0,.03.01.04.02.01-.04.12-.08.06-.11h0s0,0,0,0c.06-.1.19-.08.27-.14v.02s.12-.08.13-.13c.01,0,.05,0,.06.03.03-.03.03-.05.1-.06-.02.05.03.02-.03.04.06-.02.08,0,.11-.07,0,.05.07.03.08,0h-.05s.05-.04.07-.05l.02.06c.14,0,.12-.22.26-.15,0-.05-.07,0-.07-.05.05-.02.14.03.16.02.08,0,.02-.11.09-.13-.02-.01-.06-.06-.02-.11.05-.02.1.05.08.08-.01,0-.02,0-.02,0-.01.02-.03.04,0,.05v-.02s.09-.03.1,0c.03-.04,0-.04-.03-.03.08,0,.1-.05.17-.07-.02,0-.04-.02-.03-.03.1-.03.02-.06.08-.11.05,0,.03.08.08,0,.05,0,.04.04.03.07.04-.07.13-.06.17-.08l-.02.04s.03-.04.04-.05l-.05-.02s.04-.02.05,0c0-.04-.06-.04-.05-.1.04,0,.05-.08.1-.05-.08.05.05.03,0,.1,0-.02.02-.03.04-.04,0,0,0,.01,0,.02.11-.03-.02-.08.05-.15.02.03.06.02.07,0-.03.03-.05-.02-.05-.06.06-.03.02-.06.04-.09l-.03.02s0-.05.01-.09c.02.01,0,.04.01.03-.02-.07.11-.06.1-.13.03-.02.06.03.08,0,0-.08.07-.06.07-.14-.05,0-.04.01-.06-.05l-.02.13-.03-.1s0,.08-.02.1c-.02-.05,0-.04-.05-.04.08-.02,0-.1.06-.14l.1.04c.08-.07,0-.17.04-.28l-.03.03s0-.07,0-.11c.04,0,.05-.01.08-.03-.03,0,.01-.09-.06-.1ZM20.03,9.58s0-.03.02-.03c0,0,0,.02,0,.04h0s-.02,0-.02-.01ZM22.27,11.31s0-.01,0-.02c0,0,.02,0,.03-.01,0,0,0,.02-.02.03Z"/>
      <path class="cls-1" d="M20.09,9.63s0,0,0,0h.01s-.01-.02-.01-.02h0Z"/>
      <polygon class="cls-1" points="23.88 10.47 23.87 10.47 23.88 10.47 23.88 10.47"/>
      <path class="cls-1" d="M22.62,11.19s.05.03.02.05c.11,0-.04-.03.05-.07l-.07.02Z"/>
      <path class="cls-1" d="M22.91,11.08s.01.02.02.04c.01-.03.02-.04-.02-.04Z"/>
      <path class="cls-1" d="M24.35,10.25l.02.04s0-.02-.02-.04Z"/>
      <polygon class="cls-1" points="24.83 10.09 24.86 10.05 24.84 10.07 24.83 10.09"/>
      <path class="cls-1" d="M26.12,7.64l-.05.03s.08,0,.05-.03Z"/>
      <path class="cls-1" d="M25.08,6.72s.05.04.06.04c0-.03-.03-.06-.06-.04Z"/>
      <polygon class="cls-1" points="21.73 7.92 21.7 7.96 21.72 7.95 21.73 7.92"/>
      <path class="cls-1" d="M26.14,21.37l.02-.04s-.01.02-.02.04Z"/>
      <polygon class="cls-1" points="26.09 22.03 26.08 22.04 26.1 22.06 26.09 22.03"/>
      <polygon class="cls-1" points="24.57 22.96 24.57 22.96 24.57 22.99 24.57 22.96"/>
      <path class="cls-1" d="M21.09,18.22c.06.02-.05.09.03.11-.02-.02.04-.1-.03-.11Z"/>
      <path class="cls-1" d="M23.62,19.03h0s.02,0,.02.02c0,0,0-.02-.02-.02Z"/>
      <polygon class="cls-1" points="23.29 18.85 23.29 18.86 23.3 18.86 23.29 18.85"/>
      <path class="cls-1" d="M26.12,21.75s.04-.07.07-.08c-.02,0-.05,0-.05-.03,0-.06.05-.02.07-.05-.02-.02,0-.06-.05-.06,0-.02.03-.02.04-.03-.02-.03-.01-.15-.07-.11h0s0,0,0,0c-.06-.1,0-.22-.04-.31h.02c-.04-.06-.05-.13-.1-.16,0-.02.01-.05.04-.05-.03-.04-.05-.03-.05-.11.05.03.02-.03.04.03-.01-.06,0-.09-.07-.12.05,0,.03-.07,0-.09v.05s-.04-.05-.05-.08l.06-.02c-.02-.16-.24-.11-.22-.26-.05,0,.03.07-.03.09-.03-.05-.02-.16-.04-.17-.05-.08-.12.02-.17-.05,0,.02-.03.08-.09.06-.04-.04-.01-.12.03-.11.01,0,.02.02.01.02.02,0,.05,0,.04-.02h-.02s-.08-.06-.05-.08c-.05,0-.03.02-.01.05-.05-.06-.09-.06-.15-.11,0,.02,0,.04,0,.04-.08-.08-.06.01-.13-.01-.02-.05.05-.06-.02-.07-.03-.04.02-.06.05-.06-.08,0-.09-.09-.12-.11h.04s-.04,0-.05-.02v.05s-.03-.03-.02-.04c-.03.01-.02.07-.08.08-.01-.03-.08-.02-.06-.08.06.06.02-.06.09-.03-.02,0-.03,0-.04-.03,0,0,0,0,.02,0-.04-.09-.07.04-.14,0,.03-.02.01-.06,0-.06.03.02-.01.06-.05.06-.03-.05-.06-.01-.08-.03l.02.03s-.05,0-.08,0c0-.02.04,0,.03-.01-.07.03-.05-.1-.12-.09-.01-.03.03-.05.02-.08-.08,0-.04-.07-.12-.08,0,.05,0,.04-.06.05l.11.03-.09.02s.08.01.09.03c-.05.01-.04,0-.04.05,0-.08-.1-.01-.12-.08l.06-.09c-.05-.08-.15-.02-.23-.1l.02.03s-.06-.03-.1-.03c.02-.03,0-.05,0-.08-.01.02-.07-.04-.11.02l-.02-.07c-.06-.06-.14.04-.2-.01.04-.02.02-.06.08-.06-.02-.01-.04-.03-.05-.01,0-.03-.09,0-.09-.04-.02,0-.04.04-.07.02,0,0,0-.02,0-.02,0,.02-.05,0-.05.05-.02-.14-.21-.11-.22-.23-.06-.02-.13-.04-.17-.07,0,0,0-.02.02,0-.05-.07-.09.07-.15,0,0-.07.06,0,.04-.04.05-.11-.1-.04-.11-.13h.02c-.02-.06-.12-.01-.17-.06,0,0,0,0,0-.02-.07.03-.16,0-.23-.02.04-.03.04,0,.05-.05-.03,0-.03.07-.09.05,0-.03-.03-.07-.01-.12l.05.03c0-.07-.07-.04-.09-.06l.02-.02c-.09-.04-.12.03-.22-.01v.02c-.07.05-.03-.06-.1-.02v-.07s-.14.03-.2.04c.04-.05.13-.06.18-.08-.04-.01-.13-.03-.15,0,.02,0,.04-.02.05,0-.06.05-.12.06-.19.06.02-.14-.18-.05-.24-.15-.13.06-.27,0-.43.07.09.09-.04.02,0,.12-.03.02-.04.02-.05.02h0s0,0,0,0l-.13-.02s.02-.04,0-.06c-.08.03-.05-.03-.12-.03.03.03,0,.07-.05.07h.08c-.07.12-.14-.02-.2.09v-.05s-.17.14-.15.24c-.02,0-.05-.02-.03-.04-.12.09-.14.29-.24.35l-.02-.02s.02.07-.02.08c0,0-.02-.02-.03-.01,0,.02,0,.08-.02.11v-.04c-.11.11-.04.22-.05.33-.08-.03-.14.07-.16.13h-.01c-.04.16.03.28.07.42-.09.1,0,.31,0,.47,0-.03.06-.02.08,0,0,.04.09.07.01.09h0c-.06.04-.01.1.01.15l.09-.04c-.06.21.25.28.2.42.04,0,.07.04.12.05l-.04.04c.06.08.1.11.21.17l-.04.02c.06.04.16-.08.21-.05l-.02.08c.09.05.15.16.27.15,0,0-.02.03-.04.02.04.03.14.14.18.04-.03.06.09.06.15.06l-.03.04c.07-.03.08-.05.15-.03.01.01,0,.04-.02.02.03.05.06-.02.1.03l-.04.02s.05.01.09,0c.04,0,.08.06.07.11.02-.02.06-.04.09-.01,0,.02-.02.02-.03.02.06.08.15.01.17.09,0,.02,0,.02,0,.03-.06-.04-.11-.07-.1-.07-.02.04.02.08-.05.11.06,0,.17-.04.2.01,0,0,0,.01,0,.02h0s.02.01.03.01c.01.02.02.03.03.04-.01.04.05.05.07.07.02-.05.05-.02.04-.07,0,0,0,0-.03,0,0,0,0,0-.01,0h0s-.04-.02-.06-.04c.03-.01.06-.02.08.02.03-.02.06-.04.08-.05,0,.08.04.15.03.2.09.02.19.09.28.03.03,0,.01.04.01.06-.02,0-.03,0-.05,0,.06,0,.13.07.18.01.04.06-.06.04.02.07h-.02c.09.19.33,0,.42.21,0-.01-.01-.02,0-.03.16.16.41.17.55.36.04.05.07.01.12,0l-.02.05.09-.02c.1,0,.09.2.24.15v-.04s.13.01.12.05c0,0,.02-.04.03-.01v.03s.11-.03.11-.03c.08.03-.03.11.1.13.05,0,.13-.08.12-.1-.02,0-.05-.02-.05-.05h.04s0-.03,0-.03c0,0,0,0,0,0,.05,0,.1-.01.15-.02,0,0,0,0,0,0,0,0,0,0,0,0,.1-.01.2-.03.29-.06v.02s.01-.03.01-.03c.02,0,.03-.01.05-.02,0,.01,0,.03,0,.04.05.02.03-.04.08-.01,0,0,0,0,0,.01l.03-.04s.03.05,0,.05c.09,0,.09-.11.14-.07h0c.06-.05.02-.05.01-.09.01,0,.02-.02.04-.03l.09.07-.02-.05s.03-.01.04,0c.01-.05-.02-.02-.02-.06.07.01.1-.11.16-.05-.01-.04-.06,0-.04-.05.08.06.04-.05.1-.06.03.04-.03.06.04.06-.04-.08.08-.06.09-.1-.02-.01-.02-.03-.01-.04.01.02.02.03.01.04,0,0,.02.01.03.02,0,0-.03-.04-.04-.06,0-.03.05-.07.07-.12.02.02.1-.09.15-.14h0c-.05-.03-.02-.09-.01-.14.04.02.05.03.06.06l.02-.04s-.02-.04-.02-.07l.04.03c.02-.06-.02-.14.03-.21-.03,0-.09,0-.13,0,0-.01,0-.02,0-.04.02,0,.03.01.04.02,0,0-.02-.03,0-.04l.04.04s-.03-.02-.02-.05c.04,0,.03-.02.06,0,0,0-.02.02,0,.04ZM22.12,21.99h0s-.01.01-.02.01c-.02,0-.02-.02-.02-.03,0,0,.02,0,.03.01ZM25.15,22.84s0-.01,0-.02c0,0,.02,0,.02,0,0,0,0,.02-.02.03Z"/>
      <polygon class="cls-1" points="22.17 21.97 22.18 21.97 22.18 21.95 22.16 21.96 22.17 21.97"/>
      <polygon class="cls-1" points="26.13 21.39 26.12 21.39 26.13 21.39 26.13 21.39"/>
      <path class="cls-1" d="M25.57,22.68l-.07.04s.05.02.03.04c.12-.02-.04-.02.04-.08Z"/>
      <path class="cls-1" d="M25.77,22.53s.02.02.03.03c0-.03,0-.04-.03-.03Z"/>
      <path class="cls-1" d="M26.04,20.84h.05s-.02,0-.05,0Z"/>
      <polygon class="cls-1" points="25.78 20.3 25.82 20.32 25.83 20.33 25.78 20.3"/>
      <path class="cls-1" d="M23.35,18.9s.06-.05.02-.06l-.02.06Z"/>
      <path class="cls-1" d="M22.2,18.26s.05.05.06.04c0-.03-.03-.06-.06-.04Z"/>
      <polygon class="cls-1" points="20.18 20.64 20.22 20.67 20.21 20.65 20.18 20.64"/>
    </g>
  </g>
</svg>