<svg xmlns="http://www.w3.org/2000/svg" width="23.264" height="472" viewBox="0 0 23.264 472">
  <g id="Group_8" data-name="Group 8" transform="translate(-1736.293 -211.251)" opacity="0.3">
    <g id="Group_6" data-name="Group 6" transform="translate(1740.451 645.304)">
      <path id="Rectangle_4" data-name="Rectangle 4" d="M-1-1H14V13H-1ZM12,1H1V11H12Z" transform="translate(0.002 -0.053)"/>
      <path id="Rectangle_5" data-name="Rectangle 5" d="M-1-1H14V14H-1ZM12,1H1V12H12Z" transform="translate(0.002 11.947)"/>
      <path id="Rectangle_6" data-name="Rectangle 6" d="M-1-1H14V14H-1ZM12,1H1V12H12Z" transform="translate(0.002 11.947)"/>
      <path id="Rectangle_7" data-name="Rectangle 7" d="M-1-1H14V13H-1ZM12,1H1V11H12Z" transform="translate(0.002 24.947)"/>
    </g>
    <g id="Group_7" data-name="Group 7" transform="translate(1740.451 212.113)">
      <path id="Rectangle_4-2" data-name="Rectangle 4" d="M-1-1H14V13H-1ZM12,1H1V11H12Z" transform="translate(0.002 0.138)"/>
      <path id="Rectangle_5-2" data-name="Rectangle 5" d="M-1-1H14V14H-1ZM12,1H1V12H12Z" transform="translate(0.002 12.138)"/>
      <path id="Rectangle_6-2" data-name="Rectangle 6" d="M-1-1H14V14H-1ZM12,1H1V12H12Z" transform="translate(0.002 12.138)"/>
      <path id="Rectangle_7-2" data-name="Rectangle 7" d="M-1-1H14V13H-1ZM12,1H1V11H12Z" transform="translate(0.002 25.138)"/>
    </g>
    <g id="Group_5" data-name="Group 5" transform="translate(1737 436.326)">
      <path id="Line_1" data-name="Line 1" d="M21.143,22.557-.707.707.707-.707l21.85,21.85Z" transform="translate(0)"/>
      <path id="Line_2" data-name="Line 2" d="M.707,22.557-.707,21.143,21.143-.707,22.557.707Z" transform="translate(0)"/>
    </g>
  </g>
</svg>
