<?xml version="1.0" encoding="UTF-8"?>
<svg id="Layer_2" data-name="Layer 2" xmlns="http://www.w3.org/2000/svg" viewBox="0 0 1163.18 406.21">
  <g id="Layer_1-2" data-name="Layer 1">
    <path d="m783.53,221.83c1.95,1.91,2.51,2.73,5.28,2.06-1.51-9.93,14.28-2.36,19.87-8.63,5-2.25,9.94-3.68,16.49-3.51.7,3.22-2.98,2.64-1.41,6.98,7.33.14-.17-12.52,20.45-13.38,1.86-.24,3.65-.03,5.54-1.37,2.82-3.8,7.54,7.43,9.05,1.04,4.53-1.24,12.26-8.17,15.25-5.71q2.01,1.82,3.59-.4c2.08-3.45,5.62,5.86,4.5-1.74,5.6-3.49,12.19.11,18.71-3.21.92-4.44,7.42-3.52,7.59-7.72,26.43-.38,45.69-11.78,67.66-19.59,10.5-6.46,20.92,8.7,20.7-7.01,4.94-2.09,9.99.58,15.18-.29-1.84-8.16,4.1-3.44,7.72-2.93,2.13-3.57,11.86-15.79,14.63-7.37-.21,5.11,6.66-.16,5.98-3.82,6.14.28,8.65-.65,9.06-6.8,1.26-3.59,4.3-.86,8.3-1.67-7.96-3.12.03-1.39,3.11-1.61-1.47-4.64,6.11-3.58,4.47-8.04,9.71-4.23,15.56-10.71,24.31-15.68,2.19-2.72,7.52-2.67,9.19-5.25.3-2.59,2.73-.76,3.67-1.65,4.05-2.45,5.12-7.49,9.93-8.43,4.65-5.67,8.54-14.63,17.15-14.03-2.12-7.88,4.8-10.3,7.66-14.98,1.65-3.56,1.75-9.7,4.95-12.2-7.7-7.06-8.29-7.56-12.64,1.88-4.83-.32-10.5,6.87-15.56,1.18-.17,2.81-1.39,5.27-3,7.12-8.08-3.88-12.32,8.92-15.31-.99-6.61,2.39,2.76,3.47-3.22,5.67,2.29.82,4.71,1.45,3.88,4.71-5.94,2.65-12.32-.68-13.9,6.96-2.68.8-5.18.64-4.57,4.04-3.45,1.93-18.19.32-12.41,6.58-5.35,4.07-7.42,7.17-10.45,13.27-3.15,1.78-8.92.08-8.99,6.74-2.85.23-5.1,1.37-4.23,5.21-7.91.17-7.77,10.42-19.79,6.15.18-3.84-4.89-2.87-4.37-6.98,2.76-3.43-2.21-9.75,2.8-10.99-.48-3.05-.44-6.23,3.63-7.18,1.9-5.09,1.17-9.73,6.47-12.86,2.31-5.6,3.68-18.16,10.88-19.93,1.9-4.3,10.42-28.06-1.15-17.78-5.1,2.51-5.95,6.31-9.74,9-2.83.9-5.5,4.07-6.15,7.33-.58,2.56-4.08,1.7-6.46,2.15-.12,1.09-.24,2.2-.38,3.52-5.87-.78-2.48,6.03-7.37,5.65,2.69,8.6-14.9,7.3-9.65,14.17-11.09,5.25-21.76,13.78-22.78,26.2-9.05,4.75-15.56,12.66-21.4,19.82-.71.84-1.13,2.52-1.86,2.64-2.59,1.01-.42,3.07-3.49,4.6,1.09-9.92-8.23-12.65-10.1-20.93-1.45-4.76,1.04-8.25.21-13.24-2.86,1.85-6.2,2.08-5.65,6.18.02,1.83-3.79,2.53-4.38,2.93.19,2.83-3.6,1.86-5.19,3.37-8.21,3.53-1.9,8.56-13.89,12.17-5.94,10.79-13.3-1.51-13.47,8.77-1.49,2.09-5.56,3.35-.81,4.31.54.84-2.68,2.2-6.1,2.58-.94,2.32-1.72,4.85-4.76,5.14-3.73,8.09-11.38,3.04-18.06,3.77-3.62-3.95-4.56,1.61-10.24.45-1.69-4.06-9.5-7.07-7.57.46-3.01,1.82-10.58.62-9.57,5.5-3.02,1.79-7.29-4.06-11.72-2.37-.96-6.44-3.43-12.47-10.85-12.41-2.56-6.96,4.25-7.18,3.52-13.34-.92-2.78,2.64-2.37,2.36-4.55.46-9.42,5.03-16.09,5.32-25.62,5.7-2.24.38-6.06,3.3-8.41,5.8-3.79,5.41-11.03,4.17-18.07-12.71,2.21-10.31,16.7-24.89,16.51,1.58,6.25-8.04,4.04-9.31,10.7-5.49,5.79-13.14,8.32-16.76,15.35-8.68,2.68-12.36,13.89-22.56,14.54,2.36,6.41-6.2,4.79-5.77,10.05.19,1.76-3.26,1.1-2.33,3.94.53,1.61-1.8,2.63-3.82,2.56-2.52,4.41-7.56,6.79-5.6,12.78-4.91,5.64-10.88,7.5-16.65,11.65-2.15-4.4-6.32-3.96-10.2-4.22-3.95-3.12-5.2-15.69-10.44-13.31-7.32.99-3.71,6.31-7.64,11.12-2.98.4-2.33,4.14-5.83,4.37-3.95.22-5.4,4.98-9.04,5.31-3.37.36-6.58,1.81-8.62,5.26-5.84-7.22-6.4,2.59-11.03-.03-5.52-1.18-11.32-10.34-17-4.63-1.87,4.61-7.39,6.16-8.35,12.21-3.56.97-7.14,4.1-11.87,3.3.16,8.78-11.35,1.97-10.86,8.82-22.45,9.85-19.88-18.18-35.88-10.33-6.45,7.11-13.58,11.69-20.16,16.88-.51,3.52-5.04,2.91-7.79,4.32-3.32,3.41-8.37,4.1-12.32,6.03-12.87,11.74-50.23,26.85-46.78-1.99-1.41-4.25,3.25-4.72,2.91-9.46-1.15-3.02,5-5.41,2.43-7.18-5.88-.05,7.19-15.39,8.78-18.81,1.56-3.06,4.8-10.57,2.08-10.18-1.53-6.18,8.69-5.05,8.12-16.13,10.1-20.55-35.46,9.29-43.36,11.25-5.02,7.04-11.96,12.03-21.79,14.22-.43,2.22-.05,5.28-3.82,5.12-2.33.64-1.35,4.2-4.74,4.15-3.48,1.33-6.28,6.45-10.7,6.73-2.18,2.82-5.6,7.25-10.52,6.49-.8,4.66-8.86,2.91-12.78,4.86-5.11,7.64-17.2,13.29-23.39,18.8-3.28,2.41-9.1,3.83-11.31,7.71-6.41-.1-12.8,5.68-19.09,6.19-1.48,3.29-5.84,4.94-6.55,8.76-5.39.21-7.41-2.15-9.19,5.14-3.75,1.68-8.46,1.31-9.82,6.06-4.93-.89-9.35,3.25-10.8,6.78-7.42-.5-12.17,5.71-18.66,7.41-2.65.81-6.94-.63-7.47,3.95-1.95,2.16-5.04,2.51-7.43,3.56-.3,2.74-1.93,3.37-4.41,3.64-5.11,3.77-15.46,4.43-16.82,9.16-4.46,1.43-10.64,1.11-13.08,6.27-7.15-1.3-12.15,5.1-18.19,6.47-4.41-.56-8.01,1.12-11.67,3.2-.9,3.11-8.45,3.73-9.21.35-1.32,4.07-9.1,8.94-7.92.47-3.06,5.56-6.72,11.49-14.49,10.77-.36,4.94-1.51-.86-3.82.32-1.52,4.36-7.61,1.48-11.43,4.31-1.28-.27-4.24-2.53-3.24-5.56-7.64.03-6.4,9.82-15.79,8.27-.93.71-.05,2.72-2.34,2.67-2.98-1.54-6.52-4.41-8.11.36-29.32,2.11-33.41-22.67-10.45-37.74,1.31-.28.45-3.39,2.93-2.58,14.98,2.37,11.32-20.75,28.39-17.74,1.07-6.8,8.32-4.26,10.25-10.4,1.95-1.47,3.18-1.99,2.78-4.75,2.33-.07,4.5-1.75,7.45-.95,9.21-3.11,21.25-3.05,26.63-10.89,4.06-1.03,4.94-7.86,10.9-7.25,3.36.07,6.23-8.64,9.33-2.11,5.09-.31,5.09-10.46,12.76-9.39.2-7,4.35-3.57,9.1-4.25,4.41-4.14,10.69-1.48,10.02-10.12,6.05,8.97,11.7-9.82,16.05,3.51,4.37-.63,3.56-6.33,7.55-7.05.77-3.94,2.37-5.05,5.29-8.5,14.63,3.27.83,7.34,5.14,17.2-7.86-12.07-7.98,13.87-15.71,2.08,1.04,11.16-12.81,1.06-13.82,10.63-4.62,6.92-13.47,5.85-22.01,7.4-.1,2.39-3.47,4.21-5.31,4.81-2.21.34-1.35,3.93-4,3.07-4.12,5.85-9.76,7.49-16.66,7.26-4.33,2.44-15.15,14.7-22.99,11.87-5.76-1.78-6.71,5.53-8.1,9.5-3.13.79-8.26-1.25-8.4,3.28-2.92-.42-5.97-2.77-9-.28,2.02,11.76.29,16.79-9.12,23.45-1.99,4.18-11.42,4.66-8.99,10.9,16.23-.89-.09-7.56,18.66-2.51.3-1.21.53-2.53,2.42-2.3,2.9.64,3.54-3.68,6.62-2.88,5.94-1.91,2.58,3.25,6.29,5.26,5.81-1.32,1.68-9.03,7.04-10.28,7.02-3.28,13.56-6.98,22.37-7.21,8.34-2.98,9.29-9.32,7.78,5.14,7.6.74,10.22-11.11,18.28-12.63,13.65-19.33,18.34-.44,19.87-12.15,8.22-1.17,9.33-13.17,17.78-8.83,5.25,3.22,10.13-8.59,16.97-11.2,10.49-5.92,2,7.95,10.65,2.42-2.04-5.12,10.83-19.79,15.57-16.95,1.99,3.58,6.89,1.55,4.8,7.28,3.31.53,13.33-1.61,4.75-4.43,7.24-7.91-3.94-13.54,16.08-12.71.76-3.71,6.17-3.37,6.91-7.9,3.5-3.24,7.09,2.48,9.8,1.39,1.72-1.95,1.66-2,3.06.46.55-2.45,1.28-2.75,3.81-2.72-.23-6.73,4.05-10.02,6.21-15.78,13.42-1.89,22.63-12.29,36.28-13.15,10.55-17.33,9.13.54,15.16-9.43,4.72-2.01,4.71-8.4,2.74-11.72-7.72,5.82-17.53,2.34-22.73,10.95-15.82,2.47-28.89,9.62-45.56,9.51-3.64.18-3.53,4.31-6.55,5.34-7.15.42-12.24,2.95-17.9.17-.99,4.79-.1,7.86-6.49,5.16-2.16,2.24-4.13,5.99-7.63,5.07-1.06-3.27,3.27-4.48,1.52-8.94-15.52-12.15,1.14,19.55-15.35,14.85-.14.15-6.14-4.31-8.99,1.19-.47-2.13-2.85-4.47.76-5.35-.6-11.04,12.33,1.73,5.44-13.07,10.14-9.83,22.92-5.9,32.36-13.75,1.47,5.47,3.37,7.14,9.03,4.28-3.52-14.26,10.9-6.76,17.28-9.65,2.14-8.01,11.64-3.66,2.34-.99,10.49-.3,23.64-4.53,32.82-9.87,14.29-2.25,27.23-6.36,40.94-12.95,2.01-1.32,3.89-9.45,5.72-1.65,4.97.15,8.64-2.67,13.81-.49,1.33-5.44,5.09-6.34,9.35-7.54.46-3.32,3.43-2.87,5.51-3.73-4.53-6,2.91-8.27,4.27-12.73,5.79-1.18,6.36-4.63,5.23-10.05,3.29-2.31,3.84-4.14,1.93-6.65-3.43-1.83-2.94-7.33-8.1-5.52-2.18-7.12-47.12-8.62-46.12-14.17-4.7-4.71-14.23,5.21-15.03-2.66-12.95-.79-16.32,3.86-29.93-.55-16.6,7.04-29.59-4.82-39.46,6.82-19.15,2.88-25.04,4.98-37.66,19.33-2.83,4.44-12.3,6.69-15.23,12.38-1.97,4.86-6.86,2.22-9.83,7.39-4.65,1.09-5.63,7.06-9.47,10.26-7.39,2.4-11.39,8.6-17.47,13.04-5.88,2.16-13.3,6.84-16.97,12.92-5.57,2.38-10.58,5.49-13.6,10.65-10.63,1.32-14.81,12.22-25.25,12.18.91,2.67-2.84,1.97-2.73,4.52.08,1.86-2.53,1.98-4.34,2.11-5.81,6.6-13.53,8.28-20.77,13.91-2.35,2.67-8.54,2.79-9.67,6.26-5.86.45-7.65,4.07-11.94,6.9-2.36.4-4.78.14-5.11,3.55-13.43,5.64-26.24,10.51-39.75,15.4-7.71-.87-9.35,8.86-17.44,3.31-14.15,19.75-124.23,39.79-94.31-14.22,4.53-8.07,11.22-6.28,11.42-16.21,4.95-1.59,6.69-5.37,10.2-9.25,3.12-.89,6.02-3.38,7.75-6.47,2.17-5.26,9.61,3.27,10.36-4.26,4.44-.88,2.07-4.93,4.98-6.98,10.01-8.14,14.58-15.04,11.52,2.18-3.71,7.09-8.81,14.32-13.11,21.58-5.15,1.46-7.21,6.8-8.38,10.98-2.77,5.09-9.92,3.81-7.88,10.5-.17,4.6-9.03,13.59-.58,15.13,1.9-.52,1.57,1.22,2.27,2.16,2.03-5.65,8.28-2.85,12.24-4.59,6.74.97,10.08-2.65,16.53.03,4.25-3.23,4.19-11.26,9.42-.53,3.53-2.4,16.02-13.3,17.62-8.47,1.74-3.91,2.34-4.17,6.81-4.36,2.31-1.1,6.23-.46,6.88-3.46,3.73-3.33,6.5,4.78,9.66,2.43,2.78-1.09,1.8-3.54,1.82-5.59,4.05-2.38,10.2-5.22,12.94-9.75,3.11.73,3.93,4.01,7.42,4.47,1.79-2.13-.95-5.05,2.48-6.19,3.46,2.58,5.02-.46,8.57-1.49.48-3.51,4.84-4.29,5.81-7.91,8.88-9.57,21.46-5.59,28.64-15.69,3.96-.63,13.49,1.03,13.04-6.08,7.94-9.27,17.65-13.56,27.23-21.05,4.29-1.83,3.59,4.67,8.74,2.62-1.74-8.42,10.35-16.63,16.98-20.3.99-.07,2.61-.98,2.72-1.69,1.31-4.32,8.76-1.23,8.35-7.41,1.3-6.35,12.2-4.16,12.74-12.07,12.06,4.56,15.89-19.32,28.66-22.3,8.86,3.14,13.57-10.13,3.41-7.82-4.74,2.93-22.54,10.41-24.96,2.38-2.5-.78-11.99,7.58-9.01-1.85,2.18-.16,1.29-3.87,4.16-3.05.69.2,1.95-1.61,2.87-2.42,1.45-.61,2.57,2.42,3.64.49,8.12-7.74,21.6-5.19,33.02-8.11,1.94,5.98,13.94-1.09,14.44-4.56,6.84-1.45,6.57-9.01,12.56-13.05,6.82-8.98,12.91-19.55,16.99-30.23.28-6.61,13.31-7.29,6.94-13.6-7.44,1.75-11.33-1.69-14.59-7.78-2.63.03-9.56-3.14-9.52-1.15-5.9,6.71-8.8-2.79-16.7-.24-12.32-2.65-11.11,2.38-19.33,5.09-29.54,7.34-67.08,5.72-95.61,20.19-12,3.67-25.87,4.57-34.93,12.17-5.63,1.01-14.9,1.22-17.97,6.21-9.01,7.04-16.94-.06-23.82,10.1-4.59,4.35-9.41,7.55-14.81,11.84-4.72,2.26-14.06-5.76-14.48,1.78-3.26.31-1.25,3.77-2.99,4.87-4.67,1.9-6.47,4.85-11.6,6.41-4.32,6.86-11.04,5.26-14.46,12.49-3.71,2.73-6.79,5.92-10.69,8.12-2.32,1.17-5.64,1.1-6.28,4.6-17.37,13.42-27.21-18.44-10.95-18.49.19-4.11,5.73-1.38,6.72-5.36,5.21-6.21,3.03-9.82,12.91-9.49-.62-7.03,10.8-6.68,16.17-10.67,4.11-5.89,8.26-7.1,14.74-7.37,1.62-6.09,6.14-10.08,13.22-9.1,7.7-7.59,21.75-3.34,25.93-15.16,3.91.2,7.18-.56,8.84-2.56,3.6,4.23,8.73-.07,10.75-3.64,7.67,5.8,9.74,10.89,17.15-.94,1.71-2.58,6.21-1.7,7.09-5.49,2.45-2.33,9.65.77,12.27-4.16,4.89-5.78,11-.52,14.58-7.49,18.44-2.71-.4,12.62,25.31-4.26,11.04-6.05,4.03-1.04,13.25-1.12,20.19-11.64,8.32-1.84,22.53-1.78,1.16-6.71,10.27-.71,10.95-7.47,4.84-3.31,14.02-4.49,14.61,2.13,2.76.73,3.78-2.84,6.7-.67,8.18,2.7,4.46-10.04,14.8-5.66,6.32,10.09,6.59-1.19,20.88-1.55,6.6,2.83,10.45-2.11,17.3,2.26.88.42,2.24,1.72,3.17-.17,25.08-1.32,27.82,17.66,22.37,36.29-1.44,7.7-7.09,15.93-9.1,23.08-1.34,6.04-9.54,8.57-2.98,14.87,1.38,3.99,5,1.23,6.3-.69,3.03-.27,3.08-.33,7.45,1.88,5.8,2.83,11.48-4.72,15.29,3.66,6.84-2.29,24.1-18.19,23.32-1.15,6.62,3.15,8.31-6.75,13.78-5.04,2.97.39,6.31.91,6.91,4.98,8.51-.19,8.46-4.02,12.42,6-7.37,4.43.79,6.26,5.93,4.9,1.69-7.42,1.31-12.4,11.54-9.2,4.57.7,8.75-2.04,7.71,5.43,8.27-3.39,9.84,6.38,16.38,2.97,5.15-1.86,8.22,5.36,13.1,5.12.54,3.37,3.05,1.28,4.65,1.73,4.55,3.7-.3,12.8,4.79,14.25,3.47,5.45-4.64,9.59-1.88,15.14,5.09.6,14.95,9.09,15.31,1.2,4.32-3.99,13.66.73,13.25-6.8,5.92-5.61,23.35-1.04,23.94,6.86-12.33.05-6.49,3.67-9.81,10.99-4.84,5.16,4.09,7.01.98,14.02-7.26,10.98-13.89,19.64-19.57,31.26-.47,2.72-2.69,3.51-4,5.59.41,4.26-2.85,3.43-5.38,3.86-6.35,15.28,19.54,13.04,24.99,3.75,2.68-5.21,8.36,4.26,8.74-7.22,4.84.59,4.02-5.15,9.38-4.62,1.19-1-.83-3.37,2.11-4.07,1.63-.39,3.45-2.72,2.3-5.74,6.06.35,8.61-4.67,11.68-8.84.78-8.22,7.67-11.58,12.89-17.67q.06-3.9,3.91-9.59c-.04-9.57,12.93-7.49,11.6-12.64,2.18-5.18,5.22-10.56,7.59-16.9.57,6.17,17.25-1.33,13.92,7.95-2.31,3.86,5.08,5.18,1.67,8.53-2.82,1.87.5,6.02-3.11,6.34.86,9.59-4.24,15.54-10.71,21.6-4.48,7.25-6.73,15.72-11.7,22.65,11.14,6.58,17.23-9.49,26.59-11.19-.36-5.24,3.66-10.2-3.32-13.45,5.54-1.5,2.15-3.68,2.65-7.08,1.23-12.48,11.95-15.15,5.31-18.81.43-1.16,2.21-.54,2.39-2.67,1.09-8.67,10.99-8.64,15.34-14.17.71-1.78-.77-5.08,2.38-4.38,14.5-20.51,12.67-10.11,30.22-6.04,1.73,3.78,5.75,5.82,1.44,9.61.41,5.07-.61,10.68-2.56,14.63-2.1,1.45-.86,4.03-2.33,5.99-4.58-.52-2.15,5.03-5.32,7.25-4.74,5.33-5.59,11.47-5.69,17.18,3.91,5.31,10.22,1.59,11.8-4.19,3.42-12.16,14.47-18.13,22.74-27.91,3.82-.64,5.06-6.6,6.81-1.59,4.61.88,2.04-4.34,5.8-5.46,1.78-8.51,5.61-17.27,12.53-22.38,3.31-2.02.55-8.18,5.9-7.77.62-1.73-.47-4.53,2.71-5.01.34-.05.75-1.23.71-1.85.31-5.59,5.68-1.66,8.98-2.19,2.64,2.04,3.06,7.11,7.99,5.28,0,3.39-4.58,11.48.87,13.36,5.56,7.71-14.15,23.49-.69,22.54.33-11.14,7.64-11.93,14.22-17.66,7.67-8.33,14.7-17.25,26.3-18.77.42-10.67,12.38-9.85,15.94-17.26,0-4.09,4.89-3.62,7.77-3.81,3.91-7.75,11.42-8.19,17.61-6.21.18-6.33,4.25-4.73,8.9-5.37,3.4,2.37,1.75,8,6.23,9.78,1.08,3.88-.4,4.51-1.84,7.3,10.61,4.48-17.49,47.77-6.62,40.38,3.79-9.1,7.19-11.33,8.05-20.46-.26-2.51,2.67-2.52,3.33-4.59,1.68-4.89,6.94-17.5,13.69-11.68,4.39,6.15,11.07,3.64,3.11-1.43,1.39-2.55,11.81-10.49,8.07-12.09-5.39-3.29,3.21-4.96,6.35-5.78-.07-7.53,6.58-8.05,10.02-13.95,9.87-6.01,13.78-14.34,28.8-6.96,17.14,2.81-1.21,21.31-.22,32.91-.28,2.14-4.04,1.69-3.32,4.67.16,3.99-6.81,3.59-.08,6.62-6.5,6.33-16.9,9.08-13.58,19.59-23.18,10.5,7.12,27.05,6.71,5.16,5.53-1.88,4.06,6.34,8-.97-2.03-11.71,2.37-13.17,8.02-22.66,1.83-1.76.95-5.24,4.09-6.25,1.8-2.29,1.16-5.65,4.79-6.64-.72-5.33,1.77-1.6,3.83-.83,3.56-5,8.42-13.43,14.98-15.49-3.03-7.26,4.91-7.4,3.93-13.4,2.97-.53,6.94.2,8.01-2.47,1.77-3.34,4.27-2.63,5.97.1,3.18.21,10.32-2.64,10.33,2.91-1.76,12.17-6.42,39.74,10.8,20.71.49-1.97-.15-4.5,2.94-4.95,2.67-3.13,3.82-7.25,8.98-6.61,3.66-1.36,5.94-5.55,10.82-5.58.46-5.46,5.24-8.5,9.26-11.76,1.95-3.91,6.06-2.67,8.1-5.1,10.57-18.76,28.56-29.33,33.54-.15-4.11,4.22-3.36,9.11-3.69,14.35-6.66,1.51-1.01,9.77-6.34,10.65-.2,3.89,1.4,8.97-3.45,11.18-11.91,21.48,1.56,15.57,12.4,3.76,7.74-4.26,10.12-3.64,19.34-4.17-.51-2.56,2.29-1.92,4.25-2.16.92-3.32,2.32-6.77,6.34-6.71,4.23-.16,2.75-4.84,6.33-5.75,1-.84,3.23-.81,2.74-3.04,6.41-3.78,14.37.36,21.24-6.23,2.37-2.01,4.43.12,6.01,1.46,6.69-1.38,14.53,4.7,16.31,10.75,2.17,11.39-4.28,19.06-5.36,29.08-5.62,7.52-9.09,15.36-14.95,22.75-6.98,7.56-13.88,14.15-20.72,22.2-5.05,1.04-5.98,4.86-10.6,6.97-1.43.13-1.19,1.03-1.49,1.95-1.99,2.92-5.78,1.8-6.38,6.37-4.4-6.49-7.46,1.09-13.05.6-7.54,15.97-17.83.24-18.58,15.78-1.46,1.8-4.3,2-5.27,4.95-4.02,2.06-7.61,2.82-12.14,2.2,1.78,9.2-5.31,1.91-9.59,5.23-4.34,7.71-10.99,3.32-15,8.84-1.64,2.95-6.66,2.37-9.39,4.05-2.9,2.21-6.32,5.27-11.22,4.51.43,7.4-3.47-.32-9.39,2.1-.78,6.76-9.37,1.56-12.96,5.55-4.68,3.84-14.45,4.83-20.69,5.58-5.15-1.8-6.31,5.02-11.87,6.61-8.21,2.26-24.01,3.29-28.51,10.31-5.23-1.62-10.06,1.86-14.89,1.01-1.96.84.84,4.2-2.85,3.84-.44-8.92-3.22-1.26-8.46-1.37-2,5.66-19.36.57-19.14,9.38-4.24,1.36-7.63-2.73-10.71,1.52-.56.61-2.16.67-3.14.41-4.66-.91-9.43-2.15-8.81,4.32-.15-3.14-5.05-5.45-5.87-.51-4.4,1.75-3.9-2.21-7.86-1.77-1.19,9.18-8.48.53-14.43,5.06,4.98-.21,7.26,3.29,10.82,4.76,3.69,2.95,6.71-.47,10.78-.65,1.17,6.82-7.8,10.64-6.24,18.23-4.22,2.42-8.02-5.52-10.57.62-2.6,1.83-3.48-.86-4.87-2.68-1.48.85-5.9,3.23-5.96-.42-4.15-.44-6.35-5.34-8.61.99-3.37,5.1-7.12-2.24-10.25-2.54-.34,4.44-5.43,1.69-8.28,4.06-5.32,1.31-15.25-5.38-22.33-4.25-.36-.04-.99-.19-1.01-.35-.49-3.7-3.15-.88-4.45-1.82-.81,2.95-7.44,5.43-10.37,5.74-12.8-.49-26.79.9-39.77,2.64-9.85,4.65-21.63,6.98-33.53,5.07-3.59-.31-5.38,2.17-7.35,4.33-9.67-2.24-21.41,4.16-34.19,3.48-12.34,6.8-24.42,7.4-39.15,8.95-17.3-2.7-46.07,16.33-53.17,3.92,2.35,8.07-13.28,5.75-19.16,7.43-3.58.79-6.55-4.73-9.19-.14,17.67,1.68-26.87,10.49-27.91,5.1-3.35,4.27-9.1-.72-10.16,6.96-11.24-1.02-19.06,3.98-29.39,6.88-6.22-1.77-14.73,1.63-19.33,5.04-1.49-2.87-6.5-3.2-9.48-1.73-2.15,2.04-3.61,4.96-7.04,3.47-8.37.5-18.67,9.92-24.26,3.34.5,4.41-29.54,12.17-13.2-6.4-.31-19.33,14.48-12.72-16.17-10.24,2.13,6.19-15.7,3.6-5.41-2.79.99-7.25,9.68-1.88,11.03-7.45,1.29.25,2.38-2.04,3.79-.3,5.1.3,7.63-6.4,14.28-5.73-.25,3.33,2.46,1.57,3.79,2.36-2.48,3.77,1.52,4.97,2.53,8.83-8.86-3.28-7.94,17.85-4.31,14.17,7.94-5.49.78-8.11,12.95-9.83,2.32,3.83,9.36-6.14,18.29-3.41,3.99,6.54,5.62-3.59,9.82-5.74,5.59,1.05,11.15-3.21,17.3-3.66.91,2.08-.2,2.21-1.37,2.72-2.17,4.98,6.7,3.03,7.14-.65,2.93,3.74,6.42,4.04,7.41-1.84,1.42-1.14,7.3-.67,7.52-3.91,10.02,1.56,3.05-1.56,11.02-1.4,4.13,1.94,7.49-3.99,11.65-2.22,4.76.56,10.26-1.17,12.96-4.04,7.3,1.24,17.26-4.57,22.54-.88.38.94,1.17,2.89-1.39,3.07-2.2,6.4,6.28,2.57,6.79-1.35,3.64-8.45,12.63,1.69,13.7-8.31,15.24,2.21,1.22-.1,15.05-3.83,8.64-9.1-7.94-2.53-13.09-2.63.14-3.34-.56-3.34-3.86-4.47,4.28.28,2.42-2.82,3.62-4.02,3.79-6.48,8.12.11,13.02-1.07,3.32-3.86,10.11-5.26,14.68-3.11,6.23,6.04,13.08-8.22,17.85.83,10.06-4.59,19.78-6.13,29.06-8.15,10.71,9.04,16.07-3.08,24.58-2.84,4.14,3.55,9.32,13.77,13.74,4.91,5.2-5.16,25.72-14.34,25.34-2.12,8.03-2.51,4.85-8.17,14.57-6.9,11.13-2.42,20.53-.27,31.8-2.29,4.51-.48.27-4,7.3-4.92,9.78.18,19.44-4.19,29.95-3.76,6.54,1.06-5.82,16.62,12.23-.98Zm103-123.36c9.72-7.21.91-22.22-2.77-7.02-3.88,1.03-.61,3.36-1.41,5.3,2.99-1.82,3.41.42,4.18,1.72Zm-17.35,16.95c6.9,2.35,14.41-.95,6.08-6.21-2.83-.43-7.07,3.13-6.08,6.21Zm-122.42,247.86c-10.1,7.26-18.44,2.14-26.42,11.4-16.77-4.73-33.24,6.66-50.03,7.34-6.32,2.22-3.2,5.11-9.13.57-1.32,3.83-10.74,6.42-17.5,5.17-5.14-2.35-9.04,10.86-10.25,2.03-14.07,9.19-25.79,1.97-40.2,9.1-.34,3.66,2.85,2.78,4.09,7.32,2.38-4.62,2.68-6.7,8.49-5.42,21.93,3.4,41.13-5.64,61.15-9.85-5.95,17.19,15.23-5.07,24.67-1.6-3.43,12.27,7.28-8.62,11.9,2.47,2.39,2.38,4.21.53,5.79-1.8,4.45-.7,15.41-1.65,15.4-6.42,7.37-3.33,16.85-.69,25.01-2.61,5.03.08,4.7-3.03,7.98-3.99.05,5.31,5.27,1.63,7.84,1.44,5.89-6.98,17.01-4.63,24.45-6.9,1.07-3.25,7.31-3.44,10.02-3.67,3.86,1.4,8.27-1.25,11.17-4.45,9.15-.43,9.05-2.76,19.68-4.09,1.28-5.99,7.54-3.23,12.16-3.52-2.05-4.22-1.42-5.47,3.04-5.88,3.12-.15,6.43.2,5.13-3.75,8.64.79,13.15-6.07,20.47-7.63,10.17-4.51,19.17-9.46,26.75-18.69,1.91-3.02,6.05-4.4,8.78-4.68.07-3.82,3.03-3.53,4.02-6.84,5.28-3.38,3.6-9.14,7.14-13.22,4.75-7.27,6.16-12.1,4.64-21.17,4.71-9.68-5-5.44-5.97-11.03-8.29-.91-2.77-11.77-16.15-16.84-5.11-.93-3.87,4.6-8.85,3.47.83-4.4-4.14-2.53-6.86-4.6-4.19-6.65-9.63-4.15-4.06,1.79-5,4.09-2.26,3.45-7.11-.57-1.95-4.48,2.91-5.58,1.18-9.25-7.26.24-13.9-1.14-21.09,1.68-1.92,8.79-9.95,9.81,4.31,14.95,3.54-5.38,12.51-3.06,15.08,2.76-9.31,3.95-10.4,8.21.6,5.96,3.4.7,4.25-2.18,4.69-4.99,10.74-3.19,8.43,5.4,10.42,12.49,5.36-3.31,11.24,3.16,10.69,8.44-1.75,4.9-8.07,20.1-13.38,20.86-1.76,4.64-6.59,4.64-9.01,8.93-.61,1.31-1.65,2.76-3.65,2.57-1.85,1.61-2.42,4.86-4.53,6.7-4.31,7.49-14.75,6.76-22.89,8.63-2.74,4-10.07,7.25-15.06,7.15-8.99,8.25-17.56,12.17-29.34,15.68-3.48,2.88-4.4-1.26-7.63-1.01-5.3,1.46-7.33,7.11-13.24,8.19-4.03-.27-7.21.29-8.93,2.93-3.79,1.31-22.3,2.81-12.23,7.66-14.26-3.12-3.9,9.75-15.21,8.63,2.95-4.78,7.51-14.34,1.98-11.85Zm-496.56-28.59c5.56,5.47,6.69,15.84,16.68,12.91,3.34,1.84,11.45-.39,11.68-3.35,11.1-1.54,28.47-1.57,35.74-7.49,5.69-1.8,20.49-1.11,21.29-6.18,12.59-.12,18.03.4,27.59-8.15,5.67,12.55,16.98-12.11,11.55-19.02-4.63,2.28-7.51,5.5-13.61,4.71-1.39,2.82-3.43,5.31-7.57,5.12-5.16-1.79-9.24-.63-11.94,4.8-2.23-7.25,3.3-11.09,3.58-17.57,3.85,3.84.85,6.48,5.41,9.77,3.9-26.43-5.5-12.76-18.17-6.19-3.64-5.34-3.81,1.48-9.32,3.13-1.05-1.69-1.75.09-2.63.2-2.54.32-.62,2.51-1.37,3.13-.64,13.03-12.56-9.49-15.68,5.32-7.19-.68-10.28,3.34-13.65,8.59-14.25-6.57-29.03,5.6-39.57,10.28Zm-53.05-219.76c-.41.51-1.77.95-1.74,1.04.91,2.29-2.43,1.19-2.45,3.31-.02,1.86-2.58.77-3.95,1.24-7.15.92-10.55,6.67-16.53,8.32,3.04-9.83-4.6-2.74-7.06-.03-.84,7.63-2.85,5.37-7.75,1.35-7.36-.93-7.11,8.92-11.61,12.47-9.88,5.49-30.07,1.23-33.5,13.35-11.14,8.39-34.05,12.43-32.06,31.44,2.67.1,5.12.07,5.61-3.56,2.81-3.03,9.22-1.75,10.32-7.17,3.51-.89,8.52,1.5,9.29-3.93,9.84-3.55,18.32-6.18,26.45-12.4,13.58-4.85,23.14-11.73,37.42-14.55-.11-4,3.1-3.64,5.72-3.78-.57-4.72,3.68-6.33,5.64-1.62,3.45.09,5.5-2.75,7.01-4.53.45-9.55,8.11-1.48,12.99-4.59,8.77-3.61,17.6-1.81,23.76-9.84,2.93-1.29,11.53,4.21,11.92-4.61,4.96,1.53,5.4,1.35,9.33-2.33,1.95-1.52,3.38-.6,4.29,1.68,3.29-.19,11.45-3.47,10.9-6.89,8.31-14.45-11.92-11.12-20.75-9.26-.74,6.65-7.05,3.07-9.58,7.1-2.09,4.97-11.6-.77-11.79,6.1-10.4,5.37-18.77-5.29-21.89,1.67Zm284.64,144.37c-4.09,3.41-12.89,2.37-18.26,3.96-3.76,6.32-14.39,2.84-18.55,8.61-6.15,2.07-25.74,3.09-13.88,10.61,2.14-4.86,3.21-5.11,6.48-1.55,4.64,6.13,11.85-3.12,14.44-.72,5.93,2.17,2.46-11.48,11.39-6.65,8.53,7.33,24.2-13.67,30.68-.63,6.21-3.47,1.6-9.06,6.63-14.2-2.14-2.35-5.09-2.99-9.02-2.22-1.71,5.6-7.87-5.86-9.92,2.79Zm24.88,8.43c2.44-2.69,6.99-6.79,7.25-1.23,5.49,1.72,8.52-7.44,13.44-1.06,2.42-2.43,7.49-5.58,10.71-4.15,2.54,1.11,7.41-5.04,7.22-7.52-.85-6.47-12.67,9.95-8.26-3.14-10.74,2.26-46.98,10.01-30.36,17.1Zm-106.25,26.7c3.87-.12,6.11-4.75,9.76-4.35,22.79,4.19,7.73-24.57,5.95-4.63-3.1,2.28-4.05-1.14-6.09-1.47-2.35-.37-.44-4.36-2.69-4.34-5.87,1.95-5.78,6.21-5.24,10.53-2.37.59-2.94,1.86-1.7,4.25ZM71.97,193.03c1.45-1.73.01-5.03,3.19-5.8,4.19-20.65-12.76-3.3-9.22,10.46,2.81-2.36,4.22-3.25,6.04-4.66Z"/>
  </g>
</svg>