<?xml version="1.0" encoding="UTF-8"?>
<svg id="Layer_2" data-name="Layer 2" xmlns="http://www.w3.org/2000/svg" viewBox="0 0 605.01 490.37">
  <defs>
    <style>
      .cls-1 {
        fill: #fff;
      }
    </style>
  </defs>
  <g id="Layer_1-2" data-name="Layer 1">
    <path class="cls-1" d="m302.32,490.37c-8.52,0-17.05-2.08-24.84-6.25L27.79,350.52c-12.68-6.78-22.13-18.62-25.93-32.49s-1.71-28.87,5.73-41.18L159.79,25.38C169.27,9.73,186.52,0,204.82,0h195.42c18.2,0,35.41,9.65,44.91,25.18l152.1,248.79c7.59,12.42,9.7,27,5.94,41.07-3.76,14.06-12.88,25.64-25.66,32.61l-250.02,136.29c-7.88,4.29-16.53,6.44-25.19,6.44ZM204.82,34.83c-6.19,0-12.03,3.29-15.24,8.59L37.38,294.88c-2.56,4.23-3.25,9.17-1.94,13.94,1.31,4.76,4.42,8.66,8.77,10.99l249.7,133.61c5.31,2.84,11.64,2.82,16.93-.07l250.02-136.29c4.32-2.36,7.41-6.27,8.68-11.03,1.27-4.76.56-9.69-2.01-13.9L415.44,43.35c-3.21-5.26-9.04-8.52-15.2-8.52h-195.42Zm-3.46,73.74l-110.54,181.07c-2.16,3.53.3,8.14,4.34,8.14h83.83c18.06,0,35.04,8.93,45.68,24.03l42.68,60.58c3.33,4.72,10.51,1.23,9.12-4.43L210.68,110.09c-1.11-4.52-6.91-5.47-9.31-1.53Zm195.8,7.69v159.62c0,12.18-3.74,24.05-10.67,33.89l-50.65,71.88c-3.15,4.46,1.69,10.27,6.42,7.7l169.96-92.1c2.61-1.42,3.5-4.84,1.93-7.41l-107.67-176.37c-2.7-4.42-9.32-2.45-9.32,2.79Zm-25.75-34.27h-132.88c-4.78,0-7.05,6.1-3.5,9.41l47.51,44.33c12.09,11.28,18.99,27.33,18.99,44.17v170.7c0,6.36,8.76,7.49,10.28,1.33l64.65-263.21c.84-3.41-1.65-6.73-5.06-6.73Z"/>
  </g>
</svg>